CrimsonText-Regular jlb 10-Regular_SC.ufo
<glyph name="exclam" format="1">
  <advance width="167"/>
  <unicode hex="0021"/>
  <outline>
    <contour>
      <point x="83" y="111" type="curve"/>
      <point x="90" y="111"/>
      <point x="95" y="117"/>
      <point x="97" y="130" type="curve"/>
      <point x="104" y="196"/>
      <point x="123" y="361"/>
      <point x="123" y="400" type="curve"/>
      <point x="123" y="427"/>
      <point x="104" y="442"/>
      <point x="84" y="442" type="curve"/>
      <point x="61" y="442"/>
      <point x="43" y="427"/>
      <point x="43" y="400" type="curve"/>
      <point x="43" y="361"/>
      <point x="61" y="196"/>
      <point x="68" y="129" type="curve"/>
      <point x="70" y="117"/>
      <point x="74" y="111"/>
    </contour>
    <contour>
      <point x="84" y="-9" type="curve"/>
      <point x="109" y="-9"/>
      <point x="130" y="12"/>
      <point x="130" y="35" type="curve"/>
      <point x="130" y="58"/>
      <point x="109" y="78"/>
      <point x="83" y="78" type="curve"/>
      <point x="56" y="78"/>
      <point x="37" y="57"/>
      <point x="37" y="35" type="curve"/>
      <point x="37" y="12"/>
      <point x="56" y="-9"/>
    </contour>
  </outline>
</glyph>
<glyph name="numbersign" format="1">
  <advance width="351"/>
  <unicode hex="0023"/>
  <outline>
    <contour>
      <point x="167" y="367" type="line"/>
      <point x="124" y="367" type="line"/>
      <point x="64" y="0" type="line"/>
      <point x="108" y="0" type="line"/>
    </contour>
    <contour>
      <point x="286" y="367" type="line"/>
      <point x="242" y="367" type="line"/>
      <point x="182" y="0" type="line"/>
      <point x="226" y="0" type="line"/>
    </contour>
    <contour>
      <point x="330" y="260" type="line"/>
      <point x="21" y="260" type="line"/>
      <point x="21" y="222" type="line"/>
      <point x="330" y="222" type="line"/>
    </contour>
    <contour>
      <point x="330" y="155" type="line"/>
      <point x="21" y="155" type="line"/>
      <point x="21" y="117" type="line"/>
      <point x="330" y="117" type="line"/>
    </contour>
  </outline>
</glyph>
<glyph name="dollar" format="1">
  <advance width="374"/>
  <unicode hex="0024"/>
  <outline>
    <contour>
      <point x="43" y="336" type="curve"/>
      <point x="43" y="283"/>
      <point x="72" y="249"/>
      <point x="164" y="201" type="curve"/>
      <point x="244" y="158"/>
      <point x="267" y="136"/>
      <point x="267" y="98" type="curve"/>
      <point x="267" y="52"/>
      <point x="232" y="25"/>
      <point x="184" y="25" type="curve"/>
      <point x="118" y="25"/>
      <point x="78" y="59"/>
      <point x="62" y="123" type="curve"/>
      <point x="59" y="126"/>
      <point x="54" y="128"/>
      <point x="45" y="128" type="curve"/>
      <point x="35" y="128"/>
      <point x="30" y="127"/>
      <point x="30" y="123" type="curve"/>
      <point x="30" y="105"/>
      <point x="37" y="60"/>
      <point x="48" y="12" type="curve"/>
      <point x="97" y="4"/>
      <point x="130" y="-7"/>
      <point x="180" y="-7" type="curve"/>
      <point x="267" y="-7"/>
      <point x="343" y="44"/>
      <point x="343" y="121" type="curve"/>
      <point x="343" y="170"/>
      <point x="315" y="203"/>
      <point x="217" y="255" type="curve"/>
      <point x="140" y="297"/>
      <point x="115" y="322"/>
      <point x="115" y="360" type="curve"/>
      <point x="115" y="403"/>
      <point x="145" y="428"/>
      <point x="190" y="428" type="curve"/>
      <point x="243" y="428"/>
      <point x="275" y="393"/>
      <point x="289" y="337" type="curve"/>
      <point x="290" y="333"/>
      <point x="295" y="331"/>
      <point x="305" y="331" type="curve"/>
      <point x="313" y="331"/>
      <point x="317" y="333"/>
      <point x="318" y="336" type="curve"/>
      <point x="318" y="375"/>
      <point x="315" y="409"/>
      <point x="309" y="440" type="curve"/>
      <point x="267" y="452"/>
      <point x="237" y="459"/>
      <point x="198" y="459" type="curve"/>
      <point x="121" y="459"/>
      <point x="43" y="413"/>
    </contour>
    <contour>
      <point x="254" y="522" type="line"/>
      <point x="217" y="522" type="line"/>
      <point x="128" y="-69" type="line"/>
      <point x="164" y="-69" type="line"/>
    </contour>
  </outline>
</glyph>
<glyph name="percent" format="1">
  <advance width="522"/>
  <unicode hex="0025"/>
  <outline>
    <contour>
      <point x="99" y="0" type="line"/>
      <point x="468" y="439" type="line"/>
      <point x="423" y="439" type="line"/>
      <point x="54" y="0" type="line"/>
    </contour>
    <contour>
      <point x="140" y="419" type="curve"/>
      <point x="173" y="419"/>
      <point x="202" y="376"/>
      <point x="202" y="326" type="curve"/>
      <point x="202" y="279"/>
      <point x="184" y="246"/>
      <point x="152" y="246" type="curve"/>
      <point x="119" y="246"/>
      <point x="91" y="290"/>
      <point x="91" y="341" type="curve"/>
      <point x="91" y="388"/>
      <point x="108" y="419"/>
    </contour>
    <contour>
      <point x="145" y="443" type="curve"/>
      <point x="83" y="443"/>
      <point x="35" y="395"/>
      <point x="35" y="333" type="curve"/>
      <point x="35" y="270"/>
      <point x="81" y="222"/>
      <point x="146" y="222" type="curve"/>
      <point x="211" y="222"/>
      <point x="257" y="270"/>
      <point x="257" y="333" type="curve"/>
      <point x="257" y="393"/>
      <point x="207" y="443"/>
    </contour>
    <contour>
      <point x="371" y="192" type="curve"/>
      <point x="404" y="192"/>
      <point x="432" y="149"/>
      <point x="432" y="99" type="curve"/>
      <point x="432" y="52"/>
      <point x="414" y="19"/>
      <point x="382" y="19" type="curve"/>
      <point x="349" y="19"/>
      <point x="321" y="63"/>
      <point x="321" y="114" type="curve"/>
      <point x="321" y="161"/>
      <point x="338" y="192"/>
    </contour>
    <contour>
      <point x="376" y="216" type="curve"/>
      <point x="313" y="216"/>
      <point x="265" y="168"/>
      <point x="265" y="106" type="curve"/>
      <point x="265" y="42"/>
      <point x="312" y="-5"/>
      <point x="377" y="-5" type="curve"/>
      <point x="441" y="-5"/>
      <point x="488" y="42"/>
      <point x="488" y="106" type="curve"/>
      <point x="488" y="166"/>
      <point x="437" y="216"/>
    </contour>
  </outline>
</glyph>
<glyph name="ampersand" format="1">
  <advance width="522"/>
  <unicode hex="0026"/>
  <outline>
    <contour>
      <point x="189" y="-2" type="curve"/>
      <point x="286" y="-2"/>
      <point x="362" y="44"/>
      <point x="448" y="186" type="curve"/>
      <point x="453" y="192"/>
      <point x="480" y="198"/>
      <point x="501" y="198" type="curve"/>
      <point x="504" y="198"/>
      <point x="506" y="202"/>
      <point x="506" y="209" type="curve"/>
      <point x="506" y="214"/>
      <point x="504" y="218"/>
      <point x="502" y="220" type="curve"/>
      <point x="473" y="219"/>
      <point x="439" y="218"/>
      <point x="429" y="218" type="curve"/>
      <point x="406" y="218"/>
      <point x="372" y="219"/>
      <point x="351" y="220" type="curve"/>
      <point x="349" y="216"/>
      <point x="349" y="213"/>
      <point x="349" y="208" type="curve"/>
      <point x="349" y="204"/>
      <point x="349" y="199"/>
      <point x="350" y="196" type="curve"/>
      <point x="380" y="196"/>
      <point x="389" y="194"/>
      <point x="389" y="185" type="curve"/>
      <point x="389" y="156"/>
      <point x="364" y="120"/>
      <point x="329" y="85" type="curve"/>
      <point x="294" y="49"/>
      <point x="253" y="34"/>
      <point x="205" y="34" type="curve"/>
      <point x="154" y="34"/>
      <point x="113" y="68"/>
      <point x="113" y="121" type="curve"/>
      <point x="113" y="161"/>
      <point x="136" y="189"/>
      <point x="197" y="222" type="curve"/>
      <point x="308" y="282"/>
      <point x="344" y="318"/>
      <point x="344" y="366" type="curve"/>
      <point x="344" y="422"/>
      <point x="301" y="457"/>
      <point x="235" y="457" type="curve"/>
      <point x="166" y="457"/>
      <point x="114" y="408"/>
      <point x="114" y="347" type="curve"/>
      <point x="114" y="305"/>
      <point x="126" y="275"/>
      <point x="206" y="169" type="curve"/>
      <point x="297" y="49"/>
      <point x="353" y="0"/>
      <point x="416" y="0" type="curve"/>
      <point x="453" y="0"/>
      <point x="492" y="20"/>
      <point x="511" y="57" type="curve"/>
      <point x="511" y="64"/>
      <point x="497" y="72"/>
      <point x="490" y="72" type="curve"/>
      <point x="476" y="49"/>
      <point x="457" y="41"/>
      <point x="442" y="41" type="curve"/>
      <point x="407" y="41"/>
      <point x="355" y="83"/>
      <point x="259" y="206" type="curve"/>
      <point x="203" y="278"/>
      <point x="179" y="327"/>
      <point x="179" y="366" type="curve"/>
      <point x="179" y="401"/>
      <point x="198" y="426"/>
      <point x="230" y="426" type="curve"/>
      <point x="261" y="426"/>
      <point x="285" y="399"/>
      <point x="285" y="365" type="curve"/>
      <point x="285" y="311"/>
      <point x="261" y="286"/>
      <point x="171" y="245" type="curve"/>
      <point x="75" y="200"/>
      <point x="37" y="163"/>
      <point x="37" y="109" type="curve"/>
      <point x="37" y="40"/>
      <point x="95" y="-2"/>
    </contour>
  </outline>
</glyph>
<glyph name="parenleft" format="1">
  <advance width="237"/>
  <unicode hex="0028"/>
  <outline>
    <contour>
      <point x="105" y="215" type="curve"/>
      <point x="105" y="339"/>
      <point x="149" y="460"/>
      <point x="211" y="497" type="curve"/>
      <point x="198" y="515" type="line"/>
      <point x="112" y="478"/>
      <point x="42" y="342"/>
      <point x="42" y="215" type="curve"/>
      <point x="42" y="87"/>
      <point x="112" y="-49"/>
      <point x="198" y="-86" type="curve"/>
      <point x="211" y="-68" type="line"/>
      <point x="149" y="-30"/>
      <point x="105" y="90"/>
    </contour>
  </outline>
</glyph>
<glyph name="parenright" format="1">
  <advance width="237"/>
  <unicode hex="0029"/>
  <outline>
    <contour>
      <point x="132" y="215" type="curve"/>
      <point x="132" y="90"/>
      <point x="88" y="-30"/>
      <point x="26" y="-68" type="curve"/>
      <point x="39" y="-86" type="line"/>
      <point x="125" y="-49"/>
      <point x="195" y="87"/>
      <point x="195" y="215" type="curve"/>
      <point x="195" y="342"/>
      <point x="125" y="478"/>
      <point x="39" y="515" type="curve"/>
      <point x="26" y="497" type="line"/>
      <point x="88" y="460"/>
      <point x="132" y="339"/>
    </contour>
  </outline>
</glyph>
<glyph name="asterisk" format="1">
  <advance width="328"/>
  <unicode hex="002A"/>
  <outline>
    <contour>
      <point x="230" y="423" type="curve"/>
      <point x="222" y="415"/>
      <point x="214" y="404"/>
      <point x="205" y="389" type="curve"/>
      <point x="195" y="373"/>
      <point x="189" y="363"/>
      <point x="183" y="357" type="curve"/>
      <point x="180" y="354"/>
      <point x="177" y="352"/>
      <point x="175" y="352" type="curve"/>
      <point x="173" y="352"/>
      <point x="170" y="355"/>
      <point x="167" y="359" type="curve"/>
      <point x="163" y="370"/>
      <point x="159" y="384"/>
      <point x="156" y="397" type="curve"/>
      <point x="153" y="412"/>
      <point x="149" y="426"/>
      <point x="143" y="438" type="curve"/>
      <point x="137" y="451"/>
      <point x="128" y="458"/>
      <point x="117" y="458" type="curve"/>
      <point x="103" y="458"/>
      <point x="90" y="446"/>
      <point x="90" y="434" type="curve"/>
      <point x="90" y="421"/>
      <point x="101" y="403"/>
      <point x="121" y="384" type="curve"/>
      <point x="144" y="362"/>
      <point x="151" y="352"/>
      <point x="151" y="346" type="curve"/>
      <point x="151" y="340"/>
      <point x="146" y="338"/>
      <point x="132" y="338" type="curve"/>
      <point x="114" y="338"/>
      <point x="86" y="343"/>
      <point x="63" y="343" type="curve"/>
      <point x="41" y="343"/>
      <point x="25" y="332"/>
      <point x="25" y="317" type="curve"/>
      <point x="25" y="302"/>
      <point x="37" y="292"/>
      <point x="55" y="292" type="curve"/>
      <point x="67" y="292"/>
      <point x="82" y="296"/>
      <point x="107" y="307" type="curve"/>
      <point x="124" y="314"/>
      <point x="139" y="321"/>
      <point x="149" y="321" type="curve"/>
      <point x="153" y="321"/>
      <point x="156" y="318"/>
      <point x="156" y="313" type="curve"/>
      <point x="156" y="307"/>
      <point x="150" y="293"/>
      <point x="141" y="274" type="curve"/>
      <point x="129" y="251"/>
      <point x="124" y="237"/>
      <point x="124" y="225" type="curve"/>
      <point x="124" y="210"/>
      <point x="134" y="199"/>
      <point x="150" y="199" type="curve"/>
      <point x="169" y="199"/>
      <point x="179" y="214"/>
      <point x="179" y="242" type="curve"/>
      <point x="179" y="254"/>
      <point x="174" y="292"/>
      <point x="174" y="303" type="curve"/>
      <point x="174" y="311"/>
      <point x="177" y="315"/>
      <point x="181" y="315" type="curve"/>
      <point x="188" y="315"/>
      <point x="205" y="304"/>
      <point x="222" y="288" type="curve"/>
      <point x="245" y="268"/>
      <point x="263" y="257"/>
      <point x="276" y="257" type="curve"/>
      <point x="291" y="257"/>
      <point x="304" y="268"/>
      <point x="304" y="281" type="curve"/>
      <point x="304" y="292"/>
      <point x="295" y="302"/>
      <point x="281" y="307" type="curve"/>
      <point x="266" y="313"/>
      <point x="252" y="317"/>
      <point x="238" y="319" type="curve"/>
      <point x="208" y="324"/>
      <point x="192" y="330"/>
      <point x="192" y="336" type="curve"/>
      <point x="192" y="343"/>
      <point x="201" y="350"/>
      <point x="231" y="365" type="curve"/>
      <point x="268" y="383"/>
      <point x="281" y="396"/>
      <point x="281" y="412" type="curve"/>
      <point x="281" y="425"/>
      <point x="270" y="436"/>
      <point x="256" y="436" type="curve"/>
      <point x="247" y="436"/>
      <point x="238" y="431"/>
    </contour>
  </outline>
</glyph>
<glyph name="plus" format="1">
  <advance width="413"/>
  <unicode hex="002B"/>
  <outline>
    <contour>
      <point x="376" y="190" type="line"/>
      <point x="37" y="190" type="line"/>
      <point x="37" y="149" type="line"/>
      <point x="376" y="149" type="line"/>
    </contour>
    <contour>
      <point x="229" y="8" type="line"/>
      <point x="229" y="331" type="line"/>
      <point x="184" y="331" type="line"/>
      <point x="184" y="8" type="line"/>
    </contour>
  </outline>
</glyph>
<glyph name="comma" format="1">
  <advance width="167"/>
  <unicode hex="002C"/>
  <outline>
    <contour>
      <point x="36" y="-115" type="curve"/>
      <point x="87" y="-82"/>
      <point x="130" y="-22"/>
      <point x="130" y="23" type="curve"/>
      <point x="130" y="63"/>
      <point x="109" y="78"/>
      <point x="82" y="78" type="curve"/>
      <point x="57" y="78"/>
      <point x="37" y="61"/>
      <point x="37" y="35" type="curve"/>
      <point x="37" y="8"/>
      <point x="56" y="-4"/>
      <point x="56" y="-32" type="curve"/>
      <point x="56" y="-54"/>
      <point x="46" y="-69"/>
      <point x="16" y="-95" type="curve"/>
      <point x="16" y="-104"/>
      <point x="30" y="-115"/>
    </contour>
  </outline>
</glyph>
<glyph name="period" format="1">
  <advance width="167"/>
  <unicode hex="002E"/>
  <outline>
    <contour>
      <point x="84" y="-9" type="curve"/>
      <point x="109" y="-9"/>
      <point x="130" y="12"/>
      <point x="130" y="35" type="curve"/>
      <point x="130" y="58"/>
      <point x="109" y="78"/>
      <point x="83" y="78" type="curve"/>
      <point x="56" y="78"/>
      <point x="37" y="57"/>
      <point x="37" y="35" type="curve"/>
      <point x="37" y="12"/>
      <point x="56" y="-9"/>
    </contour>
  </outline>
</glyph>
<glyph name="slash" format="1">
  <advance width="316"/>
  <unicode hex="002F"/>
  <outline>
    <contour>
      <point x="69" y="-19" type="line"/>
      <point x="294" y="519" type="line"/>
      <point x="243" y="519" type="line"/>
      <point x="18" y="-19" type="line"/>
    </contour>
  </outline>
</glyph>
<glyph name="zero" format="1">
  <advance width="401"/>
  <unicode hex="0030"/>
  <outline>
    <contour>
      <point x="201" y="-2" type="curve"/>
      <point x="297" y="-2"/>
      <point x="365" y="90"/>
      <point x="365" y="219" type="curve"/>
      <point x="365" y="350"/>
      <point x="298" y="441"/>
      <point x="201" y="441" type="curve"/>
      <point x="105" y="441"/>
      <point x="37" y="349"/>
      <point x="37" y="219" type="curve"/>
      <point x="37" y="91"/>
      <point x="105" y="-2"/>
    </contour>
    <contour>
      <point x="199" y="27" type="curve"/>
      <point x="147" y="27"/>
      <point x="113" y="118"/>
      <point x="113" y="220" type="curve"/>
      <point x="113" y="323"/>
      <point x="146" y="412"/>
      <point x="204" y="412" type="curve"/>
      <point x="256" y="412"/>
      <point x="288" y="325"/>
      <point x="288" y="224" type="curve"/>
      <point x="288" y="116"/>
      <point x="257" y="27"/>
    </contour>
  </outline>
</glyph>
<glyph name="one" format="1">
  <advance width="247"/>
  <unicode hex="0031"/>
  <outline>
    <contour>
      <point x="28" y="335" type="curve"/>
      <point x="43" y="344"/>
      <point x="68" y="358"/>
      <point x="77" y="358" type="curve"/>
      <point x="87" y="358"/>
      <point x="88" y="339"/>
      <point x="88" y="316" type="curve"/>
      <point x="88" y="74" type="line" smooth="yes"/>
      <point x="88" y="59"/>
      <point x="87" y="45"/>
      <point x="84" y="34" type="curve"/>
      <point x="82" y="28"/>
      <point x="46" y="19"/>
      <point x="34" y="19" type="curve"/>
      <point x="32" y="19"/>
      <point x="31" y="16"/>
      <point x="31" y="10" type="curve"/>
      <point x="31" y="4"/>
      <point x="32" y="0"/>
      <point x="34" y="-2" type="curve"/>
      <point x="66" y="-1"/>
      <point x="111" y="2"/>
      <point x="124" y="2" type="curve"/>
      <point x="138" y="2"/>
      <point x="179" y="-1"/>
      <point x="216" y="-2" type="curve"/>
      <point x="217" y="-1"/>
      <point x="217" y="2"/>
      <point x="217" y="6" type="curve"/>
      <point x="217" y="15"/>
      <point x="217" y="19"/>
      <point x="215" y="19" type="curve"/>
      <point x="205" y="19"/>
      <point x="169" y="28"/>
      <point x="167" y="34" type="curve"/>
      <point x="163" y="48"/>
      <point x="161" y="67"/>
      <point x="161" y="92" type="curve"/>
      <point x="161" y="364" type="line" smooth="yes"/>
      <point x="161" y="393"/>
      <point x="163" y="414"/>
      <point x="168" y="429" type="curve"/>
      <point x="166" y="438"/>
      <point x="163" y="442"/>
      <point x="159" y="442" type="curve"/>
      <point x="157" y="442" type="line"/>
      <point x="121" y="422"/>
      <point x="65" y="388"/>
      <point x="16" y="358" type="curve"/>
      <point x="16" y="357"/>
      <point x="15" y="355"/>
      <point x="15" y="352" type="curve"/>
      <point x="15" y="348"/>
      <point x="22" y="338"/>
    </contour>
  </outline>
</glyph>
<glyph name="two" format="1">
  <advance width="345"/>
  <unicode hex="0032"/>
  <outline>
    <contour>
      <point x="24" y="0" type="curve"/>
      <point x="277" y="0" type="line" smooth="yes"/>
      <point x="285" y="0"/>
      <point x="290" y="3"/>
      <point x="290" y="11" type="curve"/>
      <point x="294" y="30"/>
      <point x="302" y="65"/>
      <point x="313" y="115" type="curve"/>
      <point x="310" y="117"/>
      <point x="306" y="118"/>
      <point x="299" y="118" type="curve"/>
      <point x="293" y="118"/>
      <point x="289" y="116"/>
      <point x="288" y="112" type="curve"/>
      <point x="276" y="72"/>
      <point x="266" y="56"/>
      <point x="235" y="56" type="curve"/>
      <point x="81" y="56" type="line"/>
      <point x="77" y="47" type="line"/>
      <point x="210" y="153"/>
      <point x="284" y="254"/>
      <point x="284" y="328" type="curve"/>
      <point x="284" y="394"/>
      <point x="235" y="442"/>
      <point x="170" y="442" type="curve"/>
      <point x="106" y="442"/>
      <point x="43" y="393"/>
      <point x="28" y="349" type="curve"/>
      <point x="28" y="344"/>
      <point x="39" y="336"/>
      <point x="45" y="336" type="curve"/>
      <point x="69" y="373"/>
      <point x="99" y="391"/>
      <point x="138" y="391" type="curve"/>
      <point x="181" y="391"/>
      <point x="208" y="359"/>
      <point x="208" y="314" type="curve"/>
      <point x="208" y="246"/>
      <point x="129" y="130"/>
      <point x="16" y="21" type="curve"/>
      <point x="16" y="13"/>
      <point x="21" y="2"/>
    </contour>
  </outline>
</glyph>
<glyph name="three" format="1">
  <advance width="342"/>
  <unicode hex="0033"/>
  <outline>
    <contour>
      <point x="170" y="442" type="curve"/>
      <point x="123" y="442"/>
      <point x="86" y="421"/>
      <point x="61" y="384" type="curve"/>
      <point x="61" y="377"/>
      <point x="68" y="366"/>
      <point x="72" y="366" type="curve"/>
      <point x="95" y="390"/>
      <point x="117" y="399"/>
      <point x="141" y="399" type="curve"/>
      <point x="177" y="399"/>
      <point x="202" y="373"/>
      <point x="202" y="341" type="curve"/>
      <point x="202" y="286"/>
      <point x="162" y="253"/>
      <point x="97" y="243" type="curve"/>
      <point x="96" y="241"/>
      <point x="95" y="238"/>
      <point x="95" y="235" type="curve"/>
      <point x="95" y="227"/>
      <point x="97" y="220"/>
      <point x="100" y="216" type="curve"/>
      <point x="115" y="219"/>
      <point x="128" y="220"/>
      <point x="143" y="220" type="curve"/>
      <point x="198" y="220"/>
      <point x="236" y="180"/>
      <point x="236" y="126" type="curve"/>
      <point x="236" y="58"/>
      <point x="199" y="27"/>
      <point x="154" y="27" type="curve"/>
      <point x="89" y="27"/>
      <point x="87" y="73"/>
      <point x="54" y="73" type="curve"/>
      <point x="37" y="73"/>
      <point x="27" y="62"/>
      <point x="27" y="44" type="curve"/>
      <point x="27" y="16"/>
      <point x="63" y="-3"/>
      <point x="127" y="-3" type="curve"/>
      <point x="231" y="-3"/>
      <point x="311" y="57"/>
      <point x="311" y="146" type="curve"/>
      <point x="311" y="209"/>
      <point x="252" y="258"/>
      <point x="183" y="260" type="curve"/>
      <point x="181" y="252" type="line"/>
      <point x="233" y="271"/>
      <point x="268" y="310"/>
      <point x="268" y="356" type="curve"/>
      <point x="268" y="407"/>
      <point x="222" y="442"/>
    </contour>
  </outline>
</glyph>
<glyph name="four" format="1">
  <advance width="361"/>
  <unicode hex="0034"/>
  <outline>
    <contour>
      <point x="275" y="444" type="curve"/>
      <point x="268" y="444"/>
      <point x="262" y="441"/>
      <point x="257" y="435" type="curve"/>
      <point x="22" y="145" type="line"/>
      <point x="22" y="133"/>
      <point x="25" y="125"/>
      <point x="30" y="120" type="curve"/>
      <point x="217" y="120" type="line"/>
      <point x="217" y="3" type="line" smooth="yes"/>
      <point x="217" y="-2"/>
      <point x="227" y="-4"/>
      <point x="249" y="-4" type="curve"/>
      <point x="269" y="-4"/>
      <point x="281" y="-2"/>
      <point x="286" y="0" type="curve"/>
      <point x="286" y="120" type="line"/>
      <point x="335" y="120" type="line"/>
      <point x="337" y="122"/>
      <point x="339" y="126"/>
      <point x="339" y="134" type="curve"/>
      <point x="339" y="151"/>
      <point x="335" y="162"/>
      <point x="327" y="162" type="curve"/>
      <point x="286" y="162" type="line"/>
      <point x="286" y="437" type="line" smooth="yes"/>
      <point x="286" y="441"/>
      <point x="283" y="444"/>
    </contour>
    <contour>
      <point x="217" y="357" type="line"/>
      <point x="217" y="162" type="line"/>
      <point x="63" y="162" type="line"/>
      <point x="63" y="148" type="line"/>
      <point x="227" y="354" type="line"/>
    </contour>
  </outline>
</glyph>
<glyph name="five" format="1">
  <advance width="352"/>
  <unicode hex="0035"/>
  <outline>
    <contour>
      <point x="139" y="-3" type="curve"/>
      <point x="240" y="-3"/>
      <point x="317" y="61"/>
      <point x="317" y="149" type="curve"/>
      <point x="317" y="212"/>
      <point x="250" y="276"/>
      <point x="161" y="276" type="curve"/>
      <point x="140" y="276"/>
      <point x="117" y="272"/>
      <point x="100" y="266" type="curve"/>
      <point x="121" y="376" type="line"/>
      <point x="116" y="373" type="line"/>
      <point x="188" y="375" type="line" smooth="yes"/>
      <point x="228" y="375"/>
      <point x="260" y="378"/>
      <point x="275" y="380" type="curve"/>
      <point x="279" y="393"/>
      <point x="281" y="407"/>
      <point x="281" y="422" type="curve"/>
      <point x="281" y="430"/>
      <point x="279" y="435"/>
      <point x="276" y="440" type="curve"/>
      <point x="260" y="437"/>
      <point x="200" y="434"/>
      <point x="97" y="432" type="curve"/>
      <point x="60" y="225" type="line"/>
      <point x="64" y="220"/>
      <point x="69" y="217"/>
      <point x="73" y="215" type="curve"/>
      <point x="91" y="220"/>
      <point x="112" y="223"/>
      <point x="136" y="223" type="curve"/>
      <point x="202" y="223"/>
      <point x="241" y="184"/>
      <point x="241" y="124" type="curve"/>
      <point x="241" y="66"/>
      <point x="210" y="27"/>
      <point x="163" y="27" type="curve"/>
      <point x="98" y="27"/>
      <point x="92" y="74"/>
      <point x="60" y="74" type="curve"/>
      <point x="45" y="74"/>
      <point x="34" y="62"/>
      <point x="34" y="45" type="curve"/>
      <point x="34" y="14"/>
      <point x="72" y="-3"/>
    </contour>
  </outline>
</glyph>
<glyph name="six" format="1">
  <advance width="365"/>
  <unicode hex="0036"/>
  <outline>
    <contour>
      <point x="181" y="-4" type="curve"/>
      <point x="267" y="-4"/>
      <point x="334" y="63"/>
      <point x="334" y="137" type="curve"/>
      <point x="334" y="204"/>
      <point x="275" y="262"/>
      <point x="209" y="262" type="curve"/>
      <point x="184" y="262"/>
      <point x="141" y="249"/>
      <point x="120" y="234" type="curve"/>
      <point x="124" y="231" type="line"/>
      <point x="147" y="314"/>
      <point x="213" y="380"/>
      <point x="319" y="422" type="curve"/>
      <point x="319" y="431"/>
      <point x="311" y="444"/>
      <point x="305" y="445" type="curve"/>
      <point x="137" y="383"/>
      <point x="37" y="270"/>
      <point x="37" y="144" type="curve"/>
      <point x="37" y="61"/>
      <point x="100" y="-4"/>
    </contour>
    <contour>
      <point x="188" y="25" type="curve"/>
      <point x="149" y="25"/>
      <point x="111" y="78"/>
      <point x="111" y="144" type="curve"/>
      <point x="112" y="164"/>
      <point x="115" y="184"/>
      <point x="121" y="198" type="curve"/>
      <point x="127" y="213"/>
      <point x="151" y="225"/>
      <point x="172" y="225" type="curve"/>
      <point x="221" y="225"/>
      <point x="261" y="183"/>
      <point x="261" y="118" type="curve"/>
      <point x="261" y="66"/>
      <point x="229" y="25"/>
    </contour>
  </outline>
</glyph>
<glyph name="seven" format="1">
  <advance width="356"/>
  <unicode hex="0037"/>
  <outline>
    <contour>
      <point x="111" y="-5" type="curve"/>
      <point x="114" y="-5"/>
      <point x="117" y="-5"/>
      <point x="118" y="-4" type="curve"/>
      <point x="314" y="386" type="line" smooth="yes"/>
      <point x="322" y="403"/>
      <point x="335" y="424"/>
      <point x="335" y="432" type="curve"/>
      <point x="335" y="437"/>
      <point x="333" y="439"/>
      <point x="330" y="439" type="curve"/>
      <point x="315" y="439"/>
      <point x="297" y="437"/>
      <point x="280" y="437" type="curve"/>
      <point x="63" y="437" type="line" smooth="yes"/>
      <point x="56" y="437"/>
      <point x="52" y="434"/>
      <point x="51" y="428" type="curve"/>
      <point x="46" y="401"/>
      <point x="31" y="340"/>
      <point x="25" y="319" type="curve"/>
      <point x="27" y="317"/>
      <point x="32" y="317"/>
      <point x="37" y="317" type="curve"/>
      <point x="44" y="317"/>
      <point x="52" y="318"/>
      <point x="53" y="321" type="curve"/>
      <point x="64" y="355"/>
      <point x="75" y="377"/>
      <point x="105" y="377" type="curve"/>
      <point x="273" y="377" type="line"/>
      <point x="76" y="15" type="line"/>
      <point x="76" y="7"/>
      <point x="97" y="-5"/>
    </contour>
  </outline>
</glyph>
<glyph name="nine" format="1">
  <advance width="365"/>
  <unicode hex="0039"/>
  <outline>
    <contour>
      <point x="184" y="445" type="curve"/>
      <point x="98" y="445"/>
      <point x="31" y="378"/>
      <point x="31" y="304" type="curve"/>
      <point x="31" y="237"/>
      <point x="89" y="178"/>
      <point x="155" y="178" type="curve"/>
      <point x="181" y="178"/>
      <point x="224" y="191"/>
      <point x="244" y="206" type="curve"/>
      <point x="240" y="209" type="line"/>
      <point x="217" y="126"/>
      <point x="152" y="61"/>
      <point x="46" y="19" type="curve"/>
      <point x="46" y="10"/>
      <point x="54" y="-3"/>
      <point x="60" y="-4" type="curve"/>
      <point x="228" y="58"/>
      <point x="328" y="170"/>
      <point x="328" y="296" type="curve"/>
      <point x="328" y="379"/>
      <point x="264" y="445"/>
    </contour>
    <contour>
      <point x="177" y="415" type="curve"/>
      <point x="216" y="415"/>
      <point x="253" y="363"/>
      <point x="253" y="297" type="curve"/>
      <point x="253" y="277"/>
      <point x="249" y="256"/>
      <point x="244" y="243" type="curve"/>
      <point x="237" y="228"/>
      <point x="214" y="216"/>
      <point x="193" y="216" type="curve"/>
      <point x="144" y="216"/>
      <point x="104" y="258"/>
      <point x="104" y="323" type="curve"/>
      <point x="104" y="375"/>
      <point x="136" y="415"/>
    </contour>
  </outline>
</glyph>
<glyph name="colon" format="1">
  <advance width="167"/>
  <unicode hex="003A"/>
  <outline>
    <contour>
      <point x="100" y="8" type="curve"/>
      <point x="117" y="16"/>
      <point x="122" y="36"/>
      <point x="113" y="51" type="curve"/>
      <point x="102" y="65"/>
      <point x="83" y="70"/>
      <point x="66" y="62" type="curve"/>
      <point x="50" y="54"/>
      <point x="42" y="33"/>
      <point x="54" y="18" type="curve"/>
      <point x="63" y="4"/>
      <point x="84" y="-1"/>
    </contour>
    <contour>
      <point x="100" y="231" type="curve"/>
      <point x="117" y="240"/>
      <point x="122" y="260"/>
      <point x="113" y="274" type="curve"/>
      <point x="102" y="289"/>
      <point x="83" y="294"/>
      <point x="66" y="286" type="curve"/>
      <point x="50" y="278"/>
      <point x="42" y="257"/>
      <point x="54" y="242" type="curve"/>
      <point x="63" y="227"/>
      <point x="84" y="222"/>
    </contour>
  </outline>
</glyph>
<glyph name="semicolon" format="1">
  <advance width="167"/>
  <unicode hex="003B"/>
  <outline>
    <contour>
      <point x="37" y="35" type="curve" smooth="yes"/>
      <point x="37" y="8"/>
      <point x="56" y="-4"/>
      <point x="56" y="-32" type="curve" smooth="yes"/>
      <point x="56" y="-54"/>
      <point x="46" y="-69"/>
      <point x="16" y="-95" type="curve"/>
      <point x="16" y="-104"/>
      <point x="30" y="-115"/>
      <point x="36" y="-115" type="curve"/>
      <point x="87" y="-82"/>
      <point x="130" y="-22"/>
      <point x="130" y="23" type="curve" smooth="yes"/>
      <point x="130" y="63"/>
      <point x="109" y="78"/>
      <point x="82" y="78" type="curve" smooth="yes"/>
      <point x="57" y="78"/>
      <point x="37" y="61"/>
    </contour>
    <contour>
      <point x="84" y="201" type="curve" smooth="yes"/>
      <point x="109" y="201"/>
      <point x="130" y="222"/>
      <point x="130" y="245" type="curve" smooth="yes"/>
      <point x="130" y="268"/>
      <point x="109" y="288"/>
      <point x="83" y="288" type="curve" smooth="yes"/>
      <point x="56" y="288"/>
      <point x="37" y="267"/>
      <point x="37" y="245" type="curve" smooth="yes"/>
      <point x="37" y="222"/>
      <point x="56" y="201"/>
    </contour>
  </outline>
</glyph>
<glyph name="less" format="1">
  <advance width="381"/>
  <unicode hex="003C"/>
  <outline>
    <contour>
      <point x="343" y="284" type="line"/>
      <point x="322" y="323" type="line"/>
      <point x="37" y="189" type="line"/>
      <point x="37" y="149" type="line"/>
      <point x="322" y="15" type="line"/>
      <point x="343" y="55" type="line"/>
      <point x="69" y="183" type="line"/>
      <point x="69" y="155" type="line"/>
    </contour>
  </outline>
</glyph>
<glyph name="equal" format="1">
  <advance width="413"/>
  <unicode hex="003D"/>
  <outline>
    <contour>
      <point x="37" y="135" type="line"/>
      <point x="37" y="93" type="line"/>
      <point x="376" y="93" type="line"/>
      <point x="376" y="135" type="line"/>
    </contour>
    <contour>
      <point x="37" y="245" type="line"/>
      <point x="37" y="204" type="line"/>
      <point x="376" y="204" type="line"/>
      <point x="376" y="245" type="line"/>
    </contour>
  </outline>
</glyph>
<glyph name="greater" format="1">
  <advance width="381"/>
  <unicode hex="003E"/>
  <outline>
    <contour>
      <point x="343" y="189" type="line"/>
      <point x="58" y="323" type="line"/>
      <point x="37" y="284" type="line"/>
      <point x="311" y="155" type="line"/>
      <point x="311" y="183" type="line"/>
      <point x="37" y="55" type="line"/>
      <point x="58" y="15" type="line"/>
      <point x="343" y="149" type="line"/>
    </contour>
  </outline>
</glyph>
<glyph name="question" format="1">
  <advance width="269"/>
  <unicode hex="003F"/>
  <outline>
    <contour>
      <point x="79" y="117" type="curve"/>
      <point x="88" y="117"/>
      <point x="93" y="119"/>
      <point x="93" y="125" type="curve"/>
      <point x="93" y="143"/>
      <point x="94" y="160"/>
      <point x="100" y="170" type="curve"/>
      <point x="104" y="177"/>
      <point x="122" y="189"/>
      <point x="152" y="207" type="curve"/>
      <point x="208" y="236"/>
      <point x="228" y="270"/>
      <point x="228" y="317" type="curve"/>
      <point x="228" y="388"/>
      <point x="149" y="443"/>
      <point x="67" y="443" type="curve"/>
      <point x="36" y="443"/>
      <point x="24" y="435"/>
      <point x="24" y="413" type="curve"/>
      <point x="24" y="392"/>
      <point x="41" y="376"/>
      <point x="66" y="376" type="curve"/>
      <point x="80" y="376"/>
      <point x="102" y="383"/>
      <point x="120" y="383" type="curve"/>
      <point x="157" y="383"/>
      <point x="180" y="363"/>
      <point x="181" y="339" type="curve"/>
      <point x="183" y="307"/>
      <point x="164" y="291"/>
      <point x="99" y="254" type="curve"/>
      <point x="70" y="237"/>
      <point x="60" y="216"/>
      <point x="60" y="182" type="curve"/>
      <point x="60" y="167"/>
      <point x="64" y="133"/>
      <point x="66" y="123" type="curve"/>
      <point x="67" y="118"/>
      <point x="73" y="117"/>
    </contour>
    <contour>
      <point x="84" y="-9" type="curve"/>
      <point x="109" y="-9"/>
      <point x="130" y="12"/>
      <point x="130" y="35" type="curve"/>
      <point x="130" y="58"/>
      <point x="109" y="78"/>
      <point x="83" y="78" type="curve"/>
      <point x="56" y="78"/>
      <point x="37" y="57"/>
      <point x="37" y="35" type="curve"/>
      <point x="37" y="12"/>
      <point x="56" y="-9"/>
    </contour>
  </outline>
</glyph>
<glyph name="A" format="1">
  <advance width="499"/>
  <unicode hex="0041"/>
  <outline>
    <contour>
      <point x="4" y="-2" type="curve"/>
      <point x="26" y="-1"/>
      <point x="70" y="2"/>
      <point x="84" y="2" type="curve"/>
      <point x="106" y="2"/>
      <point x="130" y="0"/>
      <point x="164" y="-2" type="curve"/>
      <point x="164" y="0"/>
      <point x="165" y="4"/>
      <point x="165" y="8" type="curve"/>
      <point x="165" y="14"/>
      <point x="164" y="19"/>
      <point x="162" y="19" type="curve"/>
      <point x="150" y="19"/>
      <point x="129" y="24"/>
      <point x="119" y="30" type="curve"/>
      <point x="114" y="33"/>
      <point x="112" y="39"/>
      <point x="112" y="45" type="curve"/>
      <point x="112" y="54"/>
      <point x="116" y="69"/>
      <point x="125" y="90" type="curve"/>
      <point x="156" y="161" type="line"/>
      <point x="187" y="163"/>
      <point x="219" y="164"/>
      <point x="247" y="164" type="curve"/>
      <point x="272" y="164"/>
      <point x="295" y="163"/>
      <point x="312" y="162" type="curve"/>
      <point x="343" y="85" type="line"/>
      <point x="350" y="69"/>
      <point x="354" y="53"/>
      <point x="354" y="43" type="curve"/>
      <point x="354" y="38"/>
      <point x="352" y="34"/>
      <point x="350" y="31" type="curve"/>
      <point x="345" y="24"/>
      <point x="324" y="19"/>
      <point x="311" y="19" type="curve"/>
      <point x="309" y="19"/>
      <point x="308" y="15"/>
      <point x="308" y="9" type="curve"/>
      <point x="308" y="4"/>
      <point x="309" y="-1"/>
      <point x="311" y="-2" type="curve"/>
      <point x="353" y="0"/>
      <point x="384" y="2"/>
      <point x="403" y="2" type="curve"/>
      <point x="416" y="2"/>
      <point x="449" y="0"/>
      <point x="495" y="-2" type="curve"/>
      <point x="496" y="0"/>
      <point x="497" y="3"/>
      <point x="497" y="7" type="curve"/>
      <point x="497" y="15"/>
      <point x="496" y="19"/>
      <point x="494" y="19" type="curve"/>
      <point x="481" y="19"/>
      <point x="448" y="29"/>
      <point x="442" y="43" type="curve"/>
      <point x="436" y="56"/>
      <point x="428" y="73"/>
      <point x="419" y="94" type="curve"/>
      <point x="272" y="446" type="line" smooth="yes"/>
      <point x="269" y="454"/>
      <point x="264" y="457"/>
      <point x="257" y="457" type="curve"/>
      <point x="245" y="457"/>
      <point x="238" y="451"/>
      <point x="232" y="438" type="curve"/>
      <point x="81" y="92" type="line" smooth="yes"/>
      <point x="71" y="67"/>
      <point x="60" y="47"/>
      <point x="50" y="35" type="curve"/>
      <point x="44" y="26"/>
      <point x="16" y="19"/>
      <point x="4" y="19" type="curve"/>
      <point x="2" y="19"/>
      <point x="1" y="15"/>
      <point x="1" y="8" type="curve"/>
      <point x="1" y="3"/>
      <point x="2" y="0"/>
    </contour>
    <contour>
      <point x="229" y="199" type="curve"/>
      <point x="216" y="199"/>
      <point x="195" y="200"/>
      <point x="173" y="201" type="curve"/>
      <point x="249" y="376" type="line"/>
      <point x="224" y="376" type="line"/>
      <point x="296" y="201" type="line"/>
      <point x="275" y="200"/>
      <point x="251" y="199"/>
    </contour>
    <contour>
      <point x="247" y="0" type="move" name="bottom"/>
    </contour>
    <contour>
      <point x="487" y="7" type="move" name="ogonek"/>
    </contour>
    <contour>
      <point x="247" y="453" type="move" name="top"/>
    </contour>
  </outline>
</glyph>
<glyph name="B" format="1">
  <advance width="454"/>
  <unicode hex="0042"/>
  <outline>
    <contour>
      <point x="29" y="-2" type="curve"/>
      <point x="67" y="0"/>
      <point x="96" y="0"/>
      <point x="125" y="0" type="curve"/>
      <point x="159" y="0"/>
      <point x="188" y="0"/>
      <point x="222" y="0" type="curve"/>
      <point x="346" y="0"/>
      <point x="423" y="52"/>
      <point x="423" y="134" type="curve"/>
      <point x="423" y="193"/>
      <point x="372" y="239"/>
      <point x="297" y="248" type="curve"/>
      <point x="295" y="242" type="line"/>
      <point x="354" y="260"/>
      <point x="390" y="300"/>
      <point x="390" y="350" type="curve"/>
      <point x="390" y="412"/>
      <point x="330" y="453"/>
      <point x="237" y="453" type="curve"/>
      <point x="198" y="452"/>
      <point x="154" y="452"/>
      <point x="124" y="452" type="curve"/>
      <point x="98" y="452"/>
      <point x="71" y="453"/>
      <point x="29" y="454" type="curve"/>
      <point x="27" y="452"/>
      <point x="26" y="448"/>
      <point x="26" y="442" type="curve"/>
      <point x="26" y="435"/>
      <point x="27" y="432"/>
      <point x="29" y="432" type="curve"/>
      <point x="45" y="432"/>
      <point x="78" y="422"/>
      <point x="80" y="416" type="curve"/>
      <point x="83" y="405"/>
      <point x="85" y="387"/>
      <point x="85" y="358" type="curve"/>
      <point x="85" y="98" type="line" smooth="yes"/>
      <point x="85" y="61"/>
      <point x="83" y="42"/>
      <point x="80" y="35" type="curve"/>
      <point x="77" y="28"/>
      <point x="48" y="19"/>
      <point x="29" y="19" type="curve"/>
      <point x="28" y="19"/>
      <point x="27" y="16"/>
      <point x="27" y="9" type="curve"/>
      <point x="27" y="3"/>
      <point x="28" y="-1"/>
    </contour>
    <contour>
      <point x="228" y="32" type="curve"/>
      <point x="177" y="32"/>
      <point x="162" y="42"/>
      <point x="162" y="73" type="curve"/>
      <point x="162" y="221" type="line"/>
      <point x="175" y="224"/>
      <point x="191" y="224"/>
      <point x="210" y="224" type="curve"/>
      <point x="295" y="224"/>
      <point x="339" y="187"/>
      <point x="339" y="125" type="curve"/>
      <point x="339" y="65"/>
      <point x="300" y="32"/>
    </contour>
    <contour>
      <point x="208" y="256" type="curve"/>
      <point x="187" y="256"/>
      <point x="175" y="257"/>
      <point x="162" y="258" type="curve"/>
      <point x="162" y="408" type="line" smooth="yes"/>
      <point x="162" y="418"/>
      <point x="174" y="422"/>
      <point x="209" y="422" type="curve"/>
      <point x="272" y="422"/>
      <point x="310" y="391"/>
      <point x="310" y="339" type="curve"/>
      <point x="310" y="282"/>
      <point x="279" y="256"/>
    </contour>
    <contour>
      <point x="224" y="0" type="move" name="bottom"/>
    </contour>
    <contour>
      <point x="224" y="453" type="move" name="top"/>
    </contour>
  </outline>
</glyph>
<glyph name="D" format="1">
  <advance width="547"/>
  <unicode hex="0044"/>
  <outline>
    <contour>
      <point x="124" y="452" type="curve"/>
      <point x="90" y="452"/>
      <point x="59" y="453"/>
      <point x="29" y="454" type="curve"/>
      <point x="27" y="452"/>
      <point x="26" y="448"/>
      <point x="26" y="442" type="curve"/>
      <point x="26" y="436"/>
      <point x="27" y="432"/>
      <point x="29" y="432" type="curve"/>
      <point x="45" y="432"/>
      <point x="78" y="422"/>
      <point x="80" y="416" type="curve"/>
      <point x="83" y="404"/>
      <point x="85" y="385"/>
      <point x="85" y="358" type="curve"/>
      <point x="85" y="98" type="line" smooth="yes"/>
      <point x="85" y="63"/>
      <point x="83" y="42"/>
      <point x="80" y="35" type="curve"/>
      <point x="77" y="29"/>
      <point x="47" y="19"/>
      <point x="29" y="19" type="curve"/>
      <point x="28" y="19"/>
      <point x="27" y="16"/>
      <point x="27" y="8" type="curve"/>
      <point x="27" y="3"/>
      <point x="28" y="-1"/>
      <point x="29" y="-2" type="curve"/>
      <point x="61" y="-1"/>
      <point x="94" y="0"/>
      <point x="125" y="0" type="curve"/>
      <point x="152" y="0"/>
      <point x="237" y="-2"/>
      <point x="253" y="-2" type="curve"/>
      <point x="407" y="-2"/>
      <point x="511" y="92"/>
      <point x="511" y="231" type="curve"/>
      <point x="511" y="358"/>
      <point x="404" y="453"/>
      <point x="246" y="453" type="curve"/>
      <point x="209" y="453"/>
      <point x="145" y="452"/>
    </contour>
    <contour>
      <point x="162" y="95" type="curve"/>
      <point x="162" y="366" type="line"/>
      <point x="162" y="386"/>
      <point x="165" y="401"/>
      <point x="172" y="409" type="curve"/>
      <point x="178" y="417"/>
      <point x="206" y="420"/>
      <point x="239" y="420" type="curve"/>
      <point x="361" y="420"/>
      <point x="423" y="352"/>
      <point x="423" y="232" type="curve"/>
      <point x="423" y="100"/>
      <point x="369" y="32"/>
      <point x="260" y="32" type="curve"/>
      <point x="220" y="32"/>
      <point x="177" y="37"/>
      <point x="172" y="44" type="curve"/>
      <point x="165" y="56"/>
      <point x="162" y="73"/>
    </contour>
    <contour>
      <point x="272" y="0" type="move" name="bottom"/>
    </contour>
    <contour>
      <point x="272" y="226" type="move" name="center"/>
    </contour>
    <contour>
      <point x="165" y="227" type="move" name="stroke"/>
    </contour>
    <contour>
      <point x="272" y="453" type="move" name="top"/>
    </contour>
  </outline>
</glyph>
<glyph name="F" format="1">
  <advance width="407"/>
  <unicode hex="0046"/>
  <outline>
    <contour>
      <point x="30" y="-2" type="curve"/>
      <point x="61" y="0"/>
      <point x="92" y="1"/>
      <point x="126" y="1" type="curve"/>
      <point x="136" y="1"/>
      <point x="168" y="0"/>
      <point x="221" y="-2" type="curve"/>
      <point x="221" y="0"/>
      <point x="222" y="4"/>
      <point x="222" y="8" type="curve"/>
      <point x="222" y="16"/>
      <point x="221" y="19"/>
      <point x="219" y="19" type="curve"/>
      <point x="201" y="19"/>
      <point x="170" y="29"/>
      <point x="168" y="34" type="curve"/>
      <point x="164" y="50"/>
      <point x="162" y="70"/>
      <point x="162" y="96" type="curve"/>
      <point x="162" y="204" type="line" smooth="yes"/>
      <point x="162" y="208"/>
      <point x="180" y="210"/>
      <point x="215" y="210" type="curve"/>
      <point x="257" y="210"/>
      <point x="283" y="208"/>
      <point x="290" y="202" type="curve"/>
      <point x="297" y="198"/>
      <point x="301" y="186"/>
      <point x="308" y="162" type="curve"/>
      <point x="310" y="159"/>
      <point x="313" y="157"/>
      <point x="320" y="157" type="curve"/>
      <point x="327" y="157"/>
      <point x="331" y="158"/>
      <point x="333" y="160" type="curve"/>
      <point x="333" y="292" type="line"/>
      <point x="331" y="294"/>
      <point x="326" y="295"/>
      <point x="319" y="295" type="curve"/>
      <point x="313" y="295"/>
      <point x="309" y="294"/>
      <point x="308" y="291" type="curve"/>
      <point x="302" y="267"/>
      <point x="298" y="253"/>
      <point x="291" y="249" type="curve"/>
      <point x="286" y="245"/>
      <point x="266" y="243"/>
      <point x="243" y="243" type="curve"/>
      <point x="193" y="243" type="line" smooth="yes"/>
      <point x="172" y="243"/>
      <point x="162" y="244"/>
      <point x="162" y="247" type="curve"/>
      <point x="162" y="357" type="line" smooth="yes"/>
      <point x="162" y="384"/>
      <point x="163" y="403"/>
      <point x="166" y="414" type="curve"/>
      <point x="166" y="420"/>
      <point x="187" y="423"/>
      <point x="226" y="423" type="curve"/>
      <point x="269" y="423" type="line" smooth="yes"/>
      <point x="323" y="423"/>
      <point x="344" y="407"/>
      <point x="361" y="362" type="curve"/>
      <point x="362" y="359"/>
      <point x="365" y="357"/>
      <point x="371" y="357" type="curve"/>
      <point x="379" y="357"/>
      <point x="384" y="359"/>
      <point x="386" y="361" type="curve"/>
      <point x="380" y="389"/>
      <point x="368" y="435"/>
      <point x="364" y="457" type="curve"/>
      <point x="337" y="457"/>
      <point x="297" y="456"/>
      <point x="243" y="455" type="curve"/>
      <point x="189" y="453"/>
      <point x="149" y="452"/>
      <point x="124" y="452" type="curve"/>
      <point x="92" y="452"/>
      <point x="61" y="453"/>
      <point x="29" y="454" type="curve"/>
      <point x="27" y="452"/>
      <point x="26" y="448"/>
      <point x="26" y="442" type="curve"/>
      <point x="26" y="436"/>
      <point x="27" y="432"/>
      <point x="29" y="432" type="curve"/>
      <point x="47" y="431"/>
      <point x="77" y="423"/>
      <point x="80" y="416" type="curve"/>
      <point x="83" y="404"/>
      <point x="85" y="385"/>
      <point x="85" y="358" type="curve"/>
      <point x="85" y="95" type="line" smooth="yes"/>
      <point x="85" y="66"/>
      <point x="83" y="45"/>
      <point x="80" y="34" type="curve"/>
      <point x="78" y="28"/>
      <point x="48" y="19"/>
      <point x="30" y="19" type="curve"/>
      <point x="28" y="19"/>
      <point x="27" y="16"/>
      <point x="27" y="8" type="curve"/>
      <point x="27" y="3"/>
      <point x="28" y="0"/>
    </contour>
    <contour>
      <point x="205" y="0" type="move" name="bottom"/>
    </contour>
    <contour>
      <point x="205" y="453" type="move" name="top"/>
    </contour>
  </outline>
</glyph>
<glyph name="H" format="1">
  <advance width="536"/>
  <unicode hex="0048"/>
  <outline>
    <contour>
      <point x="30" y="-2" type="curve"/>
      <point x="85" y="0"/>
      <point x="119" y="2"/>
      <point x="125" y="2" type="curve"/>
      <point x="139" y="2"/>
      <point x="166" y="0"/>
      <point x="217" y="-2" type="curve"/>
      <point x="218" y="1"/>
      <point x="219" y="5"/>
      <point x="219" y="8" type="curve"/>
      <point x="219" y="14"/>
      <point x="217" y="19"/>
      <point x="216" y="19" type="curve"/>
      <point x="202" y="19"/>
      <point x="170" y="29"/>
      <point x="168" y="34" type="curve"/>
      <point x="164" y="50"/>
      <point x="162" y="70"/>
      <point x="162" y="96" type="curve"/>
      <point x="162" y="212" type="line"/>
      <point x="164" y="214" type="line"/>
      <point x="175" y="216"/>
      <point x="202" y="217"/>
      <point x="269" y="217" type="curve"/>
      <point x="296" y="217"/>
      <point x="330" y="216"/>
      <point x="372" y="215" type="curve"/>
      <point x="374" y="213" type="line"/>
      <point x="374" y="94" type="line" smooth="yes"/>
      <point x="374" y="66"/>
      <point x="372" y="46"/>
      <point x="369" y="34" type="curve"/>
      <point x="366" y="29"/>
      <point x="336" y="19"/>
      <point x="319" y="19" type="curve"/>
      <point x="317" y="19"/>
      <point x="316" y="16"/>
      <point x="316" y="10" type="curve"/>
      <point x="316" y="4"/>
      <point x="317" y="0"/>
      <point x="319" y="-2" type="curve"/>
      <point x="369" y="0"/>
      <point x="408" y="2"/>
      <point x="415" y="2" type="curve"/>
      <point x="426" y="2"/>
      <point x="460" y="0"/>
      <point x="505" y="-2" type="curve"/>
      <point x="506" y="1"/>
      <point x="507" y="5"/>
      <point x="507" y="8" type="curve"/>
      <point x="507" y="16"/>
      <point x="506" y="20"/>
      <point x="504" y="20" type="curve"/>
      <point x="489" y="20"/>
      <point x="458" y="29"/>
      <point x="457" y="34" type="curve"/>
      <point x="453" y="48"/>
      <point x="451" y="69"/>
      <point x="451" y="96" type="curve"/>
      <point x="451" y="356" type="line" smooth="yes"/>
      <point x="451" y="384"/>
      <point x="453" y="404"/>
      <point x="457" y="419" type="curve"/>
      <point x="458" y="424"/>
      <point x="490" y="434"/>
      <point x="504" y="434" type="curve"/>
      <point x="506" y="434"/>
      <point x="507" y="437"/>
      <point x="507" y="444" type="curve"/>
      <point x="507" y="449"/>
      <point x="506" y="452"/>
      <point x="505" y="455" type="curve"/>
      <point x="465" y="453"/>
      <point x="429" y="451"/>
      <point x="416" y="451" type="curve"/>
      <point x="401" y="451"/>
      <point x="357" y="453"/>
      <point x="319" y="455" type="curve"/>
      <point x="317" y="454"/>
      <point x="316" y="450"/>
      <point x="316" y="444" type="curve"/>
      <point x="316" y="437"/>
      <point x="317" y="434"/>
      <point x="319" y="434" type="curve"/>
      <point x="335" y="434"/>
      <point x="366" y="424"/>
      <point x="368" y="418" type="curve"/>
      <point x="372" y="406"/>
      <point x="374" y="386"/>
      <point x="374" y="359" type="curve"/>
      <point x="374" y="256" type="line"/>
      <point x="372" y="253" type="line"/>
      <point x="327" y="253"/>
      <point x="293" y="252"/>
      <point x="269" y="252" type="curve"/>
      <point x="247" y="252"/>
      <point x="212" y="253"/>
      <point x="163" y="253" type="curve"/>
      <point x="162" y="255" type="line"/>
      <point x="162" y="356" type="line" smooth="yes"/>
      <point x="162" y="384"/>
      <point x="164" y="405"/>
      <point x="168" y="419" type="curve"/>
      <point x="170" y="424"/>
      <point x="202" y="434"/>
      <point x="216" y="434" type="curve"/>
      <point x="218" y="434"/>
      <point x="219" y="439"/>
      <point x="219" y="445" type="curve"/>
      <point x="219" y="450"/>
      <point x="218" y="454"/>
      <point x="217" y="455" type="curve"/>
      <point x="164" y="453"/>
      <point x="135" y="451"/>
      <point x="124" y="451" type="curve"/>
      <point x="114" y="451"/>
      <point x="76" y="453"/>
      <point x="30" y="455" type="curve"/>
      <point x="29" y="454"/>
      <point x="28" y="450"/>
      <point x="28" y="444" type="curve"/>
      <point x="28" y="437"/>
      <point x="29" y="434"/>
      <point x="31" y="434" type="curve"/>
      <point x="48" y="434"/>
      <point x="77" y="424"/>
      <point x="80" y="418" type="curve"/>
      <point x="83" y="407"/>
      <point x="85" y="387"/>
      <point x="85" y="359" type="curve"/>
      <point x="85" y="94" type="line" smooth="yes"/>
      <point x="85" y="66"/>
      <point x="83" y="46"/>
      <point x="80" y="34" type="curve"/>
      <point x="78" y="28"/>
      <point x="47" y="19"/>
      <point x="30" y="19" type="curve"/>
      <point x="28" y="19"/>
      <point x="27" y="16"/>
      <point x="27" y="8" type="curve"/>
      <point x="27" y="3"/>
      <point x="28" y="0"/>
    </contour>
    <contour>
      <point x="268" y="0" type="move" name="bottom"/>
    </contour>
    <contour>
      <point x="268" y="343" type="move" name="stroke"/>
    </contour>
    <contour>
      <point x="268" y="453" type="move" name="top"/>
    </contour>
    <contour>
      <point x="17" y="453" type="move" name="topleft"/>
    </contour>
  </outline>
</glyph>
<glyph name="I" format="1">
  <advance width="247"/>
  <unicode hex="0049"/>
  <outline>
    <contour>
      <point x="30" y="-2" type="curve"/>
      <point x="59" y="-1"/>
      <point x="105" y="2"/>
      <point x="125" y="2" type="curve"/>
      <point x="149" y="2"/>
      <point x="185" y="0"/>
      <point x="217" y="-2" type="curve"/>
      <point x="218" y="0"/>
      <point x="219" y="4"/>
      <point x="219" y="8" type="curve"/>
      <point x="219" y="16"/>
      <point x="218" y="19"/>
      <point x="216" y="19" type="curve"/>
      <point x="206" y="19"/>
      <point x="171" y="28"/>
      <point x="168" y="34" type="curve"/>
      <point x="164" y="52"/>
      <point x="162" y="73"/>
      <point x="162" y="97" type="curve"/>
      <point x="162" y="360" type="line" smooth="yes"/>
      <point x="162" y="382"/>
      <point x="164" y="404"/>
      <point x="168" y="419" type="curve"/>
      <point x="170" y="425"/>
      <point x="207" y="434"/>
      <point x="216" y="434" type="curve"/>
      <point x="218" y="434"/>
      <point x="219" y="437"/>
      <point x="219" y="444" type="curve"/>
      <point x="219" y="449"/>
      <point x="218" y="452"/>
      <point x="217" y="455" type="curve"/>
      <point x="170" y="453"/>
      <point x="144" y="452"/>
      <point x="125" y="452" type="curve"/>
      <point x="103" y="452"/>
      <point x="71" y="453"/>
      <point x="30" y="455" type="curve"/>
      <point x="29" y="454"/>
      <point x="28" y="450"/>
      <point x="28" y="444" type="curve"/>
      <point x="28" y="437"/>
      <point x="29" y="434"/>
      <point x="31" y="434" type="curve"/>
      <point x="43" y="434"/>
      <point x="76" y="426"/>
      <point x="80" y="418" type="curve"/>
      <point x="83" y="408"/>
      <point x="85" y="388"/>
      <point x="85" y="360" type="curve"/>
      <point x="85" y="94" type="line" smooth="yes"/>
      <point x="85" y="67"/>
      <point x="83" y="47"/>
      <point x="80" y="34" type="curve"/>
      <point x="77" y="27"/>
      <point x="42" y="19"/>
      <point x="30" y="19" type="curve"/>
      <point x="28" y="19"/>
      <point x="27" y="16"/>
      <point x="27" y="8" type="curve"/>
      <point x="27" y="3"/>
      <point x="28" y="0"/>
    </contour>
    <contour>
      <point x="123" y="0" type="move" name="bottom"/>
    </contour>
    <contour>
      <point x="187" y="7" type="move" name="ogonek"/>
    </contour>
    <contour>
      <point x="123" y="453" type="move" name="top"/>
    </contour>
    <contour>
      <point x="17" y="453" type="move" name="topleft"/>
    </contour>
  </outline>
</glyph>
<glyph name="J" format="1">
  <advance width="242"/>
  <unicode hex="004A"/>
  <outline>
    <contour>
      <point x="124" y="451" type="curve"/>
      <point x="104" y="451"/>
      <point x="59" y="454"/>
      <point x="29" y="455" type="curve"/>
      <point x="27" y="454"/>
      <point x="26" y="450"/>
      <point x="26" y="444" type="curve"/>
      <point x="26" y="437"/>
      <point x="27" y="434"/>
      <point x="29" y="434" type="curve"/>
      <point x="42" y="434"/>
      <point x="74" y="426"/>
      <point x="78" y="418" type="curve"/>
      <point x="82" y="408"/>
      <point x="83" y="388"/>
      <point x="83" y="360" type="curve"/>
      <point x="83" y="65" type="line" smooth="yes"/>
      <point x="83" y="5"/>
      <point x="76" y="-43"/>
      <point x="64" y="-70" type="curve"/>
      <point x="52" y="-97"/>
      <point x="38" y="-111"/>
      <point x="21" y="-111" type="curve"/>
      <point x="15" y="-111"/>
      <point x="6" y="-105"/>
      <point x="-7" y="-94" type="curve"/>
      <point x="-19" y="-83"/>
      <point x="-33" y="-77"/>
      <point x="-43" y="-77" type="curve"/>
      <point x="-67" y="-77"/>
      <point x="-86" y="-93"/>
      <point x="-86" y="-113" type="curve"/>
      <point x="-86" y="-138"/>
      <point x="-63" y="-154"/>
      <point x="-21" y="-154" type="curve"/>
      <point x="75" y="-154"/>
      <point x="160" y="-57"/>
      <point x="160" y="71" type="curve"/>
      <point x="160" y="356" type="line" smooth="yes"/>
      <point x="160" y="383"/>
      <point x="162" y="404"/>
      <point x="167" y="419" type="curve"/>
      <point x="169" y="425"/>
      <point x="205" y="434"/>
      <point x="215" y="434" type="curve"/>
      <point x="217" y="434"/>
      <point x="218" y="437"/>
      <point x="218" y="444" type="curve"/>
      <point x="218" y="449"/>
      <point x="217" y="452"/>
      <point x="216" y="455" type="curve"/>
      <point x="183" y="454"/>
      <point x="140" y="451"/>
    </contour>
    <contour>
      <point x="97" y="0" type="move" name="bottom"/>
    </contour>
    <contour>
      <point x="124" y="453" type="move" name="top"/>
    </contour>
  </outline>
</glyph>
<glyph name="K" format="1">
  <advance width="508"/>
  <unicode hex="004B"/>
  <outline>
    <contour>
      <point x="30" y="-2" type="curve"/>
      <point x="64" y="-1"/>
      <point x="105" y="2"/>
      <point x="125" y="2" type="curve"/>
      <point x="136" y="2"/>
      <point x="173" y="0"/>
      <point x="217" y="-2" type="curve"/>
      <point x="218" y="0"/>
      <point x="219" y="4"/>
      <point x="219" y="8" type="curve"/>
      <point x="219" y="14"/>
      <point x="217" y="19"/>
      <point x="216" y="19" type="curve"/>
      <point x="206" y="19"/>
      <point x="171" y="28"/>
      <point x="168" y="34" type="curve"/>
      <point x="164" y="49"/>
      <point x="162" y="71"/>
      <point x="162" y="97" type="curve"/>
      <point x="162" y="209" type="line"/>
      <point x="178" y="209" type="line" smooth="yes"/>
      <point x="186" y="209"/>
      <point x="191" y="207"/>
      <point x="196" y="202" type="curve"/>
      <point x="322" y="71" type="line" smooth="yes"/>
      <point x="342" y="50"/>
      <point x="348" y="39"/>
      <point x="348" y="33" type="curve"/>
      <point x="348" y="24"/>
      <point x="327" y="19"/>
      <point x="315" y="19" type="curve"/>
      <point x="313" y="19"/>
      <point x="312" y="16"/>
      <point x="312" y="10" type="curve"/>
      <point x="312" y="4"/>
      <point x="313" y="0"/>
      <point x="315" y="-2" type="curve"/>
      <point x="340" y="-1"/>
      <point x="389" y="2"/>
      <point x="418" y="2" type="curve"/>
      <point x="432" y="2"/>
      <point x="476" y="0"/>
      <point x="517" y="-2" type="curve"/>
      <point x="518" y="0"/>
      <point x="519" y="3"/>
      <point x="519" y="7" type="curve"/>
      <point x="519" y="15"/>
      <point x="518" y="19"/>
      <point x="515" y="19" type="curve"/>
      <point x="499" y="19"/>
      <point x="463" y="27"/>
      <point x="445" y="45" type="curve"/>
      <point x="262" y="233" type="line"/>
      <point x="257" y="238"/>
      <point x="255" y="242"/>
      <point x="255" y="245" type="curve"/>
      <point x="255" y="247"/>
      <point x="256" y="250"/>
      <point x="258" y="252" type="curve"/>
      <point x="404" y="407" type="line" smooth="yes"/>
      <point x="419" y="424"/>
      <point x="444" y="433"/>
      <point x="478" y="436" type="curve"/>
      <point x="479" y="437"/>
      <point x="481" y="442"/>
      <point x="481" y="447" type="curve"/>
      <point x="481" y="450"/>
      <point x="480" y="454"/>
      <point x="479" y="455" type="curve"/>
      <point x="453" y="454"/>
      <point x="416" y="451"/>
      <point x="397" y="451" type="curve"/>
      <point x="382" y="451"/>
      <point x="342" y="454"/>
      <point x="311" y="455" type="curve"/>
      <point x="310" y="453"/>
      <point x="310" y="450"/>
      <point x="310" y="446" type="curve"/>
      <point x="310" y="441"/>
      <point x="311" y="436"/>
      <point x="314" y="436" type="curve"/>
      <point x="338" y="436"/>
      <point x="357" y="432"/>
      <point x="357" y="424" type="curve"/>
      <point x="357" y="419"/>
      <point x="353" y="411"/>
      <point x="341" y="399" type="curve"/>
      <point x="212" y="263" type="line" smooth="yes"/>
      <point x="199" y="248"/>
      <point x="184" y="241"/>
      <point x="172" y="241" type="curve"/>
      <point x="162" y="241" type="line"/>
      <point x="162" y="356" type="line" smooth="yes"/>
      <point x="162" y="383"/>
      <point x="164" y="404"/>
      <point x="168" y="419" type="curve"/>
      <point x="170" y="425"/>
      <point x="207" y="434"/>
      <point x="216" y="434" type="curve"/>
      <point x="218" y="434"/>
      <point x="219" y="439"/>
      <point x="219" y="445" type="curve"/>
      <point x="219" y="450"/>
      <point x="218" y="453"/>
      <point x="217" y="455" type="curve"/>
      <point x="184" y="454"/>
      <point x="142" y="451"/>
      <point x="125" y="451" type="curve"/>
      <point x="106" y="451"/>
      <point x="60" y="454"/>
      <point x="30" y="455" type="curve"/>
      <point x="29" y="454"/>
      <point x="28" y="450"/>
      <point x="28" y="444" type="curve"/>
      <point x="28" y="437"/>
      <point x="29" y="434"/>
      <point x="31" y="434" type="curve"/>
      <point x="43" y="434"/>
      <point x="76" y="426"/>
      <point x="80" y="418" type="curve"/>
      <point x="83" y="408"/>
      <point x="85" y="388"/>
      <point x="85" y="360" type="curve"/>
      <point x="85" y="94" type="line" smooth="yes"/>
      <point x="85" y="67"/>
      <point x="83" y="47"/>
      <point x="80" y="34" type="curve"/>
      <point x="77" y="27"/>
      <point x="42" y="19"/>
      <point x="30" y="19" type="curve"/>
      <point x="28" y="19"/>
      <point x="27" y="16"/>
      <point x="27" y="8" type="curve"/>
      <point x="27" y="3"/>
      <point x="28" y="0"/>
    </contour>
    <contour>
      <point x="264" y="0" type="move" name="bottom"/>
    </contour>
    <contour>
      <point x="264" y="453" type="move" name="top"/>
    </contour>
  </outline>
</glyph>
<glyph name="L" format="1">
  <advance width="419"/>
  <unicode hex="004C"/>
  <outline>
    <contour>
      <point x="125" y="451" type="curve"/>
      <point x="114" y="451"/>
      <point x="77" y="453"/>
      <point x="30" y="455" type="curve"/>
      <point x="29" y="454"/>
      <point x="28" y="450"/>
      <point x="28" y="444" type="curve"/>
      <point x="28" y="437"/>
      <point x="29" y="434"/>
      <point x="31" y="434" type="curve"/>
      <point x="47" y="434"/>
      <point x="77" y="424"/>
      <point x="80" y="418" type="curve"/>
      <point x="83" y="408"/>
      <point x="85" y="388"/>
      <point x="85" y="359" type="curve"/>
      <point x="85" y="98" type="line" smooth="yes"/>
      <point x="85" y="63"/>
      <point x="83" y="42"/>
      <point x="80" y="35" type="curve"/>
      <point x="77" y="29"/>
      <point x="48" y="20"/>
      <point x="29" y="20" type="curve"/>
      <point x="28" y="20"/>
      <point x="27" y="17"/>
      <point x="27" y="10" type="curve"/>
      <point x="27" y="4"/>
      <point x="28" y="0"/>
      <point x="29" y="-1" type="curve"/>
      <point x="54" y="0"/>
      <point x="93" y="1"/>
      <point x="125" y="1" type="curve"/>
      <point x="155" y="1"/>
      <point x="198" y="1"/>
      <point x="255" y="0" type="curve"/>
      <point x="311" y="-2"/>
      <point x="352" y="-2"/>
      <point x="379" y="-2" type="curve"/>
      <point x="381" y="13"/>
      <point x="398" y="62"/>
      <point x="419" y="113" type="curve"/>
      <point x="416" y="116"/>
      <point x="410" y="117"/>
      <point x="400" y="117" type="curve"/>
      <point x="394" y="117"/>
      <point x="390" y="116"/>
      <point x="389" y="113" type="curve"/>
      <point x="364" y="45"/>
      <point x="330" y="32"/>
      <point x="250" y="32" type="curve"/>
      <point x="219" y="32" type="line" smooth="yes"/>
      <point x="187" y="32"/>
      <point x="170" y="35"/>
      <point x="168" y="41" type="curve"/>
      <point x="164" y="56"/>
      <point x="162" y="76"/>
      <point x="162" y="98" type="curve"/>
      <point x="162" y="358" type="line" smooth="yes"/>
      <point x="162" y="385"/>
      <point x="164" y="405"/>
      <point x="168" y="419" type="curve"/>
      <point x="170" y="424"/>
      <point x="202" y="434"/>
      <point x="216" y="434" type="curve"/>
      <point x="218" y="434"/>
      <point x="219" y="437"/>
      <point x="219" y="444" type="curve"/>
      <point x="219" y="449"/>
      <point x="218" y="452"/>
      <point x="217" y="455" type="curve"/>
      <point x="166" y="453"/>
      <point x="136" y="451"/>
    </contour>
    <contour>
      <point x="217" y="0" type="move" name="bottom"/>
    </contour>
    <contour>
      <point x="162" y="226" type="move" name="center"/>
    </contour>
    <contour>
      <point x="295" y="226" type="move" name="dotacc"/>
    </contour>
    <contour>
      <point x="217" y="453" type="move" name="top"/>
    </contour>
    <contour>
      <point x="305" y="298" type="move" name="topright"/>
    </contour>
  </outline>
</glyph>
<glyph name="M" format="1">
  <advance width="673"/>
  <unicode hex="004D"/>
  <outline>
    <contour>
      <point x="13" y="-2" type="curve"/>
      <point x="51" y="0"/>
      <point x="83" y="2"/>
      <point x="103" y="2" type="curve"/>
      <point x="114" y="2"/>
      <point x="141" y="1"/>
      <point x="195" y="-2" type="curve"/>
      <point x="196" y="0"/>
      <point x="197" y="4"/>
      <point x="197" y="8" type="curve"/>
      <point x="197" y="16"/>
      <point x="196" y="19"/>
      <point x="194" y="19" type="curve"/>
      <point x="163" y="23"/>
      <point x="134" y="32"/>
      <point x="131" y="40" type="curve"/>
      <point x="128" y="45"/>
      <point x="128" y="57"/>
      <point x="129" y="72" type="curve"/>
      <point x="141" y="414" type="line"/>
      <point x="126" y="412" type="line"/>
      <point x="305" y="9" type="line" smooth="yes"/>
      <point x="308" y="2"/>
      <point x="312" y="-1"/>
      <point x="317" y="-1" type="curve"/>
      <point x="326" y="-1"/>
      <point x="333" y="2"/>
      <point x="340" y="18" type="curve"/>
      <point x="513" y="409" type="line"/>
      <point x="493" y="392" type="line"/>
      <point x="498" y="381"/>
      <point x="503" y="358"/>
      <point x="503" y="338" type="curve"/>
      <point x="512" y="82" type="line" smooth="yes"/>
      <point x="514" y="46"/>
      <point x="510" y="37"/>
      <point x="504" y="32" type="curve"/>
      <point x="497" y="26"/>
      <point x="469" y="19"/>
      <point x="459" y="19" type="curve"/>
      <point x="457" y="19"/>
      <point x="457" y="16"/>
      <point x="457" y="9" type="curve"/>
      <point x="457" y="3"/>
      <point x="458" y="0"/>
      <point x="460" y="-2" type="curve"/>
      <point x="506" y="0"/>
      <point x="544" y="2"/>
      <point x="554" y="2" type="curve"/>
      <point x="569" y="2"/>
      <point x="608" y="-1"/>
      <point x="645" y="-2" type="curve"/>
      <point x="646" y="0"/>
      <point x="647" y="4"/>
      <point x="647" y="8" type="curve"/>
      <point x="647" y="16"/>
      <point x="646" y="19"/>
      <point x="644" y="19" type="curve"/>
      <point x="633" y="19"/>
      <point x="600" y="27"/>
      <point x="596" y="36" type="curve"/>
      <point x="590" y="51"/>
      <point x="586" y="72"/>
      <point x="585" y="99" type="curve"/>
      <point x="576" y="381" type="line" smooth="yes"/>
      <point x="575" y="404"/>
      <point x="579" y="417"/>
      <point x="585" y="422" type="curve"/>
      <point x="593" y="427"/>
      <point x="611" y="434"/>
      <point x="625" y="434" type="curve"/>
      <point x="627" y="434"/>
      <point x="628" y="438"/>
      <point x="628" y="445" type="curve"/>
      <point x="628" y="448"/>
      <point x="628" y="452"/>
      <point x="626" y="455" type="curve"/>
      <point x="597" y="453"/>
      <point x="566" y="452"/>
      <point x="539" y="452" type="curve"/>
      <point x="523" y="452"/>
      <point x="504" y="453"/>
      <point x="479" y="455" type="curve"/>
      <point x="469" y="422"/>
      <point x="459" y="393"/>
      <point x="448" y="368" type="curve"/>
      <point x="343" y="128" type="line"/>
      <point x="342" y="126"/>
      <point x="341" y="125"/>
      <point x="339" y="125" type="curve"/>
      <point x="337" y="125"/>
      <point x="336" y="126"/>
      <point x="334" y="131" type="curve"/>
      <point x="230" y="366" type="line" smooth="yes"/>
      <point x="211" y="409"/>
      <point x="196" y="443"/>
      <point x="191" y="455" type="curve"/>
      <point x="166" y="453"/>
      <point x="136" y="452"/>
      <point x="120" y="452" type="curve"/>
      <point x="103" y="452"/>
      <point x="52" y="455"/>
      <point x="36" y="455" type="curve"/>
      <point x="33" y="453"/>
      <point x="33" y="450"/>
      <point x="33" y="445" type="curve"/>
      <point x="33" y="438"/>
      <point x="33" y="434"/>
      <point x="36" y="434" type="curve"/>
      <point x="49" y="434"/>
      <point x="90" y="427"/>
      <point x="93" y="420" type="curve"/>
      <point x="95" y="414"/>
      <point x="96" y="406"/>
      <point x="96" y="390" type="curve"/>
      <point x="95" y="372"/>
      <point x="92" y="296"/>
      <point x="90" y="222" type="curve"/>
      <point x="89" y="176"/>
      <point x="87" y="131"/>
      <point x="85" y="85" type="curve"/>
      <point x="85" y="59"/>
      <point x="80" y="43"/>
      <point x="72" y="36" type="curve"/>
      <point x="61" y="27"/>
      <point x="26" y="19"/>
      <point x="13" y="19" type="curve"/>
      <point x="11" y="19"/>
      <point x="9" y="16"/>
      <point x="9" y="8" type="curve"/>
      <point x="9" y="3"/>
      <point x="11" y="0"/>
    </contour>
    <contour>
      <point x="329" y="0" type="move" name="bottom"/>
    </contour>
    <contour>
      <point x="329" y="453" type="move" name="top"/>
    </contour>
  </outline>
</glyph>
<glyph name="N" format="1">
  <advance width="547"/>
  <unicode hex="004E"/>
  <outline>
    <contour>
      <point x="447" y="-3" type="curve"/>
      <point x="456" y="-3"/>
      <point x="460" y="-3"/>
      <point x="463" y="-1" type="curve"/>
      <point x="461" y="39"/>
      <point x="460" y="71"/>
      <point x="460" y="96" type="curve"/>
      <point x="460" y="357" type="line" smooth="yes"/>
      <point x="460" y="384"/>
      <point x="463" y="404"/>
      <point x="468" y="417" type="curve"/>
      <point x="473" y="426"/>
      <point x="512" y="435"/>
      <point x="527" y="435" type="curve"/>
      <point x="529" y="435"/>
      <point x="530" y="438"/>
      <point x="530" y="444" type="curve"/>
      <point x="530" y="449"/>
      <point x="530" y="452"/>
      <point x="529" y="455" type="curve"/>
      <point x="509" y="454"/>
      <point x="460" y="451"/>
      <point x="442" y="451" type="curve"/>
      <point x="418" y="451"/>
      <point x="374" y="454"/>
      <point x="351" y="455" type="curve"/>
      <point x="349" y="454"/>
      <point x="349" y="450"/>
      <point x="349" y="445" type="curve"/>
      <point x="349" y="439"/>
      <point x="350" y="435"/>
      <point x="352" y="435" type="curve"/>
      <point x="364" y="435"/>
      <point x="406" y="426"/>
      <point x="411" y="418" type="curve"/>
      <point x="415" y="407"/>
      <point x="417" y="388"/>
      <point x="417" y="361" type="curve"/>
      <point x="417" y="163" type="line" smooth="yes"/>
      <point x="417" y="141"/>
      <point x="415" y="129"/>
      <point x="413" y="120" type="curve"/>
      <point x="438" y="106" type="line"/>
      <point x="216" y="386" type="line" smooth="yes"/>
      <point x="190" y="420"/>
      <point x="175" y="443"/>
      <point x="168" y="455" type="curve"/>
      <point x="148" y="454"/>
      <point x="126" y="453"/>
      <point x="103" y="453" type="curve"/>
      <point x="89" y="453"/>
      <point x="53" y="455"/>
      <point x="20" y="455" type="curve"/>
      <point x="18" y="454"/>
      <point x="17" y="450"/>
      <point x="17" y="444" type="curve"/>
      <point x="17" y="438"/>
      <point x="18" y="434"/>
      <point x="21" y="434" type="curve"/>
      <point x="35" y="434"/>
      <point x="76" y="427"/>
      <point x="79" y="420" type="curve"/>
      <point x="84" y="409"/>
      <point x="86" y="393"/>
      <point x="86" y="369" type="curve"/>
      <point x="86" y="99" type="line" smooth="yes"/>
      <point x="86" y="70"/>
      <point x="84" y="49"/>
      <point x="79" y="39" type="curve"/>
      <point x="73" y="27"/>
      <point x="33" y="19"/>
      <point x="18" y="19" type="curve"/>
      <point x="17" y="19"/>
      <point x="16" y="16"/>
      <point x="16" y="9" type="curve"/>
      <point x="16" y="3"/>
      <point x="17" y="-1"/>
      <point x="18" y="-2" type="curve"/>
      <point x="51" y="-1"/>
      <point x="78" y="2"/>
      <point x="104" y="2" type="curve"/>
      <point x="118" y="2"/>
      <point x="144" y="0"/>
      <point x="196" y="-2" type="curve"/>
      <point x="197" y="0"/>
      <point x="198" y="3"/>
      <point x="198" y="7" type="curve"/>
      <point x="198" y="13"/>
      <point x="196" y="20"/>
      <point x="195" y="20" type="curve"/>
      <point x="183" y="20"/>
      <point x="140" y="29"/>
      <point x="135" y="38" type="curve"/>
      <point x="131" y="49"/>
      <point x="130" y="68"/>
      <point x="130" y="97" type="curve"/>
      <point x="130" y="412" type="line"/>
      <point x="110" y="406" type="line"/>
      <point x="423" y="12" type="line" smooth="yes"/>
      <point x="432" y="2"/>
      <point x="440" y="-3"/>
    </contour>
    <contour>
      <point x="274" y="0" type="move" name="bottom"/>
    </contour>
    <contour>
      <point x="274" y="453" type="move" name="top"/>
    </contour>
  </outline>
</glyph>
<glyph name="O" format="1">
  <advance width="549"/>
  <unicode hex="004F"/>
  <outline>
    <contour>
      <point x="274" y="-7" type="curve"/>
      <point x="409" y="-7"/>
      <point x="513" y="99"/>
      <point x="513" y="225" type="curve"/>
      <point x="513" y="355"/>
      <point x="406" y="459"/>
      <point x="274" y="459" type="curve"/>
      <point x="144" y="459"/>
      <point x="37" y="355"/>
      <point x="37" y="225" type="curve"/>
      <point x="37" y="97"/>
      <point x="143" y="-7"/>
    </contour>
    <contour>
      <point x="286" y="25" type="curve"/>
      <point x="185" y="25"/>
      <point x="123" y="126"/>
      <point x="123" y="241" type="curve"/>
      <point x="123" y="341"/>
      <point x="177" y="427"/>
      <point x="262" y="427" type="curve"/>
      <point x="364" y="427"/>
      <point x="426" y="327"/>
      <point x="426" y="213" type="curve"/>
      <point x="426" y="114"/>
      <point x="374" y="25"/>
    </contour>
    <contour>
      <point x="275" y="0" type="move" name="bottom"/>
    </contour>
    <contour>
      <point x="275" y="226" type="move" name="center"/>
    </contour>
    <contour>
      <point x="489" y="7" type="move" name="ogonek"/>
    </contour>
    <contour>
      <point x="275" y="453" type="move" name="top"/>
    </contour>
    <contour>
      <point x="23" y="453" type="move" name="topleft"/>
    </contour>
    <contour>
      <point x="527" y="453" type="move" name="topright"/>
    </contour>
  </outline>
</glyph>
<glyph name="Q" format="1">
  <advance width="549"/>
  <unicode hex="0051"/>
  <outline>
    <contour>
      <point x="446" y="-95" type="curve"/>
      <point x="494" y="-95"/>
      <point x="542" y="-84"/>
      <point x="577" y="-67" type="curve"/>
      <point x="577" y="-63" type="line" smooth="yes"/>
      <point x="577" y="-55"/>
      <point x="575" y="-50"/>
      <point x="569" y="-50" type="curve"/>
      <point x="565" y="-50"/>
      <point x="533" y="-56"/>
      <point x="516" y="-56" type="curve"/>
      <point x="483" y="-56"/>
      <point x="450" y="-45"/>
      <point x="423" y="-34" type="curve"/>
      <point x="397" y="-23"/>
      <point x="368" y="-7"/>
      <point x="341" y="3" type="curve"/>
      <point x="428" y="27"/>
      <point x="513" y="108"/>
      <point x="513" y="226" type="curve"/>
      <point x="513" y="355"/>
      <point x="406" y="459"/>
      <point x="274" y="459" type="curve"/>
      <point x="143" y="459"/>
      <point x="37" y="354"/>
      <point x="37" y="226" type="curve"/>
      <point x="37" y="165"/>
      <point x="63" y="105"/>
      <point x="99" y="68" type="curve"/>
      <point x="136" y="32"/>
      <point x="174" y="10"/>
      <point x="210" y="0" type="curve"/>
      <point x="262" y="-15"/>
      <point x="319" y="-54"/>
      <point x="369" y="-77" type="curve"/>
      <point x="396" y="-89"/>
      <point x="422" y="-95"/>
    </contour>
    <contour>
      <point x="286" y="25" type="curve"/>
      <point x="185" y="25"/>
      <point x="123" y="126"/>
      <point x="123" y="241" type="curve"/>
      <point x="123" y="341"/>
      <point x="177" y="427"/>
      <point x="262" y="427" type="curve"/>
      <point x="364" y="427"/>
      <point x="426" y="327"/>
      <point x="426" y="213" type="curve"/>
      <point x="426" y="114"/>
      <point x="374" y="25"/>
    </contour>
    <contour>
      <point x="275" y="0" type="move" name="bottom"/>
    </contour>
    <contour>
      <point x="275" y="453" type="move" name="top"/>
    </contour>
  </outline>
</glyph>
<glyph name="R" format="1">
  <advance width="486"/>
  <unicode hex="0052"/>
  <outline>
    <contour>
      <point x="210" y="421" type="curve"/>
      <point x="272" y="421"/>
      <point x="311" y="391"/>
      <point x="311" y="330" type="curve"/>
      <point x="311" y="273"/>
      <point x="275" y="240"/>
      <point x="207" y="240" type="curve"/>
      <point x="196" y="240" type="line" smooth="yes"/>
      <point x="185" y="240"/>
      <point x="173" y="241"/>
      <point x="162" y="242" type="curve"/>
      <point x="162" y="362" type="line" smooth="yes"/>
      <point x="162" y="397"/>
      <point x="165" y="414"/>
      <point x="170" y="416" type="curve"/>
      <point x="181" y="420"/>
      <point x="190" y="421"/>
    </contour>
    <contour>
      <point x="236" y="454" type="curve"/>
      <point x="201" y="454"/>
      <point x="139" y="452"/>
      <point x="124" y="452" type="curve"/>
      <point x="95" y="452"/>
      <point x="64" y="453"/>
      <point x="29" y="454" type="curve"/>
      <point x="27" y="452"/>
      <point x="26" y="448"/>
      <point x="26" y="442" type="curve"/>
      <point x="26" y="436"/>
      <point x="27" y="432"/>
      <point x="29" y="432" type="curve"/>
      <point x="41" y="432"/>
      <point x="77" y="423"/>
      <point x="80" y="416" type="curve"/>
      <point x="83" y="404"/>
      <point x="85" y="385"/>
      <point x="85" y="358" type="curve"/>
      <point x="85" y="98" type="line" smooth="yes"/>
      <point x="85" y="63"/>
      <point x="83" y="42"/>
      <point x="80" y="35" type="curve"/>
      <point x="75" y="27"/>
      <point x="43" y="20"/>
      <point x="29" y="20" type="curve"/>
      <point x="28" y="20"/>
      <point x="27" y="17"/>
      <point x="27" y="10" type="curve"/>
      <point x="27" y="3"/>
      <point x="28" y="-1"/>
      <point x="29" y="-2" type="curve"/>
      <point x="62" y="0"/>
      <point x="93" y="1"/>
      <point x="126" y="1" type="curve"/>
      <point x="141" y="1"/>
      <point x="175" y="0"/>
      <point x="228" y="-2" type="curve"/>
      <point x="228" y="0"/>
      <point x="229" y="4"/>
      <point x="229" y="9" type="curve"/>
      <point x="229" y="16"/>
      <point x="228" y="19"/>
      <point x="226" y="19" type="curve"/>
      <point x="213" y="19"/>
      <point x="172" y="27"/>
      <point x="168" y="38" type="curve"/>
      <point x="164" y="49"/>
      <point x="162" y="69"/>
      <point x="162" y="97" type="curve"/>
      <point x="162" y="207" type="line"/>
      <point x="168" y="207"/>
      <point x="174" y="208"/>
      <point x="179" y="208" type="curve"/>
      <point x="203" y="208"/>
      <point x="212" y="203"/>
      <point x="222" y="189" type="curve"/>
      <point x="288" y="94" type="line" smooth="yes"/>
      <point x="335" y="27"/>
      <point x="392" y="-4"/>
      <point x="476" y="-4" type="curve"/>
      <point x="485" y="-4"/>
      <point x="493" y="-3"/>
      <point x="498" y="-2" type="curve"/>
      <point x="500" y="1"/>
      <point x="501" y="5"/>
      <point x="501" y="9" type="curve"/>
      <point x="501" y="14"/>
      <point x="500" y="17"/>
      <point x="498" y="20" type="curve"/>
      <point x="465" y="20"/>
      <point x="425" y="46"/>
      <point x="383" y="96" type="curve"/>
      <point x="354" y="130"/>
      <point x="324" y="178"/>
      <point x="285" y="224" type="curve"/>
      <point x="279" y="215" type="line"/>
      <point x="356" y="235"/>
      <point x="393" y="287"/>
      <point x="393" y="337" type="curve"/>
      <point x="393" y="412"/>
      <point x="327" y="454"/>
    </contour>
    <contour>
      <point x="252" y="0" type="move" name="bottom"/>
    </contour>
    <contour>
      <point x="252" y="453" type="move" name="top"/>
    </contour>
  </outline>
</glyph>
<glyph name="T" format="1">
  <advance width="473"/>
  <unicode hex="0054"/>
  <outline>
    <contour>
      <point x="72" y="455" type="curve"/>
      <point x="58" y="455"/>
      <point x="41" y="458"/>
      <point x="20" y="462" type="curve"/>
      <point x="6" y="360" type="line"/>
      <point x="10" y="356"/>
      <point x="16" y="355"/>
      <point x="25" y="355" type="curve"/>
      <point x="30" y="355"/>
      <point x="32" y="356"/>
      <point x="33" y="358" type="curve"/>
      <point x="46" y="408"/>
      <point x="63" y="421"/>
      <point x="115" y="421" type="curve"/>
      <point x="162" y="421"/>
      <point x="187" y="419"/>
      <point x="191" y="411" type="curve"/>
      <point x="196" y="404"/>
      <point x="198" y="381"/>
      <point x="198" y="342" type="curve"/>
      <point x="198" y="93" type="line" smooth="yes"/>
      <point x="198" y="66"/>
      <point x="196" y="47"/>
      <point x="193" y="34" type="curve"/>
      <point x="190" y="29"/>
      <point x="160" y="19"/>
      <point x="128" y="19" type="curve"/>
      <point x="126" y="19"/>
      <point x="125" y="16"/>
      <point x="125" y="8" type="curve"/>
      <point x="125" y="3"/>
      <point x="126" y="0"/>
      <point x="128" y="-2" type="curve"/>
      <point x="183" y="0"/>
      <point x="223" y="2"/>
      <point x="238" y="2" type="curve"/>
      <point x="255" y="2"/>
      <point x="288" y="0"/>
      <point x="345" y="-2" type="curve"/>
      <point x="346" y="0"/>
      <point x="346" y="4"/>
      <point x="346" y="8" type="curve"/>
      <point x="346" y="16"/>
      <point x="346" y="19"/>
      <point x="343" y="19" type="curve"/>
      <point x="315" y="19"/>
      <point x="283" y="29"/>
      <point x="281" y="34" type="curve"/>
      <point x="277" y="50"/>
      <point x="275" y="70"/>
      <point x="275" y="96" type="curve"/>
      <point x="275" y="344" type="line" smooth="yes"/>
      <point x="275" y="374"/>
      <point x="277" y="397"/>
      <point x="281" y="411" type="curve"/>
      <point x="284" y="419"/>
      <point x="311" y="421"/>
      <point x="360" y="421" type="curve"/>
      <point x="411" y="421"/>
      <point x="428" y="408"/>
      <point x="442" y="358" type="curve"/>
      <point x="443" y="356"/>
      <point x="445" y="355"/>
      <point x="449" y="355" type="curve"/>
      <point x="458" y="355"/>
      <point x="465" y="356"/>
      <point x="468" y="359" type="curve"/>
      <point x="454" y="462" type="line"/>
      <point x="433" y="458"/>
      <point x="416" y="455"/>
      <point x="403" y="455" type="curve"/>
      <point x="358" y="454"/>
      <point x="285" y="452"/>
      <point x="237" y="452" type="curve"/>
      <point x="188" y="452"/>
      <point x="116" y="454"/>
    </contour>
    <contour>
      <point x="237" y="0" type="move" name="bottom"/>
    </contour>
    <contour>
      <point x="237" y="227" type="move" name="stroke"/>
    </contour>
    <contour>
      <point x="237" y="453" type="move" name="top"/>
    </contour>
  </outline>
</glyph>
<glyph name="U" format="1">
  <advance width="541"/>
  <unicode hex="0055"/>
  <outline>
    <contour>
      <point x="122" y="452" type="curve"/>
      <point x="104" y="452"/>
      <point x="76" y="453"/>
      <point x="27" y="455" type="curve"/>
      <point x="26" y="454"/>
      <point x="25" y="450"/>
      <point x="25" y="444" type="curve"/>
      <point x="25" y="437"/>
      <point x="26" y="434"/>
      <point x="28" y="434" type="curve"/>
      <point x="44" y="434"/>
      <point x="74" y="424"/>
      <point x="77" y="418" type="curve"/>
      <point x="80" y="408"/>
      <point x="82" y="388"/>
      <point x="82" y="360" type="curve"/>
      <point x="82" y="203" type="line" smooth="yes"/>
      <point x="82" y="64"/>
      <point x="145" y="-1"/>
      <point x="279" y="-1" type="curve"/>
      <point x="389" y="-1"/>
      <point x="459" y="65"/>
      <point x="459" y="196" type="curve"/>
      <point x="459" y="357" type="line" smooth="yes"/>
      <point x="459" y="384"/>
      <point x="461" y="404"/>
      <point x="466" y="417" type="curve"/>
      <point x="471" y="425"/>
      <point x="506" y="435"/>
      <point x="526" y="435" type="curve"/>
      <point x="528" y="435"/>
      <point x="529" y="438"/>
      <point x="529" y="444" type="curve"/>
      <point x="529" y="449"/>
      <point x="528" y="452"/>
      <point x="527" y="455" type="curve"/>
      <point x="507" y="454"/>
      <point x="459" y="451"/>
      <point x="441" y="451" type="curve"/>
      <point x="425" y="451"/>
      <point x="392" y="452"/>
      <point x="350" y="455" type="curve"/>
      <point x="348" y="454"/>
      <point x="347" y="450"/>
      <point x="347" y="445" type="curve"/>
      <point x="347" y="439"/>
      <point x="348" y="435"/>
      <point x="351" y="435" type="curve"/>
      <point x="369" y="435"/>
      <point x="405" y="424"/>
      <point x="409" y="418" type="curve"/>
      <point x="414" y="407"/>
      <point x="416" y="388"/>
      <point x="416" y="361" type="curve"/>
      <point x="416" y="201" type="line" smooth="yes"/>
      <point x="416" y="88"/>
      <point x="373" y="41"/>
      <point x="292" y="41" type="curve"/>
      <point x="208" y="41"/>
      <point x="159" y="87"/>
      <point x="159" y="191" type="curve"/>
      <point x="159" y="356" type="line" smooth="yes"/>
      <point x="159" y="383"/>
      <point x="161" y="404"/>
      <point x="165" y="419" type="curve"/>
      <point x="167" y="424"/>
      <point x="199" y="434"/>
      <point x="213" y="434" type="curve"/>
      <point x="215" y="434"/>
      <point x="216" y="437"/>
      <point x="216" y="445" type="curve"/>
      <point x="216" y="449"/>
      <point x="215" y="452"/>
      <point x="214" y="455" type="curve"/>
      <point x="161" y="453"/>
      <point x="131" y="452"/>
    </contour>
    <contour>
      <point x="274" y="0" type="move" name="bottom"/>
    </contour>
    <contour>
      <point x="367" y="7" type="move" name="ogonek"/>
    </contour>
    <contour>
      <point x="274" y="453" type="move" name="top"/>
    </contour>
    <contour>
      <point x="530" y="453" type="move" name="topright"/>
    </contour>
  </outline>
</glyph>
<glyph name="V" format="1">
  <advance width="507"/>
  <unicode hex="0056"/>
  <outline>
    <contour>
      <point x="94" y="451" type="curve"/>
      <point x="79" y="451"/>
      <point x="20" y="454"/>
      <point x="2" y="455" type="curve"/>
      <point x="0" y="454"/>
      <point x="0" y="450"/>
      <point x="0" y="444" type="curve"/>
      <point x="0" y="437"/>
      <point x="0" y="434"/>
      <point x="3" y="434" type="curve"/>
      <point x="16" y="434"/>
      <point x="46" y="427"/>
      <point x="52" y="416" type="curve"/>
      <point x="60" y="405"/>
      <point x="69" y="384"/>
      <point x="83" y="353" type="curve"/>
      <point x="234" y="4" type="line" smooth="yes"/>
      <point x="236" y="-2"/>
      <point x="242" y="-6"/>
      <point x="249" y="-6" type="curve"/>
      <point x="259" y="-6"/>
      <point x="266" y="0"/>
      <point x="270" y="10" type="curve"/>
      <point x="426" y="350" type="line" smooth="yes"/>
      <point x="440" y="379"/>
      <point x="452" y="400"/>
      <point x="460" y="415" type="curve"/>
      <point x="470" y="427"/>
      <point x="489" y="434"/>
      <point x="508" y="434" type="curve"/>
      <point x="510" y="434"/>
      <point x="511" y="438"/>
      <point x="511" y="445" type="curve"/>
      <point x="511" y="449"/>
      <point x="510" y="453"/>
      <point x="509" y="455" type="curve"/>
      <point x="476" y="454"/>
      <point x="447" y="452"/>
      <point x="431" y="452" type="curve"/>
      <point x="423" y="452"/>
      <point x="400" y="453"/>
      <point x="349" y="455" type="curve"/>
      <point x="347" y="453"/>
      <point x="346" y="449"/>
      <point x="346" y="443" type="curve"/>
      <point x="346" y="437"/>
      <point x="347" y="434"/>
      <point x="349" y="434" type="curve"/>
      <point x="369" y="434"/>
      <point x="402" y="425"/>
      <point x="402" y="408" type="curve"/>
      <point x="402" y="398"/>
      <point x="397" y="382"/>
      <point x="387" y="360" type="curve"/>
      <point x="265" y="90" type="line"/>
      <point x="280" y="90" type="line"/>
      <point x="165" y="357" type="line" smooth="yes"/>
      <point x="150" y="390"/>
      <point x="146" y="405"/>
      <point x="146" y="410" type="curve"/>
      <point x="146" y="427"/>
      <point x="179" y="434"/>
      <point x="192" y="434" type="curve"/>
      <point x="194" y="434"/>
      <point x="195" y="439"/>
      <point x="195" y="445" type="curve"/>
      <point x="195" y="450"/>
      <point x="194" y="454"/>
      <point x="193" y="455" type="curve"/>
      <point x="136" y="453"/>
      <point x="106" y="451"/>
    </contour>
    <contour>
      <point x="254" y="0" type="move" name="bottom"/>
    </contour>
    <contour>
      <point x="254" y="453" type="move" name="top"/>
    </contour>
  </outline>
</glyph>
<glyph name="X" format="1">
  <advance width="508"/>
  <unicode hex="0058"/>
  <outline>
    <contour>
      <point x="1" y="-2" type="curve"/>
      <point x="54" y="0"/>
      <point x="85" y="1"/>
      <point x="94" y="1" type="curve"/>
      <point x="106" y="1"/>
      <point x="136" y="0"/>
      <point x="183" y="-2" type="curve"/>
      <point x="184" y="-1"/>
      <point x="185" y="2"/>
      <point x="185" y="7" type="curve"/>
      <point x="185" y="16"/>
      <point x="184" y="19"/>
      <point x="182" y="19" type="curve"/>
      <point x="155" y="19"/>
      <point x="130" y="29"/>
      <point x="130" y="40" type="curve"/>
      <point x="130" y="44"/>
      <point x="132" y="52"/>
      <point x="148" y="72" type="curve"/>
      <point x="245" y="197" type="line"/>
      <point x="350" y="49" type="line" smooth="yes"/>
      <point x="354" y="44"/>
      <point x="355" y="41"/>
      <point x="355" y="39" type="curve"/>
      <point x="355" y="28"/>
      <point x="326" y="19"/>
      <point x="313" y="19" type="curve"/>
      <point x="310" y="19"/>
      <point x="309" y="15"/>
      <point x="309" y="9" type="curve"/>
      <point x="309" y="3"/>
      <point x="310" y="0"/>
      <point x="312" y="-2" type="curve"/>
      <point x="368" y="0"/>
      <point x="416" y="1"/>
      <point x="424" y="1" type="curve"/>
      <point x="429" y="1"/>
      <point x="458" y="0"/>
      <point x="511" y="-2" type="curve"/>
      <point x="512" y="0"/>
      <point x="513" y="3"/>
      <point x="513" y="7" type="curve"/>
      <point x="513" y="16"/>
      <point x="512" y="19"/>
      <point x="510" y="19" type="curve"/>
      <point x="487" y="19"/>
      <point x="453" y="28"/>
      <point x="436" y="52" type="curve"/>
      <point x="297" y="246" type="line"/>
      <point x="434" y="412" type="line" smooth="yes"/>
      <point x="445" y="426"/>
      <point x="489" y="434"/>
      <point x="504" y="434" type="curve"/>
      <point x="505" y="434"/>
      <point x="507" y="439"/>
      <point x="507" y="445" type="curve"/>
      <point x="507" y="450"/>
      <point x="506" y="454"/>
      <point x="505" y="455" type="curve"/>
      <point x="452" y="453"/>
      <point x="423" y="452"/>
      <point x="417" y="452" type="curve"/>
      <point x="403" y="452"/>
      <point x="372" y="453"/>
      <point x="323" y="455" type="curve"/>
      <point x="321" y="454"/>
      <point x="321" y="450"/>
      <point x="321" y="444" type="curve"/>
      <point x="321" y="438"/>
      <point x="321" y="434"/>
      <point x="324" y="434" type="curve"/>
      <point x="352" y="434"/>
      <point x="377" y="423"/>
      <point x="377" y="414" type="curve"/>
      <point x="377" y="404"/>
      <point x="361" y="382"/>
      <point x="350" y="368" type="curve"/>
      <point x="276" y="276" type="line"/>
      <point x="191" y="395" type="line" smooth="yes"/>
      <point x="186" y="403"/>
      <point x="183" y="409"/>
      <point x="183" y="414" type="curve"/>
      <point x="183" y="428"/>
      <point x="209" y="434"/>
      <point x="226" y="434" type="curve"/>
      <point x="228" y="434"/>
      <point x="229" y="440"/>
      <point x="229" y="446" type="curve"/>
      <point x="229" y="450"/>
      <point x="228" y="454"/>
      <point x="228" y="455" type="curve"/>
      <point x="175" y="453"/>
      <point x="142" y="452"/>
      <point x="129" y="452" type="curve"/>
      <point x="123" y="452"/>
      <point x="84" y="453"/>
      <point x="32" y="455" type="curve"/>
      <point x="30" y="453"/>
      <point x="29" y="450"/>
      <point x="29" y="444" type="curve"/>
      <point x="29" y="437"/>
      <point x="30" y="434"/>
      <point x="32" y="434" type="curve"/>
      <point x="47" y="434"/>
      <point x="60" y="430"/>
      <point x="73" y="423" type="curve"/>
      <point x="87" y="415"/>
      <point x="102" y="399"/>
      <point x="119" y="375" type="curve"/>
      <point x="223" y="228" type="line"/>
      <point x="68" y="40" type="line"/>
      <point x="53" y="26"/>
      <point x="14" y="19"/>
      <point x="2" y="19" type="curve"/>
      <point x="0" y="19"/>
      <point x="-1" y="15"/>
      <point x="-1" y="7" type="curve"/>
      <point x="-1" y="4"/>
      <point x="0" y="1"/>
    </contour>
    <contour>
      <point x="255" y="0" type="move" name="bottom"/>
    </contour>
    <contour>
      <point x="255" y="453" type="move" name="top"/>
    </contour>
  </outline>
</glyph>
<glyph name="Z" format="1">
  <advance width="460"/>
  <unicode hex="005A"/>
  <outline>
    <contour>
      <point x="248" y="451" type="curve"/>
      <point x="167" y="451" type="line"/>
      <point x="134" y="451"/>
      <point x="62" y="454"/>
      <point x="52" y="457" type="curve"/>
      <point x="49" y="433"/>
      <point x="41" y="392"/>
      <point x="28" y="335" type="curve"/>
      <point x="32" y="331"/>
      <point x="40" y="330"/>
      <point x="52" y="330" type="curve"/>
      <point x="57" y="330"/>
      <point x="59" y="331"/>
      <point x="60" y="333" type="curve"/>
      <point x="80" y="397"/>
      <point x="102" y="416"/>
      <point x="165" y="416" type="curve"/>
      <point x="347" y="416" type="line"/>
      <point x="332" y="442" type="line"/>
      <point x="32" y="30" type="line"/>
      <point x="30" y="28"/>
      <point x="29" y="23"/>
      <point x="29" y="18" type="curve"/>
      <point x="29" y="10"/>
      <point x="31" y="4"/>
      <point x="35" y="0" type="curve"/>
      <point x="409" y="0" type="line"/>
      <point x="414" y="27"/>
      <point x="430" y="76"/>
      <point x="444" y="116" type="curve"/>
      <point x="440" y="120"/>
      <point x="433" y="121"/>
      <point x="425" y="121" type="curve"/>
      <point x="419" y="121"/>
      <point x="415" y="121"/>
      <point x="414" y="119" type="curve"/>
      <point x="393" y="63"/>
      <point x="358" y="36"/>
      <point x="299" y="36" type="curve"/>
      <point x="116" y="36" type="line"/>
      <point x="119" y="24" type="line"/>
      <point x="417" y="436" type="line"/>
      <point x="417" y="443"/>
      <point x="413" y="458"/>
      <point x="410" y="458" type="curve"/>
      <point x="340" y="453"/>
      <point x="287" y="451"/>
    </contour>
    <contour>
      <point x="230" y="0" type="move" name="bottom"/>
    </contour>
    <contour>
      <point x="230" y="226" type="move" name="center"/>
    </contour>
    <contour>
      <point x="230" y="453" type="move" name="top"/>
    </contour>
  </outline>
</glyph>
<glyph name="bracketleft" format="1">
  <advance width="273"/>
  <unicode hex="005B"/>
  <outline>
    <contour>
      <point x="144" y="-41" type="curve"/>
      <point x="144" y="484" type="line"/>
      <point x="171" y="484"/>
      <point x="212" y="489"/>
      <point x="234" y="495" type="curve"/>
      <point x="236" y="499"/>
      <point x="239" y="505"/>
      <point x="239" y="514" type="curve"/>
      <point x="239" y="520"/>
      <point x="237" y="523"/>
      <point x="234" y="525" type="curve"/>
      <point x="194" y="519"/>
      <point x="140" y="516"/>
      <point x="99" y="516" type="curve"/>
      <point x="89" y="516"/>
      <point x="85" y="510"/>
      <point x="85" y="501" type="curve"/>
      <point x="85" y="-58" type="line" smooth="yes"/>
      <point x="85" y="-68"/>
      <point x="89" y="-73"/>
      <point x="99" y="-73" type="curve"/>
      <point x="140" y="-73"/>
      <point x="194" y="-76"/>
      <point x="234" y="-82" type="curve"/>
      <point x="237" y="-80"/>
      <point x="239" y="-77"/>
      <point x="239" y="-71" type="curve"/>
      <point x="239" y="-63"/>
      <point x="236" y="-56"/>
      <point x="234" y="-53" type="curve"/>
      <point x="212" y="-47"/>
      <point x="171" y="-41"/>
    </contour>
  </outline>
</glyph>
<glyph name="backslash" format="1">
  <advance width="316"/>
  <unicode hex="005C"/>
  <outline>
    <contour>
      <point x="73" y="519" type="line"/>
      <point x="22" y="519" type="line"/>
      <point x="246" y="-19" type="line"/>
      <point x="298" y="-19" type="line"/>
    </contour>
  </outline>
</glyph>
<glyph name="bracketright" format="1">
  <advance width="273"/>
  <unicode hex="005D"/>
  <outline>
    <contour>
      <point x="129" y="484" type="curve"/>
      <point x="129" y="-41" type="line"/>
      <point x="102" y="-41"/>
      <point x="61" y="-47"/>
      <point x="39" y="-53" type="curve"/>
      <point x="37" y="-56"/>
      <point x="34" y="-63"/>
      <point x="34" y="-71" type="curve"/>
      <point x="34" y="-77"/>
      <point x="36" y="-80"/>
      <point x="39" y="-82" type="curve"/>
      <point x="79" y="-76"/>
      <point x="133" y="-73"/>
      <point x="174" y="-73" type="curve"/>
      <point x="184" y="-73"/>
      <point x="188" y="-68"/>
      <point x="188" y="-58" type="curve"/>
      <point x="188" y="501" type="line" smooth="yes"/>
      <point x="188" y="510"/>
      <point x="184" y="516"/>
      <point x="174" y="516" type="curve"/>
      <point x="133" y="516"/>
      <point x="79" y="519"/>
      <point x="39" y="525" type="curve"/>
      <point x="36" y="523"/>
      <point x="34" y="520"/>
      <point x="34" y="514" type="curve"/>
      <point x="34" y="505"/>
      <point x="37" y="499"/>
      <point x="39" y="495" type="curve"/>
      <point x="61" y="489"/>
      <point x="102" y="484"/>
    </contour>
  </outline>
</glyph>
<glyph name="asciicircum" format="1">
  <advance width="408"/>
  <unicode hex="005E"/>
  <outline>
    <contour>
      <point x="328" y="83" type="line"/>
      <point x="371" y="102" type="line"/>
      <point x="226" y="366" type="line"/>
      <point x="182" y="366" type="line"/>
      <point x="37" y="102" type="line"/>
      <point x="80" y="83" type="line"/>
      <point x="219" y="336" type="line"/>
      <point x="189" y="336" type="line"/>
    </contour>
  </outline>
</glyph>
<glyph name="underscore" format="1">
  <advance width="372"/>
  <unicode hex="005F"/>
  <outline>
    <contour>
      <point x="350" y="0" type="curve"/>
      <point x="31" y="0" type="line" smooth="yes"/>
      <point x="24" y="0"/>
      <point x="20" y="-23"/>
      <point x="20" y="-33" type="curve"/>
      <point x="20" y="-39"/>
      <point x="21" y="-43"/>
      <point x="22" y="-45" type="curve"/>
      <point x="341" y="-45" type="line" smooth="yes"/>
      <point x="348" y="-45"/>
      <point x="352" y="-22"/>
      <point x="352" y="-13" type="curve"/>
      <point x="352" y="-7"/>
      <point x="351" y="-2"/>
    </contour>
  </outline>
</glyph>
<glyph name="a" format="1">
  <advance width="343"/>
  <unicode hex="0061"/>
  <outline>
    <contour>
      <point x="118" y="-5" type="curve"/>
      <point x="157" y="-5"/>
      <point x="190" y="14"/>
      <point x="230" y="55" type="curve"/>
      <point x="205" y="42" type="line"/>
      <point x="219" y="18"/>
      <point x="239" y="-4"/>
      <point x="268" y="-4" type="curve"/>
      <point x="285" y="-4"/>
      <point x="309" y="6"/>
      <point x="328" y="21" type="curve"/>
      <point x="330" y="26"/>
      <point x="332" y="31"/>
      <point x="332" y="39" type="curve"/>
      <point x="332" y="43"/>
      <point x="331" y="46"/>
      <point x="328" y="46" type="curve"/>
      <point x="319" y="40"/>
      <point x="310" y="37"/>
      <point x="302" y="37" type="curve"/>
      <point x="285" y="37"/>
      <point x="274" y="51"/>
      <point x="274" y="73" type="curve"/>
      <point x="274" y="222" type="line" smooth="yes"/>
      <point x="274" y="281"/>
      <point x="248" y="303"/>
      <point x="192" y="303" type="curve"/>
      <point x="124" y="303"/>
      <point x="40" y="253"/>
      <point x="40" y="215" type="curve"/>
      <point x="40" y="204"/>
      <point x="51" y="196"/>
      <point x="72" y="196" type="curve"/>
      <point x="95" y="196"/>
      <point x="108" y="206"/>
      <point x="108" y="222" type="curve"/>
      <point x="109" y="254"/>
      <point x="129" y="273"/>
      <point x="158" y="273" type="curve"/>
      <point x="186" y="273"/>
      <point x="204" y="256"/>
      <point x="204" y="228" type="curve"/>
      <point x="204" y="181" type="line" smooth="yes"/>
      <point x="204" y="174"/>
      <point x="202" y="170"/>
      <point x="196" y="168" type="curve"/>
      <point x="117" y="144" type="line" smooth="yes"/>
      <point x="63" y="127"/>
      <point x="36" y="100"/>
      <point x="36" y="64" type="curve"/>
      <point x="36" y="22"/>
      <point x="69" y="-5"/>
    </contour>
    <contour>
      <point x="154" y="39" type="curve"/>
      <point x="126" y="39"/>
      <point x="109" y="54"/>
      <point x="109" y="77" type="curve"/>
      <point x="109" y="99"/>
      <point x="124" y="114"/>
      <point x="156" y="125" type="curve"/>
      <point x="204" y="141" type="line"/>
      <point x="204" y="70" type="line" smooth="yes"/>
      <point x="204" y="51"/>
      <point x="175" y="39"/>
    </contour>
    <contour>
      <point x="174" y="0" type="move" name="bottom"/>
    </contour>
    <contour>
      <point x="303" y="7" type="move" name="ogonek"/>
    </contour>
    <contour>
      <point x="174" y="298" type="move" name="top"/>
    </contour>
  </outline>
</glyph>
<glyph name="b" format="1">
  <advance width="391"/>
  <unicode hex="0062"/>
  <outline>
    <contour>
      <point x="213" y="303" type="curve"/>
      <point x="191" y="303"/>
      <point x="165" y="296"/>
      <point x="136" y="278" type="curve"/>
      <point x="136" y="404" type="line" smooth="yes"/>
      <point x="136" y="429"/>
      <point x="139" y="450"/>
      <point x="144" y="466" type="curve"/>
      <point x="142" y="472"/>
      <point x="138" y="478"/>
      <point x="134" y="478" type="curve"/>
      <point x="102" y="464"/>
      <point x="63" y="455"/>
      <point x="17" y="451" type="curve"/>
      <point x="14" y="451"/>
      <point x="12" y="448"/>
      <point x="12" y="440" type="curve"/>
      <point x="12" y="434"/>
      <point x="14" y="430"/>
      <point x="17" y="430" type="curve"/>
      <point x="23" y="430" type="line" smooth="yes"/>
      <point x="46" y="430"/>
      <point x="59" y="427"/>
      <point x="61" y="419" type="curve"/>
      <point x="64" y="405"/>
      <point x="66" y="390"/>
      <point x="66" y="373" type="curve"/>
      <point x="66" y="91" type="line" smooth="yes"/>
      <point x="66" y="65"/>
      <point x="61" y="22"/>
      <point x="58" y="6" type="curve"/>
      <point x="61" y="2"/>
      <point x="71" y="-4"/>
      <point x="76" y="-4" type="curve"/>
      <point x="89" y="1"/>
      <point x="100" y="5"/>
      <point x="109" y="5" type="curve"/>
      <point x="126" y="5"/>
      <point x="153" y="-5"/>
      <point x="194" y="-5" type="curve"/>
      <point x="283" y="-5"/>
      <point x="365" y="75"/>
      <point x="365" y="159" type="curve"/>
      <point x="365" y="228"/>
      <point x="307" y="303"/>
    </contour>
    <contour>
      <point x="179" y="265" type="curve"/>
      <point x="244" y="265"/>
      <point x="288" y="214"/>
      <point x="288" y="142" type="curve"/>
      <point x="288" y="71"/>
      <point x="252" y="26"/>
      <point x="198" y="26" type="curve"/>
      <point x="158" y="26"/>
      <point x="136" y="45"/>
      <point x="136" y="73" type="curve"/>
      <point x="136" y="229" type="line" smooth="yes"/>
      <point x="136" y="250"/>
      <point x="152" y="265"/>
    </contour>
    <contour>
      <point x="197" y="0" type="move" name="bottom"/>
    </contour>
    <contour>
      <point x="197" y="453" type="move" name="top"/>
    </contour>
  </outline>
</glyph>
<glyph name="c" format="1">
  <advance width="310"/>
  <unicode hex="0063"/>
  <outline>
    <contour>
      <point x="196" y="302" type="curve"/>
      <point x="90" y="302"/>
      <point x="25" y="232"/>
      <point x="25" y="145" type="curve"/>
      <point x="25" y="58"/>
      <point x="92" y="-4"/>
      <point x="184" y="-4" type="curve"/>
      <point x="231" y="-4"/>
      <point x="275" y="23"/>
      <point x="295" y="51" type="curve"/>
      <point x="297" y="55"/>
      <point x="299" y="60"/>
      <point x="299" y="64" type="curve"/>
      <point x="299" y="70"/>
      <point x="297" y="73"/>
      <point x="294" y="74" type="curve"/>
      <point x="267" y="54"/>
      <point x="237" y="46"/>
      <point x="206" y="46" type="curve"/>
      <point x="140" y="46"/>
      <point x="102" y="96"/>
      <point x="102" y="166" type="curve"/>
      <point x="102" y="234"/>
      <point x="134" y="273"/>
      <point x="176" y="273" type="curve"/>
      <point x="195" y="273"/>
      <point x="210" y="263"/>
      <point x="224" y="242" type="curve"/>
      <point x="235" y="224"/>
      <point x="247" y="217"/>
      <point x="264" y="217" type="curve"/>
      <point x="284" y="217"/>
      <point x="296" y="230"/>
      <point x="296" y="249" type="curve"/>
      <point x="296" y="281"/>
      <point x="254" y="302"/>
    </contour>
    <contour>
      <point x="158" y="0" type="move" name="bottom"/>
    </contour>
    <contour>
      <point x="158" y="298" type="move" name="top"/>
    </contour>
  </outline>
</glyph>
<glyph name="d" format="1">
  <advance width="394"/>
  <unicode hex="0064"/>
  <outline>
    <contour>
      <point x="195" y="272" type="curve"/>
      <point x="228" y="272"/>
      <point x="255" y="255"/>
      <point x="255" y="227" type="curve"/>
      <point x="255" y="79" type="line" smooth="yes"/>
      <point x="255" y="54"/>
      <point x="236" y="38"/>
      <point x="205" y="38" type="curve"/>
      <point x="148" y="38"/>
      <point x="102" y="88"/>
      <point x="102" y="158" type="curve"/>
      <point x="102" y="231"/>
      <point x="144" y="272"/>
    </contour>
    <contour>
      <point x="197" y="304" type="curve"/>
      <point x="109" y="304"/>
      <point x="25" y="227"/>
      <point x="25" y="136" type="curve"/>
      <point x="25" y="64"/>
      <point x="87" y="-3"/>
      <point x="168" y="-3" type="curve"/>
      <point x="195" y="-3"/>
      <point x="221" y="6"/>
      <point x="255" y="27" type="curve"/>
      <point x="255" y="3" type="line" smooth="yes"/>
      <point x="255" y="-2"/>
      <point x="257" y="-4"/>
      <point x="262" y="-4" type="curve"/>
      <point x="290" y="3"/>
      <point x="344" y="12"/>
      <point x="370" y="14" type="curve"/>
      <point x="373" y="14"/>
      <point x="374" y="18"/>
      <point x="374" y="26" type="curve"/>
      <point x="374" y="31"/>
      <point x="373" y="35"/>
      <point x="372" y="35" type="curve"/>
      <point x="365" y="35" type="line"/>
      <point x="346" y="35"/>
      <point x="331" y="40"/>
      <point x="329" y="47" type="curve"/>
      <point x="326" y="60"/>
      <point x="325" y="77"/>
      <point x="325" y="99" type="curve"/>
      <point x="325" y="404" type="line" smooth="yes"/>
      <point x="325" y="428"/>
      <point x="328" y="449"/>
      <point x="333" y="466" type="curve"/>
      <point x="331" y="472"/>
      <point x="327" y="478"/>
      <point x="323" y="478" type="curve"/>
      <point x="322" y="478" type="line"/>
      <point x="317" y="476" type="line"/>
      <point x="290" y="465"/>
      <point x="248" y="455"/>
      <point x="203" y="451" type="curve"/>
      <point x="200" y="451"/>
      <point x="199" y="448"/>
      <point x="199" y="440" type="curve"/>
      <point x="199" y="434"/>
      <point x="200" y="430"/>
      <point x="203" y="430" type="curve"/>
      <point x="210" y="430" type="line" smooth="yes"/>
      <point x="235" y="430"/>
      <point x="248" y="427"/>
      <point x="250" y="419" type="curve"/>
      <point x="253" y="405"/>
      <point x="255" y="390"/>
      <point x="255" y="373" type="curve"/>
      <point x="255" y="294" type="line"/>
      <point x="234" y="301"/>
      <point x="216" y="304"/>
    </contour>
    <contour>
      <point x="193" y="0" type="move" name="bottom"/>
    </contour>
    <contour>
      <point x="193" y="149" type="move" name="center"/>
    </contour>
    <contour>
      <point x="260" y="364" type="move" name="stroke"/>
    </contour>
    <contour>
      <point x="193" y="453" type="move" name="top"/>
    </contour>
    <contour>
      <point x="352" y="298" type="move" name="topright"/>
    </contour>
  </outline>
</glyph>
<glyph name="e" format="1">
  <advance width="331"/>
  <unicode hex="0065"/>
  <outline>
    <contour>
      <point x="233" y="189" type="curve"/>
      <point x="88" y="189" type="line"/>
      <point x="87" y="157" type="line"/>
      <point x="293" y="157" type="line" smooth="yes"/>
      <point x="307" y="157"/>
      <point x="310" y="161"/>
      <point x="310" y="174" type="curve"/>
      <point x="310" y="250"/>
      <point x="256" y="303"/>
      <point x="178" y="303" type="curve"/>
      <point x="92" y="303"/>
      <point x="25" y="240"/>
      <point x="25" y="145" type="curve"/>
      <point x="25" y="58"/>
      <point x="92" y="-4"/>
      <point x="187" y="-4" type="curve"/>
      <point x="234" y="-4"/>
      <point x="279" y="20"/>
      <point x="300" y="51" type="curve"/>
      <point x="303" y="55"/>
      <point x="304" y="60"/>
      <point x="304" y="64" type="curve"/>
      <point x="304" y="70"/>
      <point x="302" y="73"/>
      <point x="299" y="74" type="curve"/>
      <point x="276" y="55"/>
      <point x="245" y="46"/>
      <point x="210" y="46" type="curve"/>
      <point x="141" y="46"/>
      <point x="99" y="93"/>
      <point x="99" y="175" type="curve"/>
      <point x="99" y="235"/>
      <point x="125" y="273"/>
      <point x="173" y="273" type="curve"/>
      <point x="210" y="273"/>
      <point x="240" y="239"/>
      <point x="240" y="198" type="curve"/>
      <point x="240" y="191"/>
      <point x="238" y="189"/>
    </contour>
    <contour>
      <point x="166" y="0" type="move" name="bottom"/>
    </contour>
    <contour>
      <point x="279" y="7" type="move" name="ogonek"/>
    </contour>
    <contour>
      <point x="166" y="298" type="move" name="top"/>
    </contour>
  </outline>
</glyph>
<glyph name="f" format="1">
  <advance width="233"/>
  <unicode hex="0066"/>
  <outline>
    <contour>
      <point x="21" y="-2" type="curve"/>
      <point x="58" y="0"/>
      <point x="94" y="2"/>
      <point x="106" y="2" type="curve"/>
      <point x="122" y="2"/>
      <point x="163" y="-1"/>
      <point x="197" y="-2" type="curve"/>
      <point x="197" y="-1"/>
      <point x="198" y="1"/>
      <point x="198" y="6" type="curve"/>
      <point x="198" y="13"/>
      <point x="196" y="19"/>
      <point x="195" y="19" type="curve"/>
      <point x="181" y="19"/>
      <point x="149" y="29"/>
      <point x="148" y="34" type="curve"/>
      <point x="143" y="49"/>
      <point x="141" y="70"/>
      <point x="141" y="96" type="curve"/>
      <point x="141" y="259" type="line"/>
      <point x="141" y="280" type="line"/>
      <point x="141" y="327" type="line" smooth="yes"/>
      <point x="141" y="400"/>
      <point x="167" y="450"/>
      <point x="204" y="450" type="curve"/>
      <point x="237" y="450"/>
      <point x="243" y="402"/>
      <point x="273" y="402" type="curve"/>
      <point x="289" y="402"/>
      <point x="302" y="415"/>
      <point x="302" y="432" type="curve"/>
      <point x="302" y="459"/>
      <point x="271" y="478"/>
      <point x="228" y="478" type="curve"/>
      <point x="147" y="478"/>
      <point x="72" y="396"/>
      <point x="72" y="305" type="curve"/>
      <point x="72" y="93" type="line" smooth="yes"/>
      <point x="72" y="70"/>
      <point x="70" y="51"/>
      <point x="66" y="34" type="curve"/>
      <point x="64" y="29"/>
      <point x="36" y="19"/>
      <point x="21" y="19" type="curve"/>
      <point x="19" y="19"/>
      <point x="18" y="16"/>
      <point x="18" y="10" type="curve"/>
      <point x="18" y="4"/>
      <point x="19" y="-1"/>
    </contour>
    <contour>
      <point x="26" y="256" type="curve"/>
      <point x="223" y="256" type="line"/>
      <point x="228" y="267"/>
      <point x="231" y="277"/>
      <point x="231" y="286" type="curve"/>
      <point x="231" y="289"/>
      <point x="230" y="291"/>
      <point x="228" y="291" type="curve"/>
      <point x="55" y="291" type="line" smooth="yes"/>
      <point x="42" y="291"/>
      <point x="24" y="273"/>
      <point x="24" y="260" type="curve"/>
      <point x="24" y="257"/>
      <point x="24" y="256"/>
    </contour>
    <contour>
      <point x="107" y="0" type="move" name="bottom"/>
    </contour>
    <contour>
      <point x="117" y="453" type="move" name="top"/>
    </contour>
  </outline>
</glyph>
<glyph name="g" format="1">
  <advance width="352"/>
  <unicode hex="0067"/>
  <outline>
    <contour>
      <point x="164" y="-156" type="curve"/>
      <point x="258" y="-156"/>
      <point x="342" y="-97"/>
      <point x="341" y="-25" type="curve"/>
      <point x="341" y="-5"/>
      <point x="330" y="10"/>
      <point x="307" y="21" type="curve"/>
      <point x="282" y="34"/>
      <point x="240" y="41"/>
      <point x="181" y="42" type="curve"/>
      <point x="120" y="42"/>
      <point x="98" y="50"/>
      <point x="98" y="70" type="curve"/>
      <point x="98" y="82"/>
      <point x="112" y="100"/>
      <point x="131" y="110" type="curve"/>
      <point x="107" y="118" type="line"/>
      <point x="65" y="95"/>
      <point x="42" y="68"/>
      <point x="42" y="44" type="curve"/>
      <point x="42" y="17"/>
      <point x="74" y="-8"/>
      <point x="107" y="-9" type="curve"/>
      <point x="121" y="-11" type="line"/>
      <point x="246" y="-10"/>
      <point x="283" y="-21"/>
      <point x="283" y="-58" type="curve"/>
      <point x="283" y="-98"/>
      <point x="237" y="-129"/>
      <point x="179" y="-129" type="curve"/>
      <point x="128" y="-129"/>
      <point x="84" y="-99"/>
      <point x="84" y="-64" type="curve"/>
      <point x="84" y="-39"/>
      <point x="107" y="-17"/>
      <point x="146" y="-7" type="curve"/>
      <point x="113" y="-3" type="line"/>
      <point x="56" y="-22"/>
      <point x="25" y="-49"/>
      <point x="25" y="-82" type="curve"/>
      <point x="25" y="-125"/>
      <point x="81" y="-156"/>
    </contour>
    <contour>
      <point x="170" y="127" type="curve"/>
      <point x="134" y="127"/>
      <point x="107" y="159"/>
      <point x="107" y="205" type="curve"/>
      <point x="107" y="245"/>
      <point x="131" y="274"/>
      <point x="164" y="274" type="curve"/>
      <point x="198" y="274"/>
      <point x="226" y="238"/>
      <point x="226" y="195" type="curve"/>
      <point x="226" y="155"/>
      <point x="203" y="127"/>
    </contour>
    <contour>
      <point x="165" y="99" type="curve"/>
      <point x="237" y="99"/>
      <point x="296" y="147"/>
      <point x="296" y="205" type="curve"/>
      <point x="296" y="224"/>
      <point x="286" y="246"/>
      <point x="272" y="262" type="curve"/>
      <point x="267" y="252" type="line"/>
      <point x="333" y="252" type="line" smooth="yes"/>
      <point x="337" y="252"/>
      <point x="340" y="258"/>
      <point x="340" y="267" type="curve"/>
      <point x="340" y="276"/>
      <point x="338" y="283"/>
      <point x="336" y="283" type="curve"/>
      <point x="288" y="283" type="line" smooth="yes"/>
      <point x="250" y="283"/>
      <point x="210" y="301"/>
      <point x="167" y="301" type="curve"/>
      <point x="92" y="301"/>
      <point x="37" y="258"/>
      <point x="37" y="200" type="curve"/>
      <point x="37" y="140"/>
      <point x="95" y="99"/>
    </contour>
    <contour>
      <point x="176" y="-153" type="move" name="bottom"/>
    </contour>
    <contour>
      <point x="176" y="298" type="move" name="top"/>
    </contour>
  </outline>
</glyph>
<glyph name="h" format="1">
  <advance width="414"/>
  <unicode hex="0068"/>
  <outline>
    <contour>
      <point x="249" y="303" type="curve"/>
      <point x="212" y="303"/>
      <point x="170" y="281"/>
      <point x="141" y="256" type="curve"/>
      <point x="141" y="404" type="line" smooth="yes"/>
      <point x="141" y="429"/>
      <point x="144" y="450"/>
      <point x="149" y="466" type="curve"/>
      <point x="149" y="471"/>
      <point x="143" y="477"/>
      <point x="139" y="478" type="curve"/>
      <point x="111" y="465"/>
      <point x="71" y="456"/>
      <point x="22" y="451" type="curve"/>
      <point x="19" y="451"/>
      <point x="18" y="448"/>
      <point x="18" y="440" type="curve"/>
      <point x="18" y="432"/>
      <point x="19" y="429"/>
      <point x="22" y="429" type="curve"/>
      <point x="29" y="429" type="line" smooth="yes"/>
      <point x="48" y="429"/>
      <point x="59" y="426"/>
      <point x="64" y="421" type="curve"/>
      <point x="70" y="415"/>
      <point x="71" y="390"/>
      <point x="71" y="370" type="curve"/>
      <point x="71" y="83" type="line" smooth="yes"/>
      <point x="71" y="64"/>
      <point x="70" y="48"/>
      <point x="66" y="34" type="curve"/>
      <point x="64" y="28"/>
      <point x="32" y="19"/>
      <point x="20" y="19" type="curve"/>
      <point x="18" y="19"/>
      <point x="17" y="16"/>
      <point x="17" y="10" type="curve"/>
      <point x="17" y="6"/>
      <point x="18" y="2"/>
      <point x="19" y="-2" type="curve"/>
      <point x="58" y="-1"/>
      <point x="98" y="2"/>
      <point x="107" y="2" type="curve"/>
      <point x="117" y="2"/>
      <point x="154" y="-1"/>
      <point x="192" y="-2" type="curve"/>
      <point x="192" y="-1"/>
      <point x="193" y="2"/>
      <point x="193" y="6" type="curve"/>
      <point x="193" y="12"/>
      <point x="192" y="19"/>
      <point x="190" y="19" type="curve"/>
      <point x="180" y="19"/>
      <point x="149" y="28"/>
      <point x="147" y="34" type="curve"/>
      <point x="142" y="48"/>
      <point x="141" y="68"/>
      <point x="141" y="96" type="curve"/>
      <point x="141" y="206" type="line" smooth="yes"/>
      <point x="141" y="231"/>
      <point x="172" y="256"/>
      <point x="209" y="256" type="curve"/>
      <point x="253" y="256"/>
      <point x="276" y="229"/>
      <point x="276" y="169" type="curve"/>
      <point x="276" y="84" type="line" smooth="yes"/>
      <point x="276" y="64"/>
      <point x="275" y="48"/>
      <point x="271" y="34" type="curve"/>
      <point x="269" y="28"/>
      <point x="240" y="19"/>
      <point x="229" y="19" type="curve"/>
      <point x="227" y="19"/>
      <point x="226" y="16"/>
      <point x="226" y="10" type="curve"/>
      <point x="226" y="4"/>
      <point x="226" y="0"/>
      <point x="228" y="-2" type="curve"/>
      <point x="262" y="-1"/>
      <point x="293" y="2"/>
      <point x="313" y="2" type="curve"/>
      <point x="332" y="2"/>
      <point x="366" y="-1"/>
      <point x="399" y="-2" type="curve"/>
      <point x="400" y="-1"/>
      <point x="400" y="2"/>
      <point x="400" y="6" type="curve"/>
      <point x="400" y="12"/>
      <point x="399" y="19"/>
      <point x="397" y="19" type="curve"/>
      <point x="388" y="19"/>
      <point x="354" y="28"/>
      <point x="352" y="34" type="curve"/>
      <point x="347" y="48"/>
      <point x="346" y="68"/>
      <point x="346" y="95" type="curve"/>
      <point x="346" y="169" type="line" smooth="yes"/>
      <point x="346" y="265"/>
      <point x="312" y="303"/>
    </contour>
    <contour>
      <point x="207" y="0" type="move" name="bottom"/>
    </contour>
    <contour>
      <point x="207" y="226" type="move" name="center"/>
    </contour>
    <contour>
      <point x="136" y="365" type="move" name="stroke"/>
    </contour>
    <contour>
      <point x="207" y="453" type="move" name="top"/>
    </contour>
  </outline>
</glyph>
<glyph name="i" format="1">
  <advance width="213"/>
  <unicode hex="0069"/>
  <outline>
    <component base="dotaccentcomb.i" xOffset="-4" yOffset="2"/>
    <component base="idotless"/>
    <contour>
      <point x="111" y="0" type="move" name="bottom"/>
    </contour>
  </outline>
</glyph>
<glyph name="k" format="1">
  <advance width="394"/>
  <unicode hex="006B"/>
  <outline>
    <contour>
      <point x="18" y="-2" type="curve"/>
      <point x="48" y="-1"/>
      <point x="88" y="2"/>
      <point x="107" y="2" type="curve"/>
      <point x="127" y="2"/>
      <point x="164" y="-1"/>
      <point x="191" y="-2" type="curve"/>
      <point x="192" y="0"/>
      <point x="192" y="2"/>
      <point x="192" y="6" type="curve"/>
      <point x="192" y="12"/>
      <point x="191" y="19"/>
      <point x="189" y="19" type="curve"/>
      <point x="180" y="20"/>
      <point x="149" y="28"/>
      <point x="147" y="34" type="curve"/>
      <point x="143" y="45"/>
      <point x="141" y="66"/>
      <point x="141" y="96" type="curve"/>
      <point x="141" y="136" type="line"/>
      <point x="152" y="138" type="line"/>
      <point x="251" y="35" type="line" smooth="yes"/>
      <point x="256" y="31"/>
      <point x="257" y="29"/>
      <point x="257" y="27" type="curve"/>
      <point x="257" y="24"/>
      <point x="241" y="19"/>
      <point x="230" y="19" type="curve"/>
      <point x="228" y="19"/>
      <point x="227" y="15"/>
      <point x="227" y="10" type="curve"/>
      <point x="227" y="4"/>
      <point x="228" y="0"/>
      <point x="228" y="-2" type="curve"/>
      <point x="267" y="0"/>
      <point x="299" y="2"/>
      <point x="314" y="2" type="curve"/>
      <point x="328" y="2"/>
      <point x="359" y="0"/>
      <point x="400" y="-2" type="curve"/>
      <point x="400" y="-1"/>
      <point x="401" y="2"/>
      <point x="401" y="7" type="curve"/>
      <point x="401" y="15"/>
      <point x="400" y="18"/>
      <point x="397" y="18" type="curve"/>
      <point x="374" y="20"/>
      <point x="347" y="31"/>
      <point x="332" y="47" type="curve"/>
      <point x="199" y="181" type="line"/>
      <point x="185" y="155" type="line"/>
      <point x="287" y="245" type="line" smooth="yes"/>
      <point x="310" y="266"/>
      <point x="331" y="277"/>
      <point x="366" y="277" type="curve"/>
      <point x="368" y="277"/>
      <point x="370" y="282"/>
      <point x="370" y="288" type="curve"/>
      <point x="370" y="292"/>
      <point x="369" y="297"/>
      <point x="366" y="298" type="curve"/>
      <point x="350" y="297"/>
      <point x="304" y="295"/>
      <point x="286" y="295" type="curve"/>
      <point x="266" y="295"/>
      <point x="243" y="296"/>
      <point x="219" y="297" type="curve"/>
      <point x="217" y="296"/>
      <point x="216" y="292"/>
      <point x="216" y="289" type="curve"/>
      <point x="216" y="285"/>
      <point x="217" y="280"/>
      <point x="218" y="276" type="curve"/>
      <point x="246" y="275"/>
      <point x="251" y="271"/>
      <point x="251" y="265" type="curve"/>
      <point x="251" y="258"/>
      <point x="247" y="252"/>
      <point x="237" y="242" type="curve"/>
      <point x="162" y="174" type="line" smooth="yes"/>
      <point x="158" y="171"/>
      <point x="151" y="169"/>
      <point x="141" y="167" type="curve"/>
      <point x="141" y="404" type="line" smooth="yes"/>
      <point x="141" y="429"/>
      <point x="144" y="450"/>
      <point x="149" y="466" type="curve"/>
      <point x="149" y="471"/>
      <point x="143" y="477"/>
      <point x="139" y="478" type="curve"/>
      <point x="111" y="465"/>
      <point x="71" y="456"/>
      <point x="22" y="451" type="curve"/>
      <point x="19" y="451"/>
      <point x="18" y="448"/>
      <point x="18" y="440" type="curve"/>
      <point x="18" y="432"/>
      <point x="19" y="429"/>
      <point x="22" y="429" type="curve"/>
      <point x="29" y="429" type="line" smooth="yes"/>
      <point x="48" y="429"/>
      <point x="63" y="426"/>
      <point x="66" y="418" type="curve"/>
      <point x="70" y="406"/>
      <point x="71" y="390"/>
      <point x="71" y="370" type="curve"/>
      <point x="71" y="84" type="line" smooth="yes"/>
      <point x="71" y="64"/>
      <point x="70" y="48"/>
      <point x="66" y="34" type="curve"/>
      <point x="64" y="28"/>
      <point x="32" y="19"/>
      <point x="20" y="19" type="curve"/>
      <point x="18" y="19"/>
      <point x="17" y="16"/>
      <point x="17" y="10" type="curve"/>
      <point x="17" y="4"/>
      <point x="18" y="0"/>
    </contour>
    <contour>
      <point x="206" y="0" type="move" name="bottom"/>
    </contour>
    <contour>
      <point x="206" y="453" type="move" name="top"/>
    </contour>
  </outline>
</glyph>
<glyph name="l" format="1">
  <advance width="210"/>
  <unicode hex="006C"/>
  <outline>
    <contour>
      <point x="19" y="-2" type="curve"/>
      <point x="53" y="0"/>
      <point x="88" y="2"/>
      <point x="107" y="2" type="curve"/>
      <point x="133" y="2"/>
      <point x="168" y="-1"/>
      <point x="194" y="-2" type="curve"/>
      <point x="195" y="-1"/>
      <point x="195" y="2"/>
      <point x="195" y="6" type="curve"/>
      <point x="195" y="12"/>
      <point x="194" y="19"/>
      <point x="192" y="19" type="curve"/>
      <point x="183" y="19"/>
      <point x="149" y="28"/>
      <point x="147" y="34" type="curve"/>
      <point x="142" y="48"/>
      <point x="141" y="68"/>
      <point x="141" y="96" type="curve"/>
      <point x="141" y="404" type="line" smooth="yes"/>
      <point x="141" y="429"/>
      <point x="144" y="450"/>
      <point x="149" y="466" type="curve"/>
      <point x="149" y="471"/>
      <point x="143" y="477"/>
      <point x="139" y="478" type="curve"/>
      <point x="111" y="465"/>
      <point x="71" y="456"/>
      <point x="22" y="451" type="curve"/>
      <point x="19" y="451"/>
      <point x="18" y="448"/>
      <point x="18" y="440" type="curve"/>
      <point x="18" y="432"/>
      <point x="19" y="429"/>
      <point x="22" y="429" type="curve"/>
      <point x="29" y="429" type="line" smooth="yes"/>
      <point x="48" y="429"/>
      <point x="59" y="426"/>
      <point x="64" y="421" type="curve"/>
      <point x="70" y="415"/>
      <point x="71" y="390"/>
      <point x="71" y="370" type="curve"/>
      <point x="71" y="84" type="line" smooth="yes"/>
      <point x="71" y="64"/>
      <point x="70" y="48"/>
      <point x="66" y="34" type="curve"/>
      <point x="64" y="28"/>
      <point x="32" y="19"/>
      <point x="20" y="19" type="curve"/>
      <point x="18" y="19"/>
      <point x="17" y="16"/>
      <point x="17" y="10" type="curve"/>
      <point x="17" y="4"/>
      <point x="18" y="0"/>
    </contour>
    <contour>
      <point x="105" y="0" type="move" name="bottom"/>
    </contour>
    <contour>
      <point x="105" y="226" type="move" name="center"/>
    </contour>
    <contour>
      <point x="216" y="226" type="move" name="dotacc"/>
    </contour>
    <contour>
      <point x="105" y="453" type="move" name="top"/>
    </contour>
    <contour>
      <point x="168" y="298" type="move" name="topright"/>
    </contour>
  </outline>
</glyph>
<glyph name="m" format="1">
  <advance width="607"/>
  <unicode hex="006D"/>
  <outline>
    <contour>
      <point x="21" y="-2" type="curve"/>
      <point x="55" y="-1"/>
      <point x="94" y="2"/>
      <point x="109" y="2" type="curve"/>
      <point x="125" y="2"/>
      <point x="159" y="-1"/>
      <point x="192" y="-2" type="curve"/>
      <point x="193" y="-1"/>
      <point x="194" y="3"/>
      <point x="194" y="7" type="curve"/>
      <point x="194" y="14"/>
      <point x="192" y="19"/>
      <point x="191" y="19" type="curve"/>
      <point x="178" y="20"/>
      <point x="150" y="29"/>
      <point x="148" y="34" type="curve"/>
      <point x="145" y="47"/>
      <point x="143" y="67"/>
      <point x="143" y="96" type="curve"/>
      <point x="143" y="207" type="line" smooth="yes"/>
      <point x="143" y="231"/>
      <point x="174" y="256"/>
      <point x="208" y="256" type="curve"/>
      <point x="248" y="256"/>
      <point x="272" y="230"/>
      <point x="272" y="171" type="curve"/>
      <point x="272" y="84" type="line" smooth="yes"/>
      <point x="272" y="64"/>
      <point x="271" y="47"/>
      <point x="267" y="34" type="curve"/>
      <point x="265" y="29"/>
      <point x="240" y="20"/>
      <point x="226" y="19" type="curve"/>
      <point x="224" y="19"/>
      <point x="223" y="17"/>
      <point x="223" y="10" type="curve"/>
      <point x="223" y="2"/>
      <point x="223" y="0"/>
      <point x="225" y="-2" type="curve"/>
      <point x="259" y="-1"/>
      <point x="289" y="2"/>
      <point x="308" y="2" type="curve"/>
      <point x="328" y="2"/>
      <point x="359" y="-1"/>
      <point x="391" y="-2" type="curve"/>
      <point x="392" y="-1"/>
      <point x="392" y="1"/>
      <point x="392" y="6" type="curve"/>
      <point x="392" y="13"/>
      <point x="391" y="19"/>
      <point x="389" y="19" type="curve"/>
      <point x="376" y="20"/>
      <point x="349" y="29"/>
      <point x="348" y="34" type="curve"/>
      <point x="344" y="47"/>
      <point x="342" y="67"/>
      <point x="342" y="96" type="curve"/>
      <point x="342" y="171" type="line" smooth="yes"/>
      <point x="342" y="265"/>
      <point x="307" y="303"/>
      <point x="247" y="303" type="curve"/>
      <point x="214" y="303"/>
      <point x="172" y="281"/>
      <point x="142" y="256" type="curve"/>
      <point x="145" y="279"/>
      <point x="146" y="290"/>
      <point x="146" y="295" type="curve"/>
      <point x="146" y="298"/>
      <point x="144" y="301"/>
      <point x="142" y="301" type="curve"/>
      <point x="138" y="301"/>
      <point x="132" y="299"/>
      <point x="126" y="297" type="curve"/>
      <point x="101" y="292"/>
      <point x="64" y="283"/>
      <point x="23" y="280" type="curve"/>
      <point x="21" y="278"/>
      <point x="20" y="270"/>
      <point x="20" y="259" type="curve"/>
      <point x="37" y="258"/>
      <point x="54" y="253"/>
      <point x="62" y="244" type="curve"/>
      <point x="69" y="237"/>
      <point x="73" y="223"/>
      <point x="73" y="203" type="curve"/>
      <point x="73" y="84" type="line" smooth="yes"/>
      <point x="73" y="64"/>
      <point x="72" y="47"/>
      <point x="68" y="34" type="curve"/>
      <point x="66" y="29"/>
      <point x="37" y="19"/>
      <point x="22" y="19" type="curve"/>
      <point x="19" y="19"/>
      <point x="19" y="17"/>
      <point x="19" y="10" type="curve"/>
      <point x="19" y="5"/>
      <point x="19" y="2"/>
    </contour>
    <contour>
      <point x="423" y="-2" type="curve"/>
      <point x="457" y="-1"/>
      <point x="486" y="2"/>
      <point x="506" y="2" type="curve"/>
      <point x="525" y="2"/>
      <point x="559" y="-1"/>
      <point x="591" y="-2" type="curve"/>
      <point x="592" y="-1"/>
      <point x="592" y="1"/>
      <point x="592" y="6" type="curve"/>
      <point x="592" y="13"/>
      <point x="591" y="19"/>
      <point x="589" y="19" type="curve"/>
      <point x="576" y="19"/>
      <point x="547" y="29"/>
      <point x="545" y="34" type="curve"/>
      <point x="541" y="47"/>
      <point x="539" y="67"/>
      <point x="539" y="96" type="curve"/>
      <point x="539" y="171" type="line" smooth="yes"/>
      <point x="539" y="265"/>
      <point x="503" y="303"/>
      <point x="443" y="303" type="curve"/>
      <point x="403" y="303"/>
      <point x="356" y="278"/>
      <point x="322" y="245" type="curve"/>
      <point x="335" y="198" type="line"/>
      <point x="335" y="230"/>
      <point x="371" y="256"/>
      <point x="404" y="256" type="curve"/>
      <point x="446" y="256"/>
      <point x="470" y="230"/>
      <point x="470" y="171" type="curve"/>
      <point x="470" y="84" type="line" smooth="yes"/>
      <point x="470" y="64"/>
      <point x="468" y="47"/>
      <point x="465" y="34" type="curve"/>
      <point x="463" y="29"/>
      <point x="438" y="19"/>
      <point x="424" y="19" type="curve"/>
      <point x="422" y="19"/>
      <point x="421" y="17"/>
      <point x="421" y="10" type="curve"/>
      <point x="421" y="2"/>
      <point x="422" y="0"/>
    </contour>
    <contour>
      <point x="304" y="0" type="move" name="bottom"/>
    </contour>
    <contour>
      <point x="304" y="298" type="move" name="top"/>
    </contour>
  </outline>
</glyph>
<glyph name="n" format="1">
  <advance width="415"/>
  <unicode hex="006E"/>
  <outline>
    <contour>
      <point x="20" y="-2" type="curve"/>
      <point x="55" y="-1"/>
      <point x="93" y="2"/>
      <point x="108" y="2" type="curve"/>
      <point x="124" y="2"/>
      <point x="160" y="-1"/>
      <point x="193" y="-2" type="curve"/>
      <point x="193" y="-1"/>
      <point x="194" y="3"/>
      <point x="194" y="7" type="curve"/>
      <point x="194" y="14"/>
      <point x="193" y="19"/>
      <point x="191" y="19" type="curve"/>
      <point x="178" y="19"/>
      <point x="149" y="29"/>
      <point x="148" y="34" type="curve"/>
      <point x="144" y="47"/>
      <point x="142" y="67"/>
      <point x="142" y="96" type="curve"/>
      <point x="142" y="206" type="line" smooth="yes"/>
      <point x="142" y="231"/>
      <point x="173" y="256"/>
      <point x="210" y="256" type="curve"/>
      <point x="254" y="256"/>
      <point x="277" y="229"/>
      <point x="277" y="169" type="curve"/>
      <point x="277" y="84" type="line" smooth="yes"/>
      <point x="277" y="64"/>
      <point x="276" y="47"/>
      <point x="272" y="34" type="curve"/>
      <point x="270" y="29"/>
      <point x="244" y="19"/>
      <point x="230" y="19" type="curve"/>
      <point x="228" y="19"/>
      <point x="227" y="17"/>
      <point x="227" y="10" type="curve"/>
      <point x="227" y="2"/>
      <point x="227" y="0"/>
      <point x="229" y="-2" type="curve"/>
      <point x="263" y="-1"/>
      <point x="294" y="2"/>
      <point x="313" y="2" type="curve"/>
      <point x="333" y="2"/>
      <point x="367" y="-1"/>
      <point x="400" y="-2" type="curve"/>
      <point x="401" y="-1"/>
      <point x="401" y="1"/>
      <point x="401" y="6" type="curve"/>
      <point x="401" y="13"/>
      <point x="400" y="19"/>
      <point x="398" y="19" type="curve"/>
      <point x="385" y="19"/>
      <point x="354" y="29"/>
      <point x="353" y="34" type="curve"/>
      <point x="349" y="47"/>
      <point x="347" y="67"/>
      <point x="347" y="96" type="curve"/>
      <point x="347" y="169" type="line" smooth="yes"/>
      <point x="347" y="265"/>
      <point x="313" y="303"/>
      <point x="249" y="303" type="curve"/>
      <point x="213" y="303"/>
      <point x="171" y="281"/>
      <point x="142" y="256" type="curve"/>
      <point x="144" y="279"/>
      <point x="146" y="290"/>
      <point x="146" y="295" type="curve"/>
      <point x="146" y="298"/>
      <point x="144" y="301"/>
      <point x="141" y="301" type="curve"/>
      <point x="137" y="301"/>
      <point x="131" y="299"/>
      <point x="125" y="297" type="curve"/>
      <point x="101" y="292"/>
      <point x="64" y="283"/>
      <point x="22" y="280" type="curve"/>
      <point x="20" y="278"/>
      <point x="19" y="270"/>
      <point x="19" y="259" type="curve"/>
      <point x="37" y="258"/>
      <point x="53" y="253"/>
      <point x="61" y="244" type="curve"/>
      <point x="68" y="237"/>
      <point x="72" y="223"/>
      <point x="72" y="203" type="curve"/>
      <point x="72" y="84" type="line" smooth="yes"/>
      <point x="72" y="64"/>
      <point x="71" y="47"/>
      <point x="67" y="34" type="curve"/>
      <point x="65" y="29"/>
      <point x="36" y="19"/>
      <point x="21" y="19" type="curve"/>
      <point x="19" y="19"/>
      <point x="18" y="17"/>
      <point x="18" y="10" type="curve"/>
      <point x="18" y="5"/>
      <point x="19" y="2"/>
    </contour>
    <contour>
      <point x="208" y="0" type="move" name="bottom"/>
    </contour>
    <contour>
      <point x="208" y="298" type="move" name="top"/>
    </contour>
  </outline>
</glyph>
<glyph name="o" format="1">
  <advance width="383"/>
  <unicode hex="006F"/>
  <outline>
    <contour>
      <point x="182" y="272" type="curve"/>
      <point x="235" y="272"/>
      <point x="281" y="211"/>
      <point x="281" y="140" type="curve"/>
      <point x="281" y="72"/>
      <point x="253" y="26"/>
      <point x="201" y="26" type="curve"/>
      <point x="147" y="26"/>
      <point x="102" y="88"/>
      <point x="102" y="161" type="curve"/>
      <point x="102" y="228"/>
      <point x="129" y="272"/>
    </contour>
    <contour>
      <point x="190" y="303" type="curve"/>
      <point x="97" y="303"/>
      <point x="25" y="236"/>
      <point x="25" y="150" type="curve"/>
      <point x="25" y="61"/>
      <point x="95" y="-5"/>
      <point x="192" y="-5" type="curve"/>
      <point x="287" y="-5"/>
      <point x="357" y="61"/>
      <point x="357" y="150" type="curve"/>
      <point x="357" y="234"/>
      <point x="282" y="303"/>
    </contour>
    <contour>
      <point x="192" y="0" type="move" name="bottom"/>
    </contour>
    <contour>
      <point x="192" y="149" type="move" name="center"/>
    </contour>
    <contour>
      <point x="345" y="7" type="move" name="ogonek"/>
    </contour>
    <contour>
      <point x="192" y="298" type="move" name="top"/>
    </contour>
    <contour>
      <point x="368" y="297" type="move" name="topright"/>
    </contour>
  </outline>
</glyph>
<glyph name="p" format="1">
  <advance width="395"/>
  <unicode hex="0070"/>
  <outline>
    <contour>
      <point x="218" y="303" type="curve"/>
      <point x="196" y="303"/>
      <point x="169" y="296"/>
      <point x="140" y="270" type="curve"/>
      <point x="141" y="284"/>
      <point x="142" y="292"/>
      <point x="142" y="295" type="curve"/>
      <point x="142" y="299"/>
      <point x="140" y="301"/>
      <point x="138" y="301" type="curve"/>
      <point x="134" y="301"/>
      <point x="128" y="299"/>
      <point x="122" y="297" type="curve"/>
      <point x="98" y="291"/>
      <point x="62" y="283"/>
      <point x="20" y="280" type="curve"/>
      <point x="18" y="278"/>
      <point x="17" y="270"/>
      <point x="17" y="259" type="curve"/>
      <point x="35" y="258"/>
      <point x="51" y="253"/>
      <point x="59" y="244" type="curve"/>
      <point x="66" y="237"/>
      <point x="70" y="223"/>
      <point x="70" y="203" type="curve"/>
      <point x="70" y="-68" type="line" smooth="yes"/>
      <point x="70" y="-87"/>
      <point x="69" y="-104"/>
      <point x="65" y="-117" type="curve"/>
      <point x="63" y="-123"/>
      <point x="31" y="-132"/>
      <point x="19" y="-132" type="curve"/>
      <point x="17" y="-132"/>
      <point x="16" y="-135"/>
      <point x="16" y="-142" type="curve"/>
      <point x="16" y="-148"/>
      <point x="17" y="-152"/>
      <point x="19" y="-154" type="curve"/>
      <point x="50" y="-152"/>
      <point x="84" y="-150"/>
      <point x="106" y="-150" type="curve"/>
      <point x="128" y="-150"/>
      <point x="163" y="-152"/>
      <point x="193" y="-154" type="curve"/>
      <point x="194" y="-152"/>
      <point x="194" y="-149"/>
      <point x="194" y="-146" type="curve"/>
      <point x="194" y="-140"/>
      <point x="193" y="-132"/>
      <point x="191" y="-132" type="curve"/>
      <point x="182" y="-132"/>
      <point x="148" y="-123"/>
      <point x="146" y="-117" type="curve"/>
      <point x="142" y="-103"/>
      <point x="140" y="-83"/>
      <point x="140" y="-56" type="curve"/>
      <point x="140" y="3" type="line"/>
      <point x="148" y="1"/>
      <point x="174" y="-5"/>
      <point x="198" y="-5" type="curve"/>
      <point x="287" y="-5"/>
      <point x="370" y="75"/>
      <point x="370" y="159" type="curve"/>
      <point x="370" y="228"/>
      <point x="311" y="303"/>
    </contour>
    <contour>
      <point x="191" y="265" type="curve"/>
      <point x="249" y="265"/>
      <point x="292" y="214"/>
      <point x="292" y="142" type="curve"/>
      <point x="292" y="71"/>
      <point x="256" y="26"/>
      <point x="202" y="26" type="curve"/>
      <point x="162" y="26"/>
      <point x="140" y="45"/>
      <point x="140" y="73" type="curve"/>
      <point x="140" y="217" type="line" smooth="yes"/>
      <point x="140" y="246"/>
      <point x="164" y="265"/>
    </contour>
    <contour>
      <point x="198" y="0" type="move" name="bottom"/>
    </contour>
    <contour>
      <point x="198" y="298" type="move" name="top"/>
    </contour>
  </outline>
</glyph>
<glyph name="q" format="1">
  <advance width="389"/>
  <unicode hex="0071"/>
  <outline>
    <contour>
      <point x="376" y="-132" type="curve"/>
      <point x="366" y="-132"/>
      <point x="332" y="-123"/>
      <point x="330" y="-117" type="curve"/>
      <point x="325" y="-104"/>
      <point x="325" y="-83"/>
      <point x="325" y="-56" type="curve"/>
      <point x="325" y="207" type="line" smooth="yes"/>
      <point x="325" y="234"/>
      <point x="329" y="277"/>
      <point x="333" y="293" type="curve"/>
      <point x="330" y="297"/>
      <point x="320" y="302"/>
      <point x="314" y="303" type="curve"/>
      <point x="301" y="298"/>
      <point x="290" y="293"/>
      <point x="281" y="293" type="curve"/>
      <point x="265" y="293"/>
      <point x="238" y="304"/>
      <point x="196" y="304" type="curve"/>
      <point x="109" y="304"/>
      <point x="25" y="227"/>
      <point x="25" y="136" type="curve"/>
      <point x="25" y="64"/>
      <point x="87" y="-3"/>
      <point x="168" y="-3" type="curve"/>
      <point x="195" y="-3"/>
      <point x="221" y="6"/>
      <point x="255" y="27" type="curve"/>
      <point x="255" y="-68" type="line" smooth="yes"/>
      <point x="255" y="-87"/>
      <point x="253" y="-104"/>
      <point x="250" y="-117" type="curve"/>
      <point x="248" y="-123"/>
      <point x="215" y="-132"/>
      <point x="203" y="-132" type="curve"/>
      <point x="201" y="-132"/>
      <point x="200" y="-135"/>
      <point x="200" y="-142" type="curve"/>
      <point x="200" y="-148"/>
      <point x="201" y="-152"/>
      <point x="203" y="-154" type="curve"/>
      <point x="234" y="-152"/>
      <point x="269" y="-150"/>
      <point x="291" y="-150" type="curve"/>
      <point x="313" y="-150"/>
      <point x="348" y="-152"/>
      <point x="378" y="-154" type="curve"/>
      <point x="378" y="-152"/>
      <point x="379" y="-149"/>
      <point x="379" y="-146" type="curve"/>
      <point x="379" y="-140"/>
      <point x="378" y="-132"/>
    </contour>
    <contour>
      <point x="205" y="38" type="curve"/>
      <point x="148" y="38"/>
      <point x="102" y="88"/>
      <point x="102" y="158" type="curve"/>
      <point x="102" y="231"/>
      <point x="144" y="272"/>
      <point x="195" y="272" type="curve"/>
      <point x="228" y="272"/>
      <point x="255" y="255"/>
      <point x="255" y="227" type="curve"/>
      <point x="255" y="79" type="line" smooth="yes"/>
      <point x="255" y="54"/>
      <point x="236" y="38"/>
    </contour>
    <contour>
      <point x="186" y="0" type="move" name="bottom"/>
    </contour>
    <contour>
      <point x="186" y="298" type="move" name="top"/>
    </contour>
  </outline>
</glyph>
<glyph name="r" format="1">
  <advance width="283"/>
  <unicode hex="0072"/>
  <outline>
    <contour>
      <point x="232" y="303" type="curve"/>
      <point x="197" y="303"/>
      <point x="163" y="280"/>
      <point x="141" y="251" type="curve"/>
      <point x="143" y="265"/>
      <point x="145" y="282"/>
      <point x="146" y="295" type="curve"/>
      <point x="146" y="298"/>
      <point x="144" y="301"/>
      <point x="141" y="301" type="curve"/>
      <point x="138" y="301"/>
      <point x="131" y="299"/>
      <point x="125" y="297" type="curve"/>
      <point x="90" y="290"/>
      <point x="53" y="282"/>
      <point x="22" y="280" type="curve"/>
      <point x="20" y="278"/>
      <point x="19" y="270"/>
      <point x="19" y="259" type="curve"/>
      <point x="37" y="258"/>
      <point x="53" y="252"/>
      <point x="61" y="244" type="curve"/>
      <point x="68" y="237"/>
      <point x="72" y="222"/>
      <point x="72" y="203" type="curve"/>
      <point x="72" y="84" type="line" smooth="yes"/>
      <point x="72" y="62"/>
      <point x="71" y="46"/>
      <point x="67" y="34" type="curve"/>
      <point x="66" y="29"/>
      <point x="35" y="19"/>
      <point x="21" y="19" type="curve"/>
      <point x="19" y="19"/>
      <point x="18" y="17"/>
      <point x="18" y="10" type="curve"/>
      <point x="18" y="4"/>
      <point x="19" y="0"/>
      <point x="21" y="-2" type="curve"/>
      <point x="57" y="0"/>
      <point x="87" y="2"/>
      <point x="108" y="2" type="curve"/>
      <point x="127" y="2"/>
      <point x="158" y="0"/>
      <point x="197" y="-2" type="curve"/>
      <point x="197" y="-1"/>
      <point x="198" y="2"/>
      <point x="198" y="6" type="curve"/>
      <point x="198" y="13"/>
      <point x="196" y="19"/>
      <point x="195" y="19" type="curve"/>
      <point x="180" y="19"/>
      <point x="149" y="29"/>
      <point x="148" y="34" type="curve"/>
      <point x="143" y="46"/>
      <point x="142" y="64"/>
      <point x="142" y="96" type="curve"/>
      <point x="142" y="179" type="line" smooth="yes"/>
      <point x="142" y="223"/>
      <point x="165" y="253"/>
      <point x="192" y="253" type="curve"/>
      <point x="222" y="253"/>
      <point x="223" y="228"/>
      <point x="247" y="228" type="curve"/>
      <point x="267" y="228"/>
      <point x="280" y="243"/>
      <point x="280" y="265" type="curve"/>
      <point x="280" y="289"/>
      <point x="259" y="303"/>
    </contour>
    <contour>
      <point x="107" y="0" type="move" name="bottom"/>
    </contour>
    <contour>
      <point x="148" y="298" type="move" name="top"/>
    </contour>
  </outline>
</glyph>
<glyph name="s" format="1">
  <advance width="274"/>
  <unicode hex="0073"/>
  <outline>
    <contour>
      <point x="155" y="303" type="curve"/>
      <point x="87" y="303"/>
      <point x="32" y="266"/>
      <point x="32" y="215" type="curve"/>
      <point x="32" y="180"/>
      <point x="55" y="154"/>
      <point x="116" y="127" type="curve"/>
      <point x="171" y="102"/>
      <point x="185" y="86"/>
      <point x="185" y="64" type="curve"/>
      <point x="185" y="37"/>
      <point x="164" y="21"/>
      <point x="135" y="21" type="curve"/>
      <point x="92" y="21"/>
      <point x="61" y="51"/>
      <point x="54" y="84" type="curve"/>
      <point x="53" y="87"/>
      <point x="48" y="89"/>
      <point x="40" y="89" type="curve"/>
      <point x="35" y="89"/>
      <point x="31" y="88"/>
      <point x="29" y="86" type="curve"/>
      <point x="29" y="65"/>
      <point x="34" y="29"/>
      <point x="40" y="7" type="curve"/>
      <point x="73" y="2"/>
      <point x="94" y="-7"/>
      <point x="133" y="-7" type="curve"/>
      <point x="202" y="-7"/>
      <point x="254" y="38"/>
      <point x="254" y="89" type="curve"/>
      <point x="254" y="119"/>
      <point x="231" y="144"/>
      <point x="163" y="177" type="curve"/>
      <point x="111" y="202"/>
      <point x="99" y="216"/>
      <point x="99" y="236" type="curve"/>
      <point x="99" y="261"/>
      <point x="121" y="275"/>
      <point x="148" y="275" type="curve"/>
      <point x="179" y="275"/>
      <point x="202" y="259"/>
      <point x="212" y="219" type="curve"/>
      <point x="213" y="215"/>
      <point x="218" y="214"/>
      <point x="225" y="214" type="curve"/>
      <point x="234" y="214"/>
      <point x="237" y="215"/>
      <point x="237" y="218" type="curve"/>
      <point x="237" y="247"/>
      <point x="234" y="271"/>
      <point x="229" y="293" type="curve"/>
      <point x="202" y="300"/>
      <point x="182" y="303"/>
    </contour>
    <contour>
      <point x="139" y="0" type="move" name="bottom"/>
    </contour>
    <contour>
      <point x="139" y="298" type="move" name="top"/>
    </contour>
  </outline>
</glyph>
<glyph name="t" format="1">
  <advance width="250"/>
  <unicode hex="0074"/>
  <outline>
    <contour>
      <point x="19" y="256" type="curve"/>
      <point x="64" y="256" type="line"/>
      <point x="64" y="73" type="line" smooth="yes"/>
      <point x="64" y="29"/>
      <point x="95" y="-5"/>
      <point x="155" y="-5" type="curve"/>
      <point x="190" y="-5"/>
      <point x="226" y="14"/>
      <point x="242" y="29" type="curve"/>
      <point x="241" y="33"/>
      <point x="235" y="46"/>
      <point x="231" y="49" type="curve"/>
      <point x="219" y="41"/>
      <point x="201" y="35"/>
      <point x="186" y="35" type="curve"/>
      <point x="151" y="35"/>
      <point x="133" y="60"/>
      <point x="133" y="96" type="curve"/>
      <point x="133" y="256" type="line"/>
      <point x="231" y="256" type="line"/>
      <point x="236" y="265"/>
      <point x="238" y="275"/>
      <point x="238" y="285" type="curve"/>
      <point x="238" y="289"/>
      <point x="236" y="292"/>
      <point x="232" y="292" type="curve"/>
      <point x="133" y="292" type="line"/>
      <point x="133" y="360" type="line" smooth="yes"/>
      <point x="132" y="362"/>
      <point x="122" y="366"/>
      <point x="109" y="366" type="curve"/>
      <point x="86" y="332"/>
      <point x="52" y="295"/>
      <point x="15" y="279" type="curve"/>
      <point x="15" y="278"/>
      <point x="14" y="276"/>
      <point x="14" y="273" type="curve"/>
      <point x="14" y="262"/>
      <point x="16" y="256"/>
    </contour>
    <contour>
      <point x="153" y="0" type="move" name="bottom"/>
    </contour>
    <contour>
      <point x="120" y="185" type="move" name="center"/>
    </contour>
    <contour>
      <point x="99" y="346" type="move" name="top"/>
    </contour>
    <contour>
      <point x="161" y="298" type="move" name="topright"/>
    </contour>
  </outline>
</glyph>
<glyph name="u" format="1">
  <advance width="408"/>
  <unicode hex="0075"/>
  <outline>
    <contour>
      <point x="349" y="54" type="curve"/>
      <point x="342" y="62"/>
      <point x="338" y="75"/>
      <point x="338" y="96" type="curve"/>
      <point x="338" y="209" type="line" smooth="yes"/>
      <point x="338" y="256"/>
      <point x="342" y="283"/>
      <point x="342" y="295" type="curve"/>
      <point x="342" y="298"/>
      <point x="340" y="301"/>
      <point x="337" y="301" type="curve"/>
      <point x="333" y="301"/>
      <point x="327" y="299"/>
      <point x="322" y="297" type="curve"/>
      <point x="297" y="291"/>
      <point x="259" y="283"/>
      <point x="218" y="280" type="curve"/>
      <point x="216" y="278"/>
      <point x="215" y="270"/>
      <point x="215" y="259" type="curve"/>
      <point x="233" y="258"/>
      <point x="249" y="253"/>
      <point x="257" y="244" type="curve"/>
      <point x="264" y="237"/>
      <point x="268" y="223"/>
      <point x="268" y="203" type="curve"/>
      <point x="268" y="93" type="line" smooth="yes"/>
      <point x="268" y="67"/>
      <point x="237" y="43"/>
      <point x="201" y="43" type="curve"/>
      <point x="160" y="43"/>
      <point x="136" y="69"/>
      <point x="136" y="116" type="curve"/>
      <point x="136" y="209" type="line" smooth="yes"/>
      <point x="136" y="256"/>
      <point x="141" y="283"/>
      <point x="141" y="295" type="curve"/>
      <point x="141" y="298"/>
      <point x="138" y="301"/>
      <point x="136" y="301" type="curve"/>
      <point x="132" y="301"/>
      <point x="126" y="299"/>
      <point x="120" y="297" type="curve"/>
      <point x="95" y="291"/>
      <point x="58" y="284"/>
      <point x="16" y="280" type="curve"/>
      <point x="15" y="278"/>
      <point x="14" y="270"/>
      <point x="14" y="259" type="curve"/>
      <point x="31" y="258"/>
      <point x="47" y="253"/>
      <point x="55" y="244" type="curve"/>
      <point x="63" y="237"/>
      <point x="67" y="223"/>
      <point x="67" y="203" type="curve"/>
      <point x="67" y="116" type="line" smooth="yes"/>
      <point x="67" y="34"/>
      <point x="101" y="-5"/>
      <point x="164" y="-5" type="curve"/>
      <point x="198" y="-5"/>
      <point x="239" y="17"/>
      <point x="268" y="42" type="curve"/>
      <point x="266" y="19"/>
      <point x="264" y="8"/>
      <point x="264" y="3" type="curve"/>
      <point x="264" y="0"/>
      <point x="266" y="-2"/>
      <point x="269" y="-2" type="curve"/>
      <point x="273" y="-2"/>
      <point x="279" y="0"/>
      <point x="285" y="1" type="curve"/>
      <point x="309" y="7"/>
      <point x="347" y="15"/>
      <point x="388" y="19" type="curve"/>
      <point x="390" y="21"/>
      <point x="391" y="28"/>
      <point x="391" y="40" type="curve"/>
      <point x="373" y="40"/>
      <point x="357" y="46"/>
    </contour>
    <contour>
      <point x="204" y="0" type="move" name="bottom"/>
    </contour>
    <contour>
      <point x="382" y="7" type="move" name="ogonek"/>
    </contour>
    <contour>
      <point x="204" y="298" type="move" name="top"/>
    </contour>
    <contour>
      <point x="397" y="297" type="move" name="topright"/>
    </contour>
  </outline>
</glyph>
<glyph name="v" format="1">
  <advance width="371"/>
  <unicode hex="0076"/>
  <outline>
    <contour>
      <point x="182" y="-8" type="curve"/>
      <point x="189" y="-8"/>
      <point x="195" y="-3"/>
      <point x="202" y="10" type="curve"/>
      <point x="324" y="254" type="line" smooth="yes"/>
      <point x="332" y="270"/>
      <point x="357" y="278"/>
      <point x="377" y="279" type="curve"/>
      <point x="380" y="279"/>
      <point x="382" y="283"/>
      <point x="382" y="290" type="curve"/>
      <point x="382" y="295"/>
      <point x="381" y="298"/>
      <point x="380" y="301" type="curve"/>
      <point x="354" y="299"/>
      <point x="326" y="297"/>
      <point x="303" y="297" type="curve"/>
      <point x="281" y="297"/>
      <point x="243" y="299"/>
      <point x="228" y="301" type="curve"/>
      <point x="226" y="298"/>
      <point x="225" y="294"/>
      <point x="225" y="288" type="curve"/>
      <point x="225" y="282"/>
      <point x="226" y="279"/>
      <point x="228" y="279" type="curve"/>
      <point x="265" y="278"/>
      <point x="280" y="271"/>
      <point x="280" y="257" type="curve"/>
      <point x="280" y="251"/>
      <point x="278" y="244"/>
      <point x="274" y="236" type="curve"/>
      <point x="204" y="90" type="line"/>
      <point x="127" y="255" type="line" smooth="yes"/>
      <point x="125" y="258"/>
      <point x="123" y="263"/>
      <point x="123" y="266" type="curve"/>
      <point x="123" y="273"/>
      <point x="135" y="278"/>
      <point x="164" y="279" type="curve"/>
      <point x="166" y="279"/>
      <point x="167" y="284"/>
      <point x="167" y="291" type="curve"/>
      <point x="167" y="295"/>
      <point x="166" y="299"/>
      <point x="165" y="301" type="curve"/>
      <point x="143" y="299"/>
      <point x="107" y="296"/>
      <point x="83" y="296" type="curve"/>
      <point x="63" y="296"/>
      <point x="34" y="298"/>
      <point x="-3" y="301" type="curve"/>
      <point x="-5" y="298"/>
      <point x="-6" y="295"/>
      <point x="-6" y="289" type="curve"/>
      <point x="-6" y="282"/>
      <point x="-5" y="279"/>
      <point x="-3" y="279" type="curve"/>
      <point x="21" y="279"/>
      <point x="39" y="272"/>
      <point x="48" y="254" type="curve"/>
      <point x="169" y="2" type="line" smooth="yes"/>
      <point x="172" y="-5"/>
      <point x="177" y="-8"/>
    </contour>
    <contour>
      <point x="185" y="0" type="move" name="bottom"/>
    </contour>
    <contour>
      <point x="185" y="298" type="move" name="top"/>
    </contour>
  </outline>
</glyph>
<glyph name="w" format="1">
  <advance width="564"/>
  <unicode hex="0077"/>
  <outline>
    <contour>
      <point x="179" y="-8" type="curve"/>
      <point x="185" y="-8"/>
      <point x="192" y="-3"/>
      <point x="198" y="10" type="curve"/>
      <point x="307" y="233" type="line"/>
      <point x="273" y="243" type="line"/>
      <point x="200" y="90" type="line"/>
      <point x="127" y="255" type="line" smooth="yes"/>
      <point x="126" y="258"/>
      <point x="124" y="263"/>
      <point x="124" y="266" type="curve"/>
      <point x="124" y="273"/>
      <point x="138" y="279"/>
      <point x="162" y="279" type="curve"/>
      <point x="164" y="279"/>
      <point x="165" y="284"/>
      <point x="165" y="291" type="curve"/>
      <point x="165" y="295"/>
      <point x="164" y="299"/>
      <point x="163" y="301" type="curve"/>
      <point x="141" y="299"/>
      <point x="108" y="296"/>
      <point x="84" y="296" type="curve"/>
      <point x="64" y="296"/>
      <point x="35" y="298"/>
      <point x="-2" y="301" type="curve"/>
      <point x="-5" y="298"/>
      <point x="-5" y="295"/>
      <point x="-5" y="289" type="curve"/>
      <point x="-5" y="282"/>
      <point x="-5" y="279"/>
      <point x="-2" y="279" type="curve"/>
      <point x="22" y="279"/>
      <point x="40" y="272"/>
      <point x="48" y="254" type="curve"/>
      <point x="165" y="2" type="line" smooth="yes"/>
      <point x="169" y="-5"/>
      <point x="174" y="-8"/>
    </contour>
    <contour>
      <point x="380" y="-8" type="curve"/>
      <point x="387" y="-8"/>
      <point x="393" y="-3"/>
      <point x="400" y="10" type="curve"/>
      <point x="517" y="254" type="line" smooth="yes"/>
      <point x="524" y="270"/>
      <point x="550" y="279"/>
      <point x="570" y="279" type="curve"/>
      <point x="573" y="279"/>
      <point x="575" y="283"/>
      <point x="575" y="290" type="curve"/>
      <point x="575" y="295"/>
      <point x="574" y="298"/>
      <point x="573" y="301" type="curve"/>
      <point x="547" y="299"/>
      <point x="519" y="297"/>
      <point x="496" y="297" type="curve"/>
      <point x="474" y="297"/>
      <point x="436" y="299"/>
      <point x="421" y="301" type="curve"/>
      <point x="419" y="298"/>
      <point x="418" y="294"/>
      <point x="418" y="288" type="curve"/>
      <point x="418" y="282"/>
      <point x="419" y="279"/>
      <point x="421" y="279" type="curve"/>
      <point x="458" y="278"/>
      <point x="473" y="271"/>
      <point x="473" y="257" type="curve"/>
      <point x="473" y="251"/>
      <point x="471" y="244"/>
      <point x="467" y="236" type="curve"/>
      <point x="402" y="90" type="line"/>
      <point x="330" y="255" type="line" smooth="yes"/>
      <point x="329" y="258"/>
      <point x="327" y="263"/>
      <point x="327" y="266" type="curve"/>
      <point x="327" y="273"/>
      <point x="339" y="279"/>
      <point x="367" y="279" type="curve"/>
      <point x="369" y="279"/>
      <point x="370" y="284"/>
      <point x="370" y="291" type="curve"/>
      <point x="370" y="295"/>
      <point x="370" y="299"/>
      <point x="368" y="301" type="curve"/>
      <point x="346" y="299"/>
      <point x="310" y="296"/>
      <point x="286" y="296" type="curve"/>
      <point x="266" y="296"/>
      <point x="236" y="298"/>
      <point x="203" y="301" type="curve"/>
      <point x="201" y="298"/>
      <point x="200" y="295"/>
      <point x="200" y="289" type="curve"/>
      <point x="200" y="282"/>
      <point x="201" y="279"/>
      <point x="203" y="279" type="curve"/>
      <point x="226" y="277"/>
      <point x="242" y="272"/>
      <point x="251" y="254" type="curve"/>
      <point x="367" y="2" type="line" smooth="yes"/>
      <point x="370" y="-5"/>
      <point x="375" y="-8"/>
    </contour>
    <contour>
      <point x="283" y="0" type="move" name="bottom"/>
    </contour>
    <contour>
      <point x="283" y="298" type="move" name="top"/>
    </contour>
  </outline>
</glyph>
<glyph name="x" format="1">
  <advance width="366"/>
  <unicode hex="0078"/>
  <outline>
    <contour>
      <point x="199" y="-2" type="curve"/>
      <point x="234" y="0"/>
      <point x="270" y="2"/>
      <point x="288" y="2" type="curve"/>
      <point x="305" y="2"/>
      <point x="337" y="0"/>
      <point x="366" y="-2" type="curve"/>
      <point x="369" y="0"/>
      <point x="369" y="3"/>
      <point x="369" y="8" type="curve"/>
      <point x="369" y="15"/>
      <point x="369" y="19"/>
      <point x="367" y="19" type="curve"/>
      <point x="340" y="22"/>
      <point x="320" y="32"/>
      <point x="305" y="51" type="curve"/>
      <point x="147" y="256" type="line" smooth="yes"/>
      <point x="144" y="260"/>
      <point x="143" y="263"/>
      <point x="143" y="266" type="curve"/>
      <point x="143" y="274"/>
      <point x="155" y="279"/>
      <point x="174" y="279" type="curve"/>
      <point x="175" y="279"/>
      <point x="176" y="283"/>
      <point x="176" y="291" type="curve"/>
      <point x="176" y="295"/>
      <point x="176" y="298"/>
      <point x="175" y="301" type="curve"/>
      <point x="131" y="298"/>
      <point x="103" y="297"/>
      <point x="90" y="297" type="curve"/>
      <point x="77" y="297"/>
      <point x="51" y="298"/>
      <point x="9" y="301" type="curve"/>
      <point x="8" y="298"/>
      <point x="7" y="295"/>
      <point x="7" y="290" type="curve"/>
      <point x="7" y="285"/>
      <point x="8" y="281"/>
      <point x="9" y="279" type="curve"/>
      <point x="26" y="279"/>
      <point x="57" y="267"/>
      <point x="67" y="254" type="curve"/>
      <point x="227" y="43" type="line" smooth="yes"/>
      <point x="230" y="40"/>
      <point x="232" y="35"/>
      <point x="232" y="32" type="curve"/>
      <point x="232" y="26"/>
      <point x="219" y="21"/>
      <point x="200" y="19" type="curve"/>
      <point x="199" y="19"/>
      <point x="198" y="15"/>
      <point x="198" y="6" type="curve"/>
      <point x="198" y="5"/>
      <point x="199" y="3"/>
    </contour>
    <contour>
      <point x="3" y="-2" type="curve"/>
      <point x="32" y="0"/>
      <point x="65" y="2"/>
      <point x="82" y="2" type="curve"/>
      <point x="101" y="2"/>
      <point x="134" y="-1"/>
      <point x="160" y="-2" type="curve"/>
      <point x="162" y="0"/>
      <point x="163" y="3"/>
      <point x="163" y="8" type="curve"/>
      <point x="163" y="15"/>
      <point x="162" y="19"/>
      <point x="161" y="19" type="curve"/>
      <point x="134" y="22"/>
      <point x="118" y="27"/>
      <point x="118" y="35" type="curve"/>
      <point x="118" y="39"/>
      <point x="120" y="44"/>
      <point x="123" y="48" type="curve"/>
      <point x="176" y="120" type="line"/>
      <point x="158" y="148" type="line"/>
      <point x="70" y="47" type="line" smooth="yes"/>
      <point x="60" y="34"/>
      <point x="35" y="24"/>
      <point x="5" y="19" type="curve"/>
      <point x="2" y="19"/>
      <point x="2" y="16"/>
      <point x="2" y="8" type="curve"/>
      <point x="2" y="5"/>
      <point x="2" y="1"/>
    </contour>
    <contour>
      <point x="191" y="187" type="line"/>
      <point x="212" y="164" type="line"/>
      <point x="293" y="257" type="line" smooth="yes"/>
      <point x="303" y="268"/>
      <point x="325" y="275"/>
      <point x="359" y="279" type="curve"/>
      <point x="360" y="279"/>
      <point x="361" y="283"/>
      <point x="361" y="290" type="curve"/>
      <point x="361" y="293"/>
      <point x="360" y="296"/>
      <point x="359" y="301" type="curve"/>
      <point x="323" y="298"/>
      <point x="298" y="297"/>
      <point x="285" y="297" type="curve"/>
      <point x="272" y="297"/>
      <point x="245" y="298"/>
      <point x="202" y="301" type="curve"/>
      <point x="200" y="298"/>
      <point x="199" y="295"/>
      <point x="199" y="290" type="curve"/>
      <point x="199" y="283"/>
      <point x="200" y="279"/>
      <point x="202" y="279" type="curve"/>
      <point x="230" y="277"/>
      <point x="244" y="276"/>
      <point x="244" y="266" type="curve"/>
      <point x="244" y="262"/>
      <point x="241" y="254"/>
      <point x="235" y="246" type="curve"/>
    </contour>
    <contour>
      <point x="183" y="0" type="move" name="bottom"/>
    </contour>
    <contour>
      <point x="183" y="298" type="move" name="top"/>
    </contour>
  </outline>
</glyph>
<glyph name="y" format="1">
  <advance width="371"/>
  <unicode hex="0079"/>
  <outline>
    <contour>
      <point x="274" y="236" type="curve"/>
      <point x="193" y="69" type="line"/>
      <point x="172" y="29" type="line"/>
      <point x="133" y="-42" type="line" smooth="yes"/>
      <point x="116" y="-71"/>
      <point x="98" y="-84"/>
      <point x="52" y="-94" type="curve"/>
      <point x="33" y="-98"/>
      <point x="24" y="-108"/>
      <point x="24" y="-123" type="curve"/>
      <point x="24" y="-142"/>
      <point x="40" y="-154"/>
      <point x="64" y="-154" type="curve"/>
      <point x="103" y="-154"/>
      <point x="134" y="-126"/>
      <point x="166" y="-63" type="curve"/>
      <point x="324" y="254" type="line" smooth="yes"/>
      <point x="332" y="269"/>
      <point x="351" y="278"/>
      <point x="379" y="279" type="curve"/>
      <point x="381" y="279"/>
      <point x="382" y="282"/>
      <point x="382" y="290" type="curve"/>
      <point x="382" y="293"/>
      <point x="381" y="296"/>
      <point x="380" y="301" type="curve"/>
      <point x="364" y="299"/>
      <point x="323" y="297"/>
      <point x="304" y="297" type="curve"/>
      <point x="280" y="297"/>
      <point x="240" y="300"/>
      <point x="227" y="301" type="curve"/>
      <point x="226" y="298"/>
      <point x="225" y="294"/>
      <point x="225" y="289" type="curve"/>
      <point x="225" y="282"/>
      <point x="226" y="279"/>
      <point x="228" y="279" type="curve"/>
      <point x="264" y="278"/>
      <point x="280" y="271"/>
      <point x="280" y="257" type="curve"/>
      <point x="280" y="252"/>
      <point x="278" y="246"/>
    </contour>
    <contour>
      <point x="48" y="254" type="curve"/>
      <point x="173" y="-7" type="line"/>
      <point x="209" y="78" type="line"/>
      <point x="127" y="255" type="line" smooth="yes"/>
      <point x="125" y="259"/>
      <point x="123" y="264"/>
      <point x="123" y="266" type="curve"/>
      <point x="123" y="274"/>
      <point x="137" y="278"/>
      <point x="164" y="279" type="curve"/>
      <point x="166" y="279"/>
      <point x="167" y="283"/>
      <point x="167" y="291" type="curve"/>
      <point x="167" y="296"/>
      <point x="167" y="298"/>
      <point x="165" y="301" type="curve"/>
      <point x="149" y="299"/>
      <point x="106" y="296"/>
      <point x="83" y="296" type="curve"/>
      <point x="72" y="296"/>
      <point x="42" y="298"/>
      <point x="-3" y="301" type="curve"/>
      <point x="-5" y="298"/>
      <point x="-6" y="295"/>
      <point x="-6" y="289" type="curve"/>
      <point x="-6" y="282"/>
      <point x="-5" y="279"/>
      <point x="-3" y="279" type="curve"/>
      <point x="23" y="279"/>
      <point x="40" y="271"/>
    </contour>
    <contour>
      <point x="260" y="0" type="move" name="bottom"/>
    </contour>
    <contour>
      <point x="186" y="298" type="move" name="top"/>
    </contour>
  </outline>
</glyph>
<glyph name="z" format="1">
  <advance width="315"/>
  <unicode hex="007A"/>
  <outline>
    <contour>
      <point x="208" y="31" type="curve"/>
      <point x="100" y="31" type="line"/>
      <point x="104" y="24" type="line"/>
      <point x="299" y="286" type="line"/>
      <point x="299" y="294"/>
      <point x="298" y="300"/>
      <point x="297" y="302" type="curve"/>
      <point x="264" y="299"/>
      <point x="233" y="297"/>
      <point x="205" y="297" type="curve"/>
      <point x="109" y="297" type="line" smooth="yes"/>
      <point x="91" y="297"/>
      <point x="67" y="298"/>
      <point x="38" y="301" type="curve"/>
      <point x="37" y="287"/>
      <point x="35" y="271"/>
      <point x="31" y="249" type="curve"/>
      <point x="28" y="231"/>
      <point x="26" y="217"/>
      <point x="26" y="214" type="curve"/>
      <point x="26" y="213"/>
      <point x="31" y="211"/>
      <point x="37" y="211" type="curve"/>
      <point x="46" y="211"/>
      <point x="51" y="212"/>
      <point x="53" y="215" type="curve"/>
      <point x="65" y="256"/>
      <point x="76" y="266"/>
      <point x="104" y="266" type="curve"/>
      <point x="226" y="266" type="line"/>
      <point x="218" y="284" type="line"/>
      <point x="22" y="19" type="line"/>
      <point x="22" y="18"/>
      <point x="22" y="17"/>
      <point x="22" y="16" type="curve"/>
      <point x="22" y="10"/>
      <point x="24" y="5"/>
      <point x="30" y="0" type="curve"/>
      <point x="213" y="0" type="line" smooth="yes"/>
      <point x="238" y="0"/>
      <point x="261" y="-1"/>
      <point x="291" y="-3" type="curve"/>
      <point x="306" y="87" type="line"/>
      <point x="303" y="91"/>
      <point x="296" y="94"/>
      <point x="286" y="94" type="curve"/>
      <point x="282" y="94"/>
      <point x="279" y="92"/>
      <point x="278" y="87" type="curve"/>
      <point x="265" y="46"/>
      <point x="246" y="31"/>
    </contour>
    <contour>
      <point x="158" y="0" type="move" name="bottom"/>
    </contour>
    <contour>
      <point x="158" y="149" type="move" name="center"/>
    </contour>
    <contour>
      <point x="158" y="298" type="move" name="top"/>
    </contour>
  </outline>
</glyph>
<glyph name="braceleft" format="1">
  <advance width="242"/>
  <unicode hex="007B"/>
  <outline>
    <contour>
      <point x="127" y="1" type="curve"/>
      <point x="127" y="54"/>
      <point x="162" y="94"/>
      <point x="162" y="136" type="curve"/>
      <point x="162" y="178"/>
      <point x="133" y="209"/>
      <point x="84" y="213" type="curve"/>
      <point x="133" y="217"/>
      <point x="162" y="248"/>
      <point x="162" y="290" type="curve"/>
      <point x="162" y="332"/>
      <point x="127" y="371"/>
      <point x="127" y="424" type="curve"/>
      <point x="127" y="468"/>
      <point x="165" y="489"/>
      <point x="204" y="491" type="curve"/>
      <point x="206" y="494"/>
      <point x="207" y="498"/>
      <point x="207" y="503" type="curve"/>
      <point x="207" y="507"/>
      <point x="206" y="511"/>
      <point x="204" y="513" type="curve"/>
      <point x="125" y="508"/>
      <point x="73" y="467"/>
      <point x="73" y="406" type="curve"/>
      <point x="73" y="354"/>
      <point x="111" y="303"/>
      <point x="111" y="275" type="curve"/>
      <point x="111" y="238"/>
      <point x="82" y="226"/>
      <point x="40" y="224" type="curve"/>
      <point x="38" y="220"/>
      <point x="37" y="216"/>
      <point x="37" y="213" type="curve"/>
      <point x="37" y="209"/>
      <point x="38" y="205"/>
      <point x="40" y="201" type="curve"/>
      <point x="82" y="200"/>
      <point x="111" y="187"/>
      <point x="111" y="151" type="curve"/>
      <point x="111" y="122"/>
      <point x="73" y="72"/>
      <point x="73" y="19" type="curve"/>
      <point x="73" y="-41"/>
      <point x="125" y="-83"/>
      <point x="204" y="-88" type="curve"/>
      <point x="206" y="-86"/>
      <point x="207" y="-82"/>
      <point x="207" y="-78" type="curve"/>
      <point x="207" y="-73"/>
      <point x="206" y="-69"/>
      <point x="204" y="-66" type="curve"/>
      <point x="165" y="-64"/>
      <point x="127" y="-43"/>
    </contour>
  </outline>
</glyph>
<glyph name="braceright" format="1">
  <advance width="242"/>
  <unicode hex="007D"/>
  <outline>
    <contour>
      <point x="115" y="1" type="curve"/>
      <point x="115" y="-43"/>
      <point x="77" y="-64"/>
      <point x="38" y="-66" type="curve"/>
      <point x="36" y="-69"/>
      <point x="35" y="-73"/>
      <point x="35" y="-78" type="curve"/>
      <point x="35" y="-82"/>
      <point x="36" y="-86"/>
      <point x="38" y="-88" type="curve"/>
      <point x="117" y="-83"/>
      <point x="169" y="-41"/>
      <point x="169" y="19" type="curve"/>
      <point x="169" y="72"/>
      <point x="131" y="122"/>
      <point x="131" y="151" type="curve"/>
      <point x="131" y="187"/>
      <point x="160" y="200"/>
      <point x="202" y="201" type="curve"/>
      <point x="204" y="205"/>
      <point x="205" y="209"/>
      <point x="205" y="213" type="curve"/>
      <point x="205" y="216"/>
      <point x="204" y="220"/>
      <point x="202" y="224" type="curve"/>
      <point x="160" y="226"/>
      <point x="131" y="238"/>
      <point x="131" y="275" type="curve"/>
      <point x="131" y="303"/>
      <point x="169" y="354"/>
      <point x="169" y="406" type="curve"/>
      <point x="169" y="467"/>
      <point x="117" y="508"/>
      <point x="38" y="513" type="curve"/>
      <point x="36" y="511"/>
      <point x="35" y="507"/>
      <point x="35" y="503" type="curve"/>
      <point x="35" y="498"/>
      <point x="36" y="494"/>
      <point x="38" y="491" type="curve"/>
      <point x="77" y="489"/>
      <point x="115" y="468"/>
      <point x="115" y="424" type="curve"/>
      <point x="115" y="371"/>
      <point x="80" y="332"/>
      <point x="80" y="290" type="curve"/>
      <point x="80" y="248"/>
      <point x="108" y="217"/>
      <point x="158" y="213" type="curve"/>
      <point x="108" y="209"/>
      <point x="80" y="178"/>
      <point x="80" y="136" type="curve"/>
      <point x="80" y="94"/>
      <point x="115" y="54"/>
    </contour>
  </outline>
</glyph>
<glyph name="asciitilde" format="1">
  <advance width="436"/>
  <unicode hex="007E"/>
  <outline>
    <contour>
      <point x="37" y="148" type="curve"/>
      <point x="52" y="134" type="line"/>
      <point x="74" y="156"/>
      <point x="99" y="169"/>
      <point x="131" y="169" type="curve"/>
      <point x="187" y="169"/>
      <point x="233" y="131"/>
      <point x="294" y="131" type="curve"/>
      <point x="336" y="131"/>
      <point x="379" y="155"/>
      <point x="399" y="190" type="curve"/>
      <point x="384" y="204" type="line"/>
      <point x="362" y="182"/>
      <point x="337" y="169"/>
      <point x="305" y="169" type="curve"/>
      <point x="248" y="169"/>
      <point x="203" y="208"/>
      <point x="142" y="208" type="curve"/>
      <point x="99" y="208"/>
      <point x="57" y="184"/>
    </contour>
  </outline>
</glyph>
<glyph name="exclamdown" format="1">
  <advance width="167"/>
  <unicode hex="00A1"/>
  <outline>
    <contour>
      <point x="83" y="182" type="curve"/>
      <point x="74" y="182"/>
      <point x="70" y="176"/>
      <point x="68" y="164" type="curve"/>
      <point x="59" y="97"/>
      <point x="43" y="-68"/>
      <point x="43" y="-108" type="curve"/>
      <point x="43" y="-134"/>
      <point x="61" y="-149"/>
      <point x="84" y="-149" type="curve"/>
      <point x="104" y="-149"/>
      <point x="123" y="-134"/>
      <point x="123" y="-108" type="curve"/>
      <point x="123" y="-68"/>
      <point x="105" y="97"/>
      <point x="97" y="163" type="curve"/>
      <point x="95" y="176"/>
      <point x="90" y="182"/>
    </contour>
    <contour>
      <point x="84" y="302" type="curve"/>
      <point x="56" y="302"/>
      <point x="37" y="281"/>
      <point x="37" y="258" type="curve"/>
      <point x="37" y="235"/>
      <point x="56" y="215"/>
      <point x="83" y="215" type="curve"/>
      <point x="109" y="215"/>
      <point x="130" y="234"/>
      <point x="130" y="258" type="curve"/>
      <point x="130" y="281"/>
      <point x="109" y="302"/>
    </contour>
  </outline>
</glyph>
<glyph name="sterling" format="1">
  <advance width="369"/>
  <unicode hex="00A3"/>
  <outline>
    <contour>
      <point x="240" y="458" type="curve"/>
      <point x="146" y="458"/>
      <point x="77" y="404"/>
      <point x="77" y="328" type="curve"/>
      <point x="77" y="272"/>
      <point x="108" y="205"/>
      <point x="108" y="142" type="curve"/>
      <point x="108" y="84"/>
      <point x="92" y="56"/>
      <point x="35" y="9" type="curve"/>
      <point x="35" y="3"/>
      <point x="41" y="-5"/>
      <point x="51" y="-6" type="curve"/>
      <point x="85" y="11"/>
      <point x="104" y="19"/>
      <point x="124" y="19" type="curve"/>
      <point x="151" y="19"/>
      <point x="227" y="-6"/>
      <point x="264" y="-6" type="curve"/>
      <point x="308" y="-6"/>
      <point x="348" y="34"/>
      <point x="357" y="82" type="curve"/>
      <point x="352" y="90"/>
      <point x="345" y="96"/>
      <point x="338" y="96" type="curve"/>
      <point x="328" y="69"/>
      <point x="308" y="46"/>
      <point x="284" y="46" type="curve"/>
      <point x="260" y="46"/>
      <point x="206" y="68"/>
      <point x="172" y="68" type="curve"/>
      <point x="150" y="68"/>
      <point x="134" y="66"/>
      <point x="123" y="62" type="curve"/>
      <point x="153" y="98"/>
      <point x="171" y="137"/>
      <point x="171" y="173" type="curve"/>
      <point x="171" y="227"/>
      <point x="140" y="304"/>
      <point x="140" y="352" type="curve"/>
      <point x="140" y="402"/>
      <point x="164" y="427"/>
      <point x="207" y="427" type="curve"/>
      <point x="257" y="427"/>
      <point x="273" y="386"/>
      <point x="303" y="386" type="curve"/>
      <point x="322" y="386"/>
      <point x="332" y="399"/>
      <point x="332" y="418" type="curve"/>
      <point x="332" y="444"/>
      <point x="296" y="458"/>
    </contour>
    <contour>
      <point x="276" y="244" type="line"/>
      <point x="19" y="244" type="line"/>
      <point x="19" y="210" type="line"/>
      <point x="276" y="210" type="line"/>
    </contour>
  </outline>
</glyph>
<glyph name="currency" format="1">
  <advance width="348"/>
  <unicode hex="00A4"/>
  <outline>
    <contour>
      <point x="180" y="107" type="curve"/>
      <point x="134" y="107"/>
      <point x="99" y="155"/>
      <point x="99" y="223" type="curve"/>
      <point x="99" y="273"/>
      <point x="125" y="316"/>
      <point x="167" y="316" type="curve"/>
      <point x="212" y="316"/>
      <point x="247" y="267"/>
      <point x="247" y="199" type="curve"/>
      <point x="247" y="150"/>
      <point x="221" y="107"/>
    </contour>
    <contour>
      <point x="300" y="351" type="curve"/>
      <point x="258" y="315" type="line"/>
      <point x="233" y="332"/>
      <point x="205" y="341"/>
      <point x="174" y="341" type="curve"/>
      <point x="145" y="341"/>
      <point x="120" y="335"/>
      <point x="97" y="320" type="curve"/>
      <point x="59" y="358" type="line"/>
      <point x="45" y="354"/>
      <point x="18" y="336"/>
      <point x="25" y="329" type="curve"/>
      <point x="63" y="291" type="line"/>
      <point x="44" y="268"/>
      <point x="34" y="241"/>
      <point x="34" y="211" type="curve"/>
      <point x="34" y="186"/>
      <point x="42" y="162"/>
      <point x="57" y="141" type="curve"/>
      <point x="18" y="106" type="line"/>
      <point x="21" y="93"/>
      <point x="41" y="68"/>
      <point x="49" y="75" type="curve"/>
      <point x="88" y="109" type="line"/>
      <point x="113" y="91"/>
      <point x="142" y="82"/>
      <point x="174" y="82" type="curve"/>
      <point x="203" y="82"/>
      <point x="229" y="90"/>
      <point x="252" y="105" type="curve"/>
      <point x="290" y="68" type="line"/>
      <point x="304" y="72"/>
      <point x="331" y="90"/>
      <point x="323" y="97" type="curve"/>
      <point x="285" y="135" type="line"/>
      <point x="303" y="158"/>
      <point x="312" y="183"/>
      <point x="312" y="211" type="curve"/>
      <point x="312" y="237"/>
      <point x="304" y="261"/>
      <point x="289" y="283" type="curve"/>
      <point x="331" y="320" type="line"/>
      <point x="327" y="333"/>
      <point x="307" y="358"/>
    </contour>
  </outline>
</glyph>
<glyph name="yen" format="1">
  <advance width="455"/>
  <unicode hex="00A5"/>
  <outline>
    <contour>
      <point x="134" y="-2" type="curve"/>
      <point x="175" y="0"/>
      <point x="212" y="2"/>
      <point x="228" y="2" type="curve"/>
      <point x="237" y="2"/>
      <point x="277" y="0"/>
      <point x="318" y="-2" type="curve"/>
      <point x="319" y="1"/>
      <point x="319" y="5"/>
      <point x="319" y="8" type="curve"/>
      <point x="319" y="15"/>
      <point x="319" y="18"/>
      <point x="316" y="18" type="curve"/>
      <point x="303" y="18"/>
      <point x="272" y="29"/>
      <point x="271" y="34" type="curve"/>
      <point x="267" y="49"/>
      <point x="265" y="70"/>
      <point x="265" y="97" type="curve"/>
      <point x="265" y="203" type="line" smooth="yes"/>
      <point x="265" y="208"/>
      <point x="272" y="221"/>
      <point x="283" y="239" type="curve"/>
      <point x="372" y="375" type="line" smooth="yes"/>
      <point x="383" y="390"/>
      <point x="392" y="403"/>
      <point x="399" y="413" type="curve"/>
      <point x="408" y="423"/>
      <point x="440" y="435"/>
      <point x="459" y="435" type="curve"/>
      <point x="461" y="435"/>
      <point x="462" y="438"/>
      <point x="462" y="444" type="curve"/>
      <point x="462" y="449"/>
      <point x="461" y="452"/>
      <point x="460" y="455" type="curve"/>
      <point x="440" y="455"/>
      <point x="398" y="451"/>
      <point x="380" y="451" type="curve"/>
      <point x="372" y="451"/>
      <point x="343" y="453"/>
      <point x="291" y="455" type="curve"/>
      <point x="289" y="454"/>
      <point x="288" y="450"/>
      <point x="288" y="444" type="curve"/>
      <point x="288" y="438"/>
      <point x="289" y="435"/>
      <point x="292" y="435" type="curve"/>
      <point x="319" y="435"/>
      <point x="342" y="426"/>
      <point x="342" y="414" type="curve"/>
      <point x="342" y="407"/>
      <point x="335" y="390"/>
      <point x="323" y="372" type="curve"/>
      <point x="251" y="260" type="line"/>
      <point x="249" y="257"/>
      <point x="246" y="255"/>
      <point x="243" y="255" type="curve"/>
      <point x="242" y="255"/>
      <point x="240" y="257"/>
      <point x="238" y="259" type="curve"/>
      <point x="159" y="395" type="line"/>
      <point x="154" y="403"/>
      <point x="151" y="410"/>
      <point x="151" y="414" type="curve"/>
      <point x="152" y="425"/>
      <point x="172" y="435"/>
      <point x="194" y="435" type="curve"/>
      <point x="196" y="435"/>
      <point x="197" y="441"/>
      <point x="197" y="447" type="curve"/>
      <point x="197" y="450"/>
      <point x="197" y="454"/>
      <point x="196" y="455" type="curve"/>
      <point x="137" y="453"/>
      <point x="103" y="451"/>
      <point x="95" y="451" type="curve"/>
      <point x="84" y="451"/>
      <point x="43" y="453"/>
      <point x="1" y="455" type="curve"/>
      <point x="-1" y="453"/>
      <point x="-2" y="450"/>
      <point x="-2" y="444" type="curve"/>
      <point x="-2" y="438"/>
      <point x="-1" y="435"/>
      <point x="1" y="435" type="curve"/>
      <point x="13" y="435"/>
      <point x="36" y="428"/>
      <point x="46" y="421" type="curve"/>
      <point x="60" y="412"/>
      <point x="66" y="404"/>
      <point x="84" y="375" type="curve"/>
      <point x="173" y="228" type="line" smooth="yes"/>
      <point x="181" y="214"/>
      <point x="188" y="199"/>
      <point x="188" y="193" type="curve"/>
      <point x="188" y="97" type="line" smooth="yes"/>
      <point x="188" y="68"/>
      <point x="186" y="48"/>
      <point x="182" y="34" type="curve"/>
      <point x="180" y="29"/>
      <point x="149" y="18"/>
      <point x="134" y="18" type="curve"/>
      <point x="132" y="18"/>
      <point x="131" y="15"/>
      <point x="131" y="8" type="curve"/>
      <point x="131" y="3"/>
      <point x="132" y="0"/>
    </contour>
    <contour>
      <point x="379" y="216" type="line"/>
      <point x="74" y="216" type="line"/>
      <point x="74" y="183" type="line"/>
      <point x="379" y="183" type="line"/>
    </contour>
    <contour>
      <point x="379" y="134" type="line"/>
      <point x="74" y="134" type="line"/>
      <point x="74" y="100" type="line"/>
      <point x="379" y="100" type="line"/>
    </contour>
  </outline>
</glyph>
<glyph name="brokenbar" format="1">
  <advance width="222"/>
  <unicode hex="00A6"/>
  <outline>
    <contour>
      <point x="138" y="-78" type="line"/>
      <point x="138" y="180" type="line"/>
      <point x="85" y="180" type="line"/>
      <point x="85" y="-78" type="line"/>
    </contour>
    <contour>
      <point x="85" y="526" type="line"/>
      <point x="85" y="268" type="line"/>
      <point x="138" y="268" type="line"/>
      <point x="138" y="526" type="line"/>
    </contour>
  </outline>
</glyph>
<glyph name="section" format="1">
  <advance width="310"/>
  <unicode hex="00A7"/>
  <outline>
    <contour>
      <point x="119" y="327" type="curve"/>
      <point x="86" y="329" type="line"/>
      <point x="42" y="303"/>
      <point x="23" y="272"/>
      <point x="23" y="232" type="curve"/>
      <point x="23" y="111"/>
      <point x="186" y="129"/>
      <point x="186" y="45" type="curve"/>
      <point x="186" y="20"/>
      <point x="167" y="-1"/>
      <point x="138" y="-1" type="curve"/>
      <point x="101" y="-1"/>
      <point x="104" y="48"/>
      <point x="70" y="48" type="curve"/>
      <point x="54" y="48"/>
      <point x="44" y="38"/>
      <point x="44" y="22" type="curve"/>
      <point x="44" y="-6"/>
      <point x="82" y="-28"/>
      <point x="133" y="-28" type="curve"/>
      <point x="193" y="-28"/>
      <point x="246" y="19"/>
      <point x="246" y="78" type="curve"/>
      <point x="246" y="179"/>
      <point x="74" y="181"/>
      <point x="74" y="257" type="curve"/>
      <point x="74" y="282"/>
      <point x="83" y="298"/>
    </contour>
    <contour>
      <point x="191" y="103" type="curve"/>
      <point x="224" y="101" type="line"/>
      <point x="268" y="127"/>
      <point x="287" y="158"/>
      <point x="287" y="198" type="curve"/>
      <point x="287" y="319"/>
      <point x="124" y="301"/>
      <point x="124" y="385" type="curve"/>
      <point x="124" y="410"/>
      <point x="143" y="431"/>
      <point x="172" y="431" type="curve"/>
      <point x="209" y="431"/>
      <point x="207" y="382"/>
      <point x="240" y="382" type="curve"/>
      <point x="256" y="382"/>
      <point x="266" y="392"/>
      <point x="266" y="408" type="curve"/>
      <point x="266" y="436"/>
      <point x="228" y="458"/>
      <point x="177" y="458" type="curve"/>
      <point x="117" y="458"/>
      <point x="64" y="411"/>
      <point x="64" y="352" type="curve"/>
      <point x="64" y="251"/>
      <point x="236" y="249"/>
      <point x="236" y="173" type="curve"/>
      <point x="236" y="148"/>
      <point x="227" y="132"/>
    </contour>
  </outline>
</glyph>
<glyph name="copyright" format="1">
  <advance width="448"/>
  <unicode hex="00A9"/>
  <outline>
    <contour>
      <point x="314" y="188" type="curve"/>
      <point x="314" y="190"/>
      <point x="309" y="191"/>
      <point x="300" y="191" type="curve"/>
      <point x="300" y="191"/>
      <point x="291" y="172"/>
      <point x="287" y="169" type="curve"/>
      <point x="277" y="161"/>
      <point x="261" y="157"/>
      <point x="238" y="157" type="curve"/>
      <point x="199" y="157"/>
      <point x="165" y="188"/>
      <point x="165" y="238" type="curve"/>
      <point x="165" y="276"/>
      <point x="193" y="309"/>
      <point x="230" y="309" type="curve"/>
      <point x="270" y="309"/>
      <point x="293" y="291"/>
      <point x="297" y="273" type="curve"/>
      <point x="300" y="272"/>
      <point x="302" y="272"/>
      <point x="304" y="272" type="curve"/>
      <point x="311" y="272"/>
      <point x="314" y="273"/>
      <point x="314" y="277" type="curve"/>
      <point x="314" y="280"/>
      <point x="310" y="302"/>
      <point x="303" y="320" type="curve"/>
      <point x="279" y="328"/>
      <point x="252" y="332"/>
      <point x="224" y="332" type="curve"/>
      <point x="164" y="332"/>
      <point x="119" y="287"/>
      <point x="119" y="231" type="curve"/>
      <point x="119" y="178"/>
      <point x="165" y="135"/>
      <point x="224" y="135" type="curve"/>
      <point x="253" y="135"/>
      <point x="278" y="139"/>
      <point x="300" y="148" type="curve"/>
      <point x="304" y="151"/>
      <point x="314" y="183"/>
    </contour>
  </outline>
</glyph>
<glyph name="logicalnot" format="1">
  <advance width="413"/>
  <unicode hex="00AC"/>
  <outline>
    <contour>
      <point x="376" y="289" type="line"/>
      <point x="37" y="289" type="line"/>
      <point x="37" y="248" type="line"/>
      <point x="331" y="248" type="line"/>
      <point x="331" y="111" type="line"/>
      <point x="376" y="111" type="line"/>
    </contour>
  </outline>
</glyph>
<glyph name="degree" format="1">
  <advance width="265"/>
  <unicode hex="00B0"/>
  <outline>
    <contour>
      <point x="133" y="261" type="curve"/>
      <point x="194" y="261"/>
      <point x="240" y="303"/>
      <point x="240" y="360" type="curve"/>
      <point x="240" y="416"/>
      <point x="194" y="458"/>
      <point x="133" y="458" type="curve"/>
      <point x="71" y="458"/>
      <point x="25" y="416"/>
      <point x="25" y="360" type="curve"/>
      <point x="25" y="303"/>
      <point x="71" y="261"/>
    </contour>
    <contour>
      <point x="133" y="296" type="curve"/>
      <point x="94" y="296"/>
      <point x="66" y="322"/>
      <point x="66" y="360" type="curve"/>
      <point x="66" y="397"/>
      <point x="94" y="424"/>
      <point x="133" y="424" type="curve"/>
      <point x="171" y="424"/>
      <point x="198" y="397"/>
      <point x="198" y="360" type="curve"/>
      <point x="198" y="322"/>
      <point x="171" y="296"/>
    </contour>
  </outline>
</glyph>
<glyph name="plusminus" format="1">
  <advance width="396"/>
  <unicode hex="00B1"/>
  <outline>
    <contour>
      <point x="37" y="255" type="line"/>
      <point x="37" y="213" type="line"/>
      <point x="376" y="213" type="line"/>
      <point x="376" y="255" type="line"/>
    </contour>
    <contour>
      <point x="184" y="72" type="line"/>
      <point x="229" y="72" type="line"/>
      <point x="229" y="396" type="line"/>
      <point x="184" y="396" type="line"/>
    </contour>
    <contour>
      <point x="37" y="41" type="line"/>
      <point x="37" y="0" type="line"/>
      <point x="376" y="0" type="line"/>
      <point x="376" y="41" type="line"/>
    </contour>
  </outline>
</glyph>
